<?xml version="1.0" encoding="UTF-8" standalone="no"?><!DOCTYPE svg PUBLIC "-//W3C//DTD SVG 1.1//EN" "http://www.w3.org/Graphics/SVG/1.1/DTD/svg11.dtd"><svg width="100%" height="100%" viewBox="0 0 72 71" version="1.1" xmlns="http://www.w3.org/2000/svg" xmlns:xlink="http://www.w3.org/1999/xlink" xml:space="preserve" xmlns:serif="http://www.serif.com/" style="fill-rule:evenodd;clip-rule:evenodd;stroke-linecap:round;stroke-linejoin:round;stroke-miterlimit:1.5;"><ellipse cx="36" cy="35.101" rx="35" ry="34.101" style="fill:none;stroke:#a0a0a0;stroke-width:2px;"/><path d="M41.508,26.19l2.7,0l0,-4.929l-4.906,0c-0.409,-0.017 -5.398,-0.112 -6.691,4.819c-0.018,0.051 -0.432,1.224 -0.432,3.963l-4.485,0.013l0,5.17l4.491,-0.014l0,13.634l6.861,0l0,-13.622l4.541,0l0,-5.183l-4.541,0l0,-1.63c0,-1.014 0.427,-2.221 2.462,-2.221Zm0.943,4.987l0,2.912l-4.54,0l0,13.622l-4.59,0l0,-13.637l-4.492,0.013l0,-2.899l4.503,-0.013l-0.011,-0.577c-0.059,-2.902 0.354,-4.122 0.373,-4.181c1.116,-4.247 5.376,-4.033 5.559,-4.022l3.82,0.001l0,2.659l-1.565,0c-2.652,0 -3.597,1.733 -3.597,3.356l0,2.766l4.54,0Z" style="fill:#333;fill-rule:nonzero;"/></svg>