<?xml version="1.0" encoding="UTF-8" standalone="no"?><!DOCTYPE svg PUBLIC "-//W3C//DTD SVG 1.1//EN" "http://www.w3.org/Graphics/SVG/1.1/DTD/svg11.dtd"><svg width="100%" height="100%" viewBox="0 0 72 71" version="1.1" xmlns="http://www.w3.org/2000/svg" xmlns:xlink="http://www.w3.org/1999/xlink" xml:space="preserve" xmlns:serif="http://www.serif.com/" style="fill-rule:evenodd;clip-rule:evenodd;stroke-linecap:round;stroke-linejoin:round;stroke-miterlimit:1.5;"><g><ellipse cx="36" cy="35.101" rx="35" ry="34.101" style="fill:none;stroke:#a0a0a0;stroke-width:2px;"/><path d="M41.263,23.474l-10.621,0c-3.457,0 -6.269,2.812 -6.269,6.269l0,10.622c0,3.456 2.812,6.269 6.269,6.269l10.621,0c3.457,0 6.269,-2.813 6.269,-6.269l0,-10.622c0,-3.457 -2.812,-6.269 -6.269,-6.269Zm4.912,16.891c0,2.708 -2.203,4.911 -4.912,4.911l-10.621,0c-2.708,0 -4.912,-2.203 -4.912,-4.911l0,-10.622c0,-2.708 2.204,-4.911 4.912,-4.911l10.621,0c2.709,0 4.912,2.203 4.912,4.911l0,10.622Z" style="fill:#333;fill-rule:nonzero;"/><path d="M35.952,28.721c-3.491,0 -6.332,2.841 -6.332,6.333c0,3.492 2.841,6.332 6.332,6.332c3.492,0 6.333,-2.84 6.333,-6.332c0,-3.492 -2.841,-6.333 -6.333,-6.333Zm0,11.308c-2.743,0 -4.974,-2.232 -4.974,-4.975c0,-2.743 2.231,-4.975 4.974,-4.975c2.744,0 4.975,2.232 4.975,4.975c0,2.743 -2.231,4.975 -4.975,4.975Z" style="fill:#333;fill-rule:nonzero;"/><path d="M42.437,26.472c-1.033,0 -1.872,0.84 -1.872,1.872c0,1.032 0.839,1.871 1.872,1.871c1.031,0 1.871,-0.839 1.871,-1.871c0,-1.032 -0.84,-1.872 -1.871,-1.872Zm0,2.385c-0.284,0 -0.514,-0.23 -0.514,-0.513c0,-0.284 0.23,-0.514 0.514,-0.514c0.283,0 0.513,0.23 0.513,0.514c0,0.283 -0.23,0.513 -0.513,0.513Z" style="fill:#333;fill-rule:nonzero;"/></g></svg>