<?xml version="1.0" encoding="UTF-8" standalone="no"?><!DOCTYPE svg PUBLIC "-//W3C//DTD SVG 1.1//EN" "http://www.w3.org/Graphics/SVG/1.1/DTD/svg11.dtd"><svg width="100%" height="100%" viewBox="0 0 72 71" version="1.1" xmlns="http://www.w3.org/2000/svg" xmlns:xlink="http://www.w3.org/1999/xlink" xml:space="preserve" xmlns:serif="http://www.serif.com/" style="fill-rule:evenodd;clip-rule:evenodd;stroke-linecap:round;stroke-linejoin:round;stroke-miterlimit:1.5;"><ellipse cx="36" cy="35.101" rx="35" ry="34.101" style="fill:none;stroke:#a0a0a0;stroke-width:2px;"/><g><circle cx="35.814" cy="28.994" r="6.484" style="fill:none;stroke:#333;stroke-width:1.04px;"/><circle cx="35.814" cy="28.994" r="3.15" style="fill:none;stroke:#333;stroke-width:1.04px;"/><path d="M30.517,35.316c0,0 5.711,5.076 11.083,-0.295c0,0 1.012,-1.002 1.722,-0.216c0.71,0.786 1.14,2.043 0.215,3.013c-0.924,0.97 -4.905,2.367 -6.026,2.206c-1.12,-0.16 4.573,4.573 4.573,4.573c0,0 1.395,1.179 0.162,2.25c-1.233,1.071 -2.063,0.862 -3.39,-0.474c-1.327,-1.337 -2.69,-2.69 -2.69,-2.69" style="fill:none;stroke:#333;stroke-width:1.04px;"/><path d="M41.321,35.316c0,0 -5.549,5.238 -10.921,-0.134c0,0 -1.012,-1.001 -1.722,-0.215c-0.71,0.786 -1.14,2.043 -0.215,3.013c0.924,0.97 4.905,2.366 6.026,2.206c1.12,-0.161 -4.573,4.573 -4.573,4.573c0,0 -1.395,1.179 -0.162,2.25c1.233,1.071 2.063,0.861 3.39,-0.475c1.327,-1.336 2.851,-2.851 2.851,-2.851" style="fill:none;stroke:#333;stroke-width:1.04px;"/></g></svg>