<?xml version="1.0" encoding="UTF-8" standalone="no"?><!DOCTYPE svg PUBLIC "-//W3C//DTD SVG 1.1//EN" "http://www.w3.org/Graphics/SVG/1.1/DTD/svg11.dtd"><svg width="100%" height="100%" viewBox="0 0 72 71" version="1.1" xmlns="http://www.w3.org/2000/svg" xmlns:xlink="http://www.w3.org/1999/xlink" xml:space="preserve" xmlns:serif="http://www.serif.com/" style="fill-rule:evenodd;clip-rule:evenodd;stroke-linecap:round;stroke-linejoin:round;stroke-miterlimit:1.5;"><ellipse cx="36" cy="35.101" rx="35" ry="34.101" style="fill:none;stroke:#a0a0a0;stroke-width:2px;"/><path d="M48.238,23.685c-0.41,-0.355 -0.986,-0.452 -1.49,-0.253l-22.518,8.846c-0.559,0.22 -0.929,0.762 -0.929,1.363c0,0.695 0.496,1.299 1.177,1.435l6.112,1.223l0,7.544c-0.006,0.593 0.354,1.131 0.904,1.353c0.18,0.075 0.374,0.114 0.57,0.115c0.386,-0.001 0.755,-0.157 1.026,-0.433l3.489,-3.489l5.148,4.53c0.265,0.236 0.608,0.366 0.962,0.367c0.154,-0.001 0.308,-0.025 0.454,-0.072c0.492,-0.156 0.865,-0.563 0.978,-1.067l4.589,-20.026c0.122,-0.528 -0.06,-1.083 -0.472,-1.436Zm-23.959,9.999c-0.025,-0.217 0.103,-0.423 0.308,-0.498l20.641,-8.109l-14.263,10.301l-6.295,-1.259c-0.215,-0.037 -0.377,-0.218 -0.391,-0.435Zm8.121,10.504c-0.092,0.091 -0.216,0.143 -0.346,0.143c-0.267,0 -0.488,-0.22 -0.488,-0.488l0,-6.865l4.278,3.765l-3.444,3.445Zm15.359,-19.284l-4.589,20.025c-0.051,0.221 -0.249,0.379 -0.476,0.379c-0.119,0 -0.233,-0.043 -0.323,-0.121l-10.511,-9.251l15.82,-11.425c0.084,0.112 0.113,0.256 0.079,0.393Z" style="fill:#333;fill-rule:nonzero;"/></svg>