<?xml version="1.0" encoding="UTF-8" standalone="no"?><!DOCTYPE svg PUBLIC "-//W3C//DTD SVG 1.1//EN" "http://www.w3.org/Graphics/SVG/1.1/DTD/svg11.dtd"><svg width="100%" height="100%" viewBox="0 0 72 71" version="1.1" xmlns="http://www.w3.org/2000/svg" xmlns:xlink="http://www.w3.org/1999/xlink" xml:space="preserve" xmlns:serif="http://www.serif.com/" style="fill-rule:evenodd;clip-rule:evenodd;stroke-linecap:round;stroke-linejoin:round;stroke-miterlimit:1.5;"><ellipse cx="36" cy="35.101" rx="35" ry="34.101" style="fill:none;stroke:#a0a0a0;stroke-width:2px;"/><clipPath id="_clip1"><rect id="twitter" x="23.223" y="22.324" width="25.554" height="25.554"/></clipPath><g clip-path="url(#_clip1)"><path d="M48.565,26.993c-0.171,-0.116 -0.398,-0.11 -0.563,0.015c-0.217,0.164 -0.57,0.295 -0.95,0.396c0.989,-1.11 1.011,-1.85 1,-2.021c-0.011,-0.176 -0.117,-0.332 -0.277,-0.407c-0.16,-0.075 -0.347,-0.057 -0.49,0.047c-1.113,0.809 -2.223,0.98 -2.882,0.997c-1.013,-0.969 -2.327,-1.5 -3.727,-1.5c-2.996,0 -5.432,2.47 -5.432,5.506c0,0.261 0.018,0.521 0.054,0.78c-5.192,-0.059 -9.408,-5.034 -9.452,-5.086c-0.101,-0.12 -0.255,-0.185 -0.413,-0.171c-0.157,0.013 -0.298,0.103 -0.377,0.24c-1.494,2.592 -0.494,4.868 0.42,6.172c-0.162,-0.086 -0.293,-0.171 -0.371,-0.229c-0.145,-0.108 -0.339,-0.126 -0.502,-0.046c-0.163,0.08 -0.267,0.245 -0.271,0.426c-0.04,2.47 1.149,3.885 2.267,4.667c-0.149,-0.014 -0.301,0.041 -0.404,0.154c-0.116,0.126 -0.157,0.304 -0.107,0.468c0.772,2.528 2.668,3.386 3.875,3.678c-2.481,1.931 -6.131,1.309 -6.172,1.303c-0.22,-0.04 -0.438,0.076 -0.528,0.281c-0.089,0.204 -0.028,0.443 0.15,0.579c2.618,1.998 5.75,2.441 8.012,2.441c1.711,0 2.925,-0.254 3.041,-0.279c11.458,-2.716 11.781,-13.212 11.754,-14.932c2.152,-2 2.488,-2.762 2.539,-2.95c0.056,-0.2 -0.022,-0.413 -0.194,-0.529Zm-3.161,2.918c-0.108,0.099 -0.165,0.242 -0.155,0.388c0.03,0.465 0.616,11.41 -10.996,14.162c-0.053,0.011 -4.669,0.974 -8.671,-1.008c1.691,-0.047 4.116,-0.49 5.805,-2.387c0.127,-0.142 0.158,-0.347 0.079,-0.521c-0.079,-0.173 -0.251,-0.284 -0.44,-0.284l-0.005,0c-0.024,0.016 -2.563,-0.003 -3.726,-2.418c0.468,0.027 1.046,-0.002 1.506,-0.214c0.189,-0.087 0.301,-0.286 0.278,-0.494c-0.024,-0.207 -0.177,-0.375 -0.381,-0.418c-0.13,-0.028 -2.957,-0.66 -3.353,-3.743c0.429,0.187 0.978,0.341 1.521,0.258c0.186,-0.028 0.339,-0.162 0.392,-0.343c0.052,-0.182 -0.005,-0.377 -0.148,-0.501c-0.121,-0.105 -2.775,-2.464 -1.517,-5.507c1.367,1.434 5.414,5.159 10.317,4.878c0.144,-0.009 0.277,-0.081 0.362,-0.197c0.086,-0.116 0.115,-0.264 0.08,-0.404c-0.093,-0.37 -0.14,-0.751 -0.14,-1.132c0,-2.503 2.003,-4.538 4.466,-4.538c1.204,0 2.334,0.48 3.181,1.354c0.089,0.092 0.211,0.144 0.339,0.147c0.512,0.007 1.355,-0.053 2.306,-0.435c-0.274,0.342 -0.678,0.751 -1.271,1.218c-0.168,0.132 -0.229,0.357 -0.151,0.556c0.078,0.199 0.279,0.325 0.489,0.306c0.112,-0.01 0.687,-0.06 1.336,-0.201c-0.355,0.381 -0.84,0.868 -1.503,1.478Z" style="fill:#333;fill-rule:nonzero;"/></g></svg>