<?xml version="1.0" encoding="UTF-8" standalone="no"?><!DOCTYPE svg PUBLIC "-//W3C//DTD SVG 1.1//EN" "http://www.w3.org/Graphics/SVG/1.1/DTD/svg11.dtd"><svg width="100%" height="100%" viewBox="0 0 72 71" version="1.1" xmlns="http://www.w3.org/2000/svg" xmlns:xlink="http://www.w3.org/1999/xlink" xml:space="preserve" xmlns:serif="http://www.serif.com/" style="fill-rule:evenodd;clip-rule:evenodd;stroke-linecap:round;stroke-linejoin:round;stroke-miterlimit:1.5;"><g><ellipse cx="36" cy="35.101" rx="35" ry="34.101" style="fill:none;stroke:#a0a0a0;stroke-width:2px;"/><path d="M36.568,45.771c2.56,0 2.972,-0.47 2.983,-1.423c0.01,-0.867 0.005,-1.828 0.001,-2.296c-0.006,-0.674 -0.012,-1.457 0.011,-1.851c0.127,0.036 0.521,0.018 0.877,0.183c0.531,0.246 1.142,0.813 1.977,1.903c2.364,2.385 2.968,3.284 4.877,3.284l3.514,0c1.114,0 1.373,-0.328 1.663,-0.715c0.258,-0.344 0.113,-0.494 -0.25,-1.416c-0.031,-0.08 -0.064,-0.163 -0.099,-0.249c-0.717,-2.395 -5.155,-6.713 -5.439,-7.162c0.042,-0.082 0.111,-0.192 0.147,-0.249l-0.003,0c0.902,-1.193 4.213,-6.287 4.72,-8.419c0.001,-0.002 0.003,-0.007 0.003,-0.011c0.274,-0.943 0.223,-1.032 -0.037,-1.377c-0.391,-0.517 -0.358,-0.377 -1.199,-0.377l-3.514,0c-1.177,0 -1.869,-0.063 -2.32,1.018c-0.755,1.921 -3.011,6.74 -4.803,7.603c0.019,-1.78 -0.083,-4.095 -0.057,-5.219c0.052,-2.192 0.418,-3.402 -1.857,-3.402l-5.523,0c-1.426,0 -2.789,0.633 -1.312,2.481c1.29,1.619 0.463,2.656 0.742,7.148c-1.085,-1.164 -3.016,-4.441 -4.381,-8.458c-0.383,-1.087 -0.963,-1.17 -2.595,-1.17l-3.514,0c-1.426,0 -1.888,-0.146 -1.888,1.155c0,2.921 6.4,19.019 17.276,19.019Zm-11.74,-18.754c0.31,0 0.863,0 1.093,0.652c1.72,4.117 3.557,8.964 5.847,8.964c1.721,0 1.454,-0.719 1.454,-1.383l-0.001,-3.386l-0.001,-1.901c-0.094,-1.749 -0.851,-2.62 -1.27,-3.149l6.241,0.006c0.003,0.024 -0.028,5.848 0.014,7.259c0,2.003 1.002,2.763 3.486,0.25c2.62,-2.958 4.178,-6.991 4.251,-7.171c0.107,-0.257 0.2,-0.344 0.536,-0.344l3.851,0c-0.002,0.005 -0.002,0.009 -0.003,0.013c-0.321,1.5 -3.493,6.278 -4.554,7.762c-0.017,0.022 -0.033,0.047 -0.049,0.071c-0.467,0.762 -0.78,1.605 0.132,2.791l0.001,0c0.083,0.099 0.298,0.334 0.613,0.659c0.976,1.008 4.648,4.79 4.945,6.161c-0.197,0.032 -1.121,0.009 -4.441,0.016c-0.707,0 -1.461,-0.722 -3.57,-2.85c-1.679,-2.033 -2.436,-2.719 -3.461,-2.921c-0.088,-0.017 -0.176,-0.026 -0.265,-0.026c-2.176,0 -1.429,1.78 -1.409,3.916c0.007,2.316 -0.208,1.718 -0.192,1.863c-0.127,0.05 -1.214,0.15 -2.164,0.15c-9.061,0 -14.961,-14.649 -15.189,-17.398c0.079,-0.007 1.629,-0.003 4.105,-0.004Z" style="fill:#333;fill-rule:nonzero;"/></g></svg>