<?xml version="1.0" encoding="UTF-8" standalone="no"?><!DOCTYPE svg PUBLIC "-//W3C//DTD SVG 1.1//EN" "http://www.w3.org/Graphics/SVG/1.1/DTD/svg11.dtd"><svg width="100%" height="100%" viewBox="0 0 72 71" version="1.1" xmlns="http://www.w3.org/2000/svg" xmlns:xlink="http://www.w3.org/1999/xlink" xml:space="preserve" xmlns:serif="http://www.serif.com/" style="fill-rule:evenodd;clip-rule:evenodd;stroke-linecap:round;stroke-linejoin:round;stroke-miterlimit:1.5;"><g><ellipse cx="36" cy="35.101" rx="35" ry="34.101" style="fill:none;stroke:#a0a0a0;stroke-width:2px;"/><path d="M44.154,25.155l-16.308,0c-2.969,0 -5.385,2.423 -5.385,5.401l0,9.091c0,2.978 2.416,5.401 5.385,5.401l16.308,0c2.969,0 5.385,-2.423 5.385,-5.401l0,-9.091c0,-2.978 -2.416,-5.401 -5.385,-5.401Zm4.279,14.492c0,2.369 -1.919,4.296 -4.279,4.296l-16.308,0c-2.36,0 -4.28,-1.927 -4.28,-4.296l0,-9.091c0,-2.369 1.92,-4.296 4.28,-4.296l16.308,0c2.36,0 4.279,1.927 4.279,4.296l0,9.091Z" style="fill:#333;fill-rule:nonzero;"/><path d="M40.896,34.901l-7.656,-4.484c-0.17,-0.1 -0.382,-0.101 -0.554,-0.003c-0.172,0.099 -0.278,0.282 -0.278,0.48l0,8.968c0,0.198 0.106,0.381 0.278,0.479c0.085,0.049 0.18,0.073 0.275,0.073c0.096,0 0.192,-0.025 0.279,-0.075l7.656,-4.484c0.169,-0.099 0.274,-0.28 0.274,-0.477c0,-0.196 -0.104,-0.377 -0.274,-0.477Zm-7.383,3.997l0,-7.04l6.01,3.52l-6.01,3.52Z" style="fill:#333;fill-rule:nonzero;"/></g></svg>