<?xml version="1.0" encoding="UTF-8" standalone="no"?><!DOCTYPE svg PUBLIC "-//W3C//DTD SVG 1.1//EN" "http://www.w3.org/Graphics/SVG/1.1/DTD/svg11.dtd"><svg width="100%" height="100%" viewBox="0 0 102 102" version="1.1" xmlns="http://www.w3.org/2000/svg" xmlns:xlink="http://www.w3.org/1999/xlink" xml:space="preserve" xmlns:serif="http://www.serif.com/" style="fill-rule:evenodd;clip-rule:evenodd;stroke-linejoin:round;stroke-miterlimit:1.5;"><g><circle cx="51" cy="51" r="49.5" style="fill:none;stroke:#d52132;stroke-width:3px;"/><path d="M76.09,53.716l-4.743,-9.336c-0.427,-0.841 -1.244,-1.363 -2.131,-1.363l-36.432,0c-0.887,0 -1.703,0.522 -2.13,1.363l-4.744,9.336c-0.251,0.494 -0.227,1.093 0.061,1.563c0.268,0.437 0.723,0.697 1.216,0.697l3.863,0l0,18.781c0,1.333 1.004,2.418 2.238,2.418l35.424,0c1.235,0 2.239,-1.085 2.239,-2.418l0,-8.062c0,-0.424 -0.343,-0.767 -0.767,-0.767c-0.424,0 -0.767,0.343 -0.767,0.767l0,8.062c0,0.479 -0.323,0.884 -0.705,0.884l-16.945,0l0,-28.654l4,7.872c0.35,0.689 1.022,1.117 1.754,1.117l11.896,0l0,7.14c0,0.424 0.343,0.767 0.767,0.767c0.423,0 0.767,-0.343 0.767,-0.767l0,-7.14l3.862,0c0.494,0 0.948,-0.26 1.216,-0.696c0.288,-0.471 0.312,-1.07 0.061,-1.564Zm-48.82,0.727c0,-0.01 0.002,-0.021 0.007,-0.032l4.744,-9.336c0.164,-0.323 0.456,-0.524 0.763,-0.524l16.966,0c-0.586,1.154 -4.093,8.056 -4.884,9.613l0,0.001c-0.087,0.171 -0.235,0.278 -0.387,0.278l-17.209,0Zm22.963,21.198l-16.945,0c-0.382,0 -0.705,-0.405 -0.705,-0.884l0,-18.781l11.896,0c0.735,0 1.406,-0.43 1.754,-1.117l4,-7.872l0,28.654Zm7.288,-21.199c-0.151,0 -0.3,-0.106 -0.387,-0.278l-4.884,-9.613l16.966,0c0.307,0 0.599,0.201 0.763,0.524l4.744,9.336c0.005,0.011 0.007,0.022 0.007,0.031l-17.209,0Z" style="fill:#d94236;fill-rule:nonzero;"/><path d="M51,27.21c-1.71,-2.743 -5.545,-3.206 -7.855,-0.893c-0.954,0.955 -1.479,2.224 -1.478,3.571c0.004,3.895 2.612,7.665 7.154,10.343c0.122,0.073 0.257,0.107 0.389,0.107c0.262,0 0.518,-0.135 0.661,-0.378c0.215,-0.364 0.094,-0.835 -0.271,-1.05c-1.922,-1.134 -6.394,-4.282 -6.399,-9.023c-0.002,-2.112 1.859,-3.773 3.983,-3.487c1.9,0.256 2.557,1.748 2.703,1.901c0.678,0.706 1.602,0.709 2.239,-0.021c0.17,-0.197 0.993,-1.919 3.156,-1.922c1.937,0 3.515,1.576 3.517,3.513c0.005,4.514 -4.01,7.599 -6.404,9.037c-0.363,0.218 -0.481,0.689 -0.263,1.052c0.218,0.363 0.689,0.481 1.052,0.263c4.614,-2.771 7.153,-6.448 7.149,-10.354c-0.005,-4.937 -6.494,-7.038 -9.333,-2.659Z" style="fill:#d94236;fill-rule:nonzero;"/></g></svg>