<?xml version="1.0" encoding="UTF-8" standalone="no"?><!DOCTYPE svg PUBLIC "-//W3C//DTD SVG 1.1//EN" "http://www.w3.org/Graphics/SVG/1.1/DTD/svg11.dtd"><svg width="100%" height="100%" viewBox="0 0 102 102" version="1.1" xmlns="http://www.w3.org/2000/svg" xmlns:xlink="http://www.w3.org/1999/xlink" xml:space="preserve" xmlns:serif="http://www.serif.com/" style="fill-rule:evenodd;clip-rule:evenodd;stroke-linejoin:round;stroke-miterlimit:1.5;"><g><circle cx="51" cy="51" r="49.5" style="fill:none;stroke:#d94236;stroke-width:3px;"/><clipPath id="_clip1"><rect id="_3" serif:id="3" x="25" y="25" width="52" height="52"/></clipPath><g clip-path="url(#_clip1)"><g><path d="M52.643,50.327c0.335,0.227 0.831,0.13 1.056,-0.202l9.135,-13.458c0.236,-0.347 0.146,-0.82 -0.202,-1.056c-0.347,-0.236 -0.82,-0.145 -1.056,0.202l-9.135,13.458c-0.236,0.347 -0.145,0.82 0.202,1.056Z" style="fill:#d94236;fill-rule:nonzero;"/><path d="M62.585,50.45c1.582,0 2.87,-1.303 2.87,-2.905c-0.162,-3.855 -5.577,-3.854 -5.739,0c0,1.602 1.287,2.905 2.869,2.905Zm0,-4.557c0.731,0 1.349,0.757 1.349,1.652c0,0.896 -0.618,1.653 -1.349,1.653c-0.731,0 -1.349,-0.757 -1.349,-1.653c0,-0.895 0.618,-1.652 1.349,-1.652Z" style="fill:#d94236;fill-rule:nonzero;"/><path d="M55.444,38.385c0,-1.602 -1.287,-2.905 -2.87,-2.905c-3.805,0.155 -3.803,5.656 0,5.81c1.583,0 2.87,-1.303 2.87,-2.905Zm-4.218,0c0,-0.896 0.617,-1.653 1.349,-1.653c0.731,0 1.348,0.757 1.348,1.653c0,0.896 -0.617,1.652 -1.348,1.652c-0.732,0 -1.349,-0.756 -1.349,-1.652Z" style="fill:#d94236;fill-rule:nonzero;"/><path d="M52.182,60.067c18.659,5.562 31.577,-17.798 17.047,-30.704c-0.318,-0.274 -0.798,-0.239 -1.072,0.08c-0.274,0.318 -0.238,0.798 0.08,1.072c13.488,12.015 1.115,33.605 -16.055,27.95l0,-5.166c0,-0.652 -0.395,-1.57 -2.273,-2.24c-2.143,-0.765 -4.615,-0.833 -6.851,-0.517c-7.169,-13.994 7.503,-29.152 21.683,-22.333c0.377,0.184 0.833,0.028 1.017,-0.349c0.184,-0.377 0.028,-0.833 -0.349,-1.017c-15.296,-7.372 -31.276,8.745 -23.894,24.012c-0.228,0.063 -0.446,0.13 -0.653,0.204c-1.878,0.671 -2.272,1.588 -2.272,2.24l0,5.06c-1.546,-0.732 -3.214,-0.966 -5.266,-0.994c-1.006,0.034 -1.007,1.486 -0.001,1.521c1.526,0.001 2.948,0.209 4.006,0.587c1.042,0.373 1.261,0.748 1.261,0.807c0,0.059 -0.22,0.435 -1.263,0.808c-2.42,0.864 -5.605,0.863 -8.025,0c-1.043,-0.373 -1.263,-0.749 -1.263,-0.808c0,-0.069 0.267,-0.502 1.535,-0.897c0.951,-0.333 0.518,-1.718 -0.452,-1.452c-2.152,0.671 -2.603,1.648 -2.603,2.349l0,13.745c0,0.651 0.394,1.569 2.272,2.239c2.749,0.981 6.299,0.981 9.047,0c0.683,-0.244 1.169,-0.52 1.512,-0.805c0.343,0.285 0.829,0.561 1.512,0.805c2.749,0.981 6.299,0.981 9.047,0c0.683,-0.244 1.17,-0.52 1.513,-0.805c0.342,0.285 0.829,0.561 1.512,0.805c2.749,0.981 6.299,0.981 9.047,0c1.878,-0.67 2.272,-1.588 2.272,-2.239l0,-6.873c0,-0.651 -0.394,-1.569 -2.272,-2.239c-2.749,-0.982 -6.299,-0.981 -9.047,0c-0.284,0.101 -0.533,0.208 -0.752,0.318c-0.001,-0.991 0.001,-3.932 -0.001,-4.966c0.001,-0.027 0.001,-0.168 0.001,-0.198Zm10.55,10.521c0,0.059 -0.219,0.436 -1.263,0.808c-2.42,0.864 -5.605,0.864 -8.024,0c-1.044,-0.373 -1.263,-0.749 -1.263,-0.808l0,-1.515c0.219,0.111 0.468,0.218 0.752,0.319c2.749,0.981 6.298,0.981 9.046,0c0.284,-0.101 0.533,-0.208 0.752,-0.319l0,1.515Zm-12.071,-13.853c0,0.058 -0.219,0.435 -1.263,0.807c-2.42,0.864 -5.605,0.864 -8.024,0c-1.044,-0.372 -1.264,-0.749 -1.264,-0.807l0,-1.515c0.22,0.11 0.469,0.217 0.752,0.318c2.749,0.982 6.299,0.981 9.047,0c0.284,-0.101 0.533,-0.208 0.752,-0.318l0,1.515Zm-9.799,2.239c3.01,1.049 6.889,1.019 9.799,-0.318l0,1.57c0,0.058 -0.219,0.435 -1.263,0.807c-2.42,0.864 -5.605,0.864 -8.024,0c-1.044,-0.372 -1.264,-0.749 -1.264,-0.807l0,-1.57c0.22,0.11 0.469,0.217 0.752,0.318Zm-2.272,8.178c0,0.059 -0.22,0.435 -1.263,0.808c-2.421,0.864 -5.605,0.864 -8.025,0c-1.043,-0.373 -1.263,-0.749 -1.263,-0.808l0,-1.515c0.22,0.111 0.469,0.218 0.752,0.319c2.749,0.981 6.299,0.981 9.047,0c0.283,-0.101 0.532,-0.208 0.752,-0.319l0,1.515Zm-10.551,1.921c0.22,0.111 0.469,0.218 0.752,0.319c2.749,0.981 6.299,0.981 9.047,0c0.283,-0.101 0.532,-0.208 0.752,-0.319l0,1.515c0,0.059 -0.22,0.435 -1.263,0.808c-2.421,0.864 -5.605,0.863 -8.025,0c-1.043,-0.373 -1.263,-0.749 -1.263,-0.808l0,-1.515Zm12.071,0c0.22,0.111 0.469,0.218 0.752,0.319c2.749,0.981 6.299,0.981 9.047,0c0.284,-0.101 0.533,-0.208 0.752,-0.319l0,1.515c0,0.059 -0.219,0.435 -1.263,0.808c-2.42,0.864 -5.605,0.864 -8.024,0c-1.044,-0.373 -1.264,-0.749 -1.264,-0.808l0,-1.515Zm9.288,-1.113c-2.42,0.864 -5.605,0.863 -8.024,0c-1.044,-0.373 -1.264,-0.749 -1.264,-0.808l0,-1.515c0.22,0.111 0.469,0.218 0.752,0.319c2.749,0.981 6.299,0.981 9.047,0c0.284,-0.101 0.533,-0.208 0.752,-0.319l0,1.515c0,0.059 -0.219,0.435 -1.263,0.808Zm1.263,-4.244c0,0.059 -0.219,0.435 -1.263,0.808c-2.42,0.864 -5.605,0.863 -8.024,0c-1.044,-0.373 -1.264,-0.749 -1.264,-0.808l0,-1.57c0.22,0.111 0.469,0.218 0.752,0.319c2.749,0.981 6.299,0.981 9.047,0c0.284,-0.101 0.533,-0.208 0.752,-0.319l0,1.57Zm-9.287,-11.225c2.419,-0.864 5.605,-0.863 8.024,0c1.044,0.373 1.263,0.749 1.263,0.808c0,0.058 -0.219,0.435 -1.263,0.807c-2.42,0.864 -5.605,0.864 -8.024,0c-1.044,-0.372 -1.264,-0.749 -1.264,-0.807c0,-0.059 0.22,-0.435 1.264,-0.808Zm-12.583,10.029c3.01,1.048 6.889,1.019 9.799,-0.319l0,1.515c0,0.059 -0.22,0.435 -1.263,0.808c-2.421,0.864 -5.605,0.863 -8.025,0c-1.043,-0.373 -1.263,-0.749 -1.263,-0.808l0,-1.515c0.22,0.111 0.469,0.217 0.752,0.319Zm8.536,12.312c-2.421,0.864 -5.605,0.864 -8.025,0c-1.043,-0.372 -1.263,-0.749 -1.263,-0.807l0,-1.516c3.159,1.421 7.393,1.421 10.551,0l0,1.516c0,0.058 -0.22,0.435 -1.263,0.807Zm12.071,0c-2.42,0.864 -5.605,0.864 -8.024,0c-1.044,-0.372 -1.264,-0.749 -1.264,-0.807l0,-1.516c3.16,1.421 7.393,1.421 10.551,0l0,1.516c0,0.058 -0.219,0.434 -1.263,0.807Zm12.071,0c-2.42,0.864 -5.605,0.864 -8.024,0c-1.044,-0.372 -1.263,-0.749 -1.263,-0.807l0,-1.516c3.159,1.421 7.392,1.421 10.55,0l0,1.516c0,0.058 -0.219,0.435 -1.263,0.807Zm-8.024,-8.487c2.42,-0.864 5.605,-0.864 8.024,0c1.044,0.372 1.263,0.749 1.263,0.807c0,0.059 -0.219,0.435 -1.263,0.808c-2.42,0.864 -5.605,0.864 -8.024,0c-1.044,-0.373 -1.263,-0.749 -1.263,-0.808c0,-0.058 0.219,-0.435 1.263,-0.807Z" style="fill:#d94236;fill-rule:nonzero;"/></g></g></g></svg>