<?xml version="1.0" encoding="UTF-8" standalone="no"?><!DOCTYPE svg PUBLIC "-//W3C//DTD SVG 1.1//EN" "http://www.w3.org/Graphics/SVG/1.1/DTD/svg11.dtd"><svg width="100%" height="100%" viewBox="0 0 102 102" version="1.1" xmlns="http://www.w3.org/2000/svg" xmlns:xlink="http://www.w3.org/1999/xlink" xml:space="preserve" xmlns:serif="http://www.serif.com/" style="fill-rule:evenodd;clip-rule:evenodd;stroke-linejoin:round;stroke-miterlimit:1.5;"><circle cx="51" cy="51" r="49.5" style="fill:none;stroke:#d52132;stroke-width:3px;"/><path d="M73.217,32.317c-0.991,-1.93 -3.626,-2.285 -5.066,-0.625c-1.998,-2.292 -6.269,-0.687 -5.244,3.323c-0.703,0.292 -1.486,0.823 -2.136,1.791c-1.617,-2.484 -5.138,-2.886 -7.269,-0.752c-0.889,0.89 -1.379,2.072 -1.377,3.329c0.005,4.82 4.212,8.523 8.148,10.381c0.326,0.153 0.7,0.149 1.017,-0.001c0.634,-0.301 2.286,-1.151 3.938,-2.538c2.676,-2.249 4.081,-4.782 4.182,-7.533c1.391,-0.81 2.586,-1.907 3.288,-3.043c0.223,-0.36 0.111,-0.833 -0.249,-1.055c-0.361,-0.223 -0.833,-0.111 -1.056,0.249c-0.711,1.151 -2.006,2.155 -3.24,2.789c-1.917,-0.964 -3.874,-2.742 -3.876,-4.904c-0.002,-1.598 2.123,-2.139 2.903,-0.767c0.384,0.675 1.458,0.771 1.939,-0.004c0.725,-1.165 2.212,-0.955 2.733,0.06c0.193,0.377 0.655,0.526 1.032,0.333c0.377,-0.194 0.526,-0.656 0.333,-1.033Zm-5.38,7.857c-0.243,2.1 -1.45,4.073 -3.596,5.877c-1.401,1.177 -2.8,1.93 -3.462,2.255c-3.467,-1.677 -7.116,-4.878 -7.121,-8.925c-0.001,-0.846 0.329,-1.643 0.929,-2.243c1.482,-1.485 3.966,-1.148 5.003,0.675c0.134,0.236 0.615,0.67 1.219,0.656c0.484,-0.011 0.916,-0.301 1.154,-0.682c0.462,-0.742 1.023,-1.14 1.521,-1.35c1.105,1.956 3.462,3.445 4.353,3.737Z" style="fill:#d94236;fill-rule:nonzero;"/><path d="M77.096,59.569c-0.002,-0.008 -0.004,-0.016 -0.005,-0.024c-0.265,-1.137 -0.945,-1.954 -1.915,-2.38c1.126,-3.048 -2.233,-5.906 -5.079,-4.216c-7.421,4.405 -7.106,4.164 -7.559,4.649l-0.666,0.046c0.166,-1.023 -0.078,-2.311 -1.514,-3.289c-5.654,-3.852 -6.66,-4.699 -8.373,-5.069c-5.023,-1.096 -6.059,-1.284 -8.894,-0.708c-2.145,0.436 -4.301,1.072 -6.419,1.89l-0.285,-0.693c-0.392,-0.952 -1.479,-1.405 -2.431,-1.013l-7.954,3.275c-0.715,0.295 -1.177,0.985 -1.177,1.758l0,15.96c0,1.149 1.168,1.923 2.223,1.49l13.828,-5.679c0.949,-0.391 1.404,-1.481 1.013,-2.43l0,0l-0.274,-0.664l0.835,-0.343c1.614,-0.665 3.598,-0.366 5.308,0.798c4.811,3.278 4.873,3.426 6.104,3.879c0.398,0.146 0.839,-0.058 0.985,-0.455c0.146,-0.398 -0.058,-0.838 -0.455,-0.985c-0.927,-0.341 -0.873,-0.37 -5.771,-3.706c-2.137,-1.456 -4.663,-1.811 -6.755,-0.949l-0.834,0.343c-0.117,-0.283 -2.622,-6.366 -3.776,-9.169c2.028,-0.781 4.09,-1.387 6.14,-1.804c2.129,-0.432 3.259,-0.481 8.248,0.701c1.455,0.346 2.081,0.911 7.851,4.841c0.868,0.591 1.165,1.482 0.605,2.495c-0.064,0.115 -0.657,1.111 -1.781,0.556c-1.793,-0.885 -6.07,-2.974 -6.113,-2.995c-0.38,-0.186 -0.839,-0.028 -1.025,0.352c-0.186,0.381 -0.028,0.84 0.352,1.026c0.043,0.021 4.317,2.109 6.107,2.993c1.408,0.694 2.751,0.209 3.556,-0.821c15.845,-1.102 11.402,-0.84 12.842,-0.824c0.704,0.124 1.33,0.523 1.556,1.475c0.345,1.782 -1.482,2.384 -1.907,2.498l-15.788,3.172c-0.415,0.084 -0.684,0.488 -0.601,0.903c0.073,0.364 0.393,0.616 0.751,0.616c0.05,0 0.101,-0.005 0.152,-0.015c0.034,-0.007 15.821,-3.178 15.854,-3.187c1.375,-0.359 3.563,-1.669 3.041,-4.298Zm-36.625,4.151c0.068,0.167 -0.012,0.359 -0.178,0.428l-13.828,5.678c-0.01,0.004 -0.038,0.015 -0.072,-0.007c-0.034,-0.023 -0.034,-0.053 -0.034,-0.064l0,-15.96c0,-0.149 0.089,-0.283 0.227,-0.339l7.954,-3.276c0.045,-0.018 0.087,-0.025 0.125,-0.025c0.054,0 0.099,0.014 0.127,0.026c0.046,0.019 0.132,0.068 0.177,0.178c2.459,5.971 3.166,7.688 5.502,13.361Zm33.18,-6.887c-0.395,-0.015 -0.734,0.015 -1.11,0.069l-3.448,0.24l-3.46,0.24l5.247,-3.114c1.684,-1 3.639,0.822 2.771,2.565Z" style="fill:#d94236;fill-rule:nonzero;"/></svg>