<?xml version="1.0" encoding="UTF-8" standalone="no"?><!DOCTYPE svg PUBLIC "-//W3C//DTD SVG 1.1//EN" "http://www.w3.org/Graphics/SVG/1.1/DTD/svg11.dtd"><svg width="100%" height="100%" viewBox="0 0 102 102" version="1.1" xmlns="http://www.w3.org/2000/svg" xmlns:xlink="http://www.w3.org/1999/xlink" xml:space="preserve" xmlns:serif="http://www.serif.com/" style="fill-rule:evenodd;clip-rule:evenodd;stroke-linejoin:round;stroke-miterlimit:1.5;"><g><g><circle cx="51" cy="51" r="49.5" style="fill:none;stroke:#d94236;stroke-width:3px;"/></g><g id="XMLID_977_"><path id="XMLID_1030_" d="M71.335,35.038l1.597,0c0.558,0 1.009,-0.451 1.009,-1.009c0,-0.557 -0.451,-1.009 -1.009,-1.009l-3.835,0c-0.557,0 -1.009,0.452 -1.009,1.009l0,3.835c0,0.557 0.452,1.009 1.009,1.009c0.558,0 1.01,-0.452 1.01,-1.009l0,-1.11c3.062,4.099 4.726,9.073 4.726,14.246c0,13.142 -10.691,23.833 -23.833,23.833c-13.142,0 -23.833,-10.691 -23.833,-23.833c0,-13.142 10.691,-23.833 23.833,-23.833c0.972,0 1.95,0.059 2.908,0.175c0.552,0.067 1.056,-0.326 1.123,-0.88c0.067,-0.553 -0.326,-1.056 -0.88,-1.123c-1.038,-0.126 -2.098,-0.19 -3.151,-0.19c-6.905,0 -13.397,2.689 -18.28,7.571c-4.882,4.883 -7.571,11.375 -7.571,18.28c0,6.905 2.689,13.397 7.571,18.28c4.883,4.882 11.375,7.571 18.28,7.571c6.905,0 13.397,-2.689 18.28,-7.571c4.882,-4.883 7.571,-11.375 7.571,-18.28c0,-5.827 -1.946,-11.421 -5.516,-15.962Z" style="fill:#d94236;fill-rule:nonzero;"/><path id="XMLID_1029_" d="M36.095,40.388c-0.471,-0.298 -1.094,-0.158 -1.392,0.313c-2.304,3.639 -3.324,8.015 -2.872,12.322c0.459,4.371 2.426,8.493 5.54,11.607c3.757,3.757 8.693,5.636 13.629,5.636c4.936,0 9.872,-1.879 13.63,-5.636c7.515,-7.516 7.515,-19.744 0,-27.259c-3.109,-3.109 -7.225,-5.076 -11.588,-5.538c-4.3,-0.456 -8.671,0.556 -12.308,2.849c-0.471,0.297 -0.613,0.92 -0.316,1.392c0.298,0.471 0.921,0.612 1.392,0.315c6.856,-4.321 15.653,-3.331 21.392,2.409c6.729,6.728 6.729,17.676 0,24.404c-6.728,6.729 -17.676,6.729 -24.404,0c-5.66,-5.66 -6.665,-14.669 -2.39,-21.421c0.298,-0.471 0.158,-1.095 -0.313,-1.393Z" style="fill:#d94236;fill-rule:nonzero;"/><path id="XMLID_1028_" d="M64.119,52.026l1.245,0c0.557,0 1.009,-0.452 1.009,-1.01c0,-0.557 -0.452,-1.009 -1.009,-1.009l-1.245,0c-0.557,0 -1.009,0.452 -1.009,1.009c0,0.558 0.452,1.01 1.009,1.01Z" style="fill:#d94236;fill-rule:nonzero;"/><path id="XMLID_1004_" d="M35.627,50.984c0,0.557 0.452,1.009 1.009,1.009l1.245,0c0.557,0 1.009,-0.452 1.009,-1.009c0,-0.558 -0.452,-1.01 -1.009,-1.01l-1.245,0c-0.557,0 -1.009,0.452 -1.009,1.01Z" style="fill:#d94236;fill-rule:nonzero;"/><path id="XMLID_1001_" d="M52.026,37.881l0,-1.245c0,-0.557 -0.452,-1.009 -1.01,-1.009c-0.557,0 -1.009,0.452 -1.009,1.009l0,1.245c0,0.557 0.452,1.009 1.009,1.009c0.558,0 1.01,-0.452 1.01,-1.009Z" style="fill:#d94236;fill-rule:nonzero;"/><path id="XMLID_1415_" d="M49.974,64.119l0,1.245c0,0.557 0.452,1.009 1.01,1.009c0.557,0 1.009,-0.452 1.009,-1.009l0,-1.245c0,-0.557 -0.452,-1.009 -1.009,-1.009c-0.558,0 -1.01,0.452 -1.01,1.009Z" style="fill:#d94236;fill-rule:nonzero;"/><path id="XMLID_996_" d="M45.942,44.514c-0.394,-0.394 -1.033,-0.394 -1.428,0c-0.394,0.395 -0.394,1.034 0,1.428l3.421,3.42c-0.262,0.488 -0.412,1.046 -0.412,1.638c0,1.917 1.56,3.477 3.477,3.477c1.917,0 3.477,-1.56 3.477,-3.477c0,-0.592 -0.15,-1.15 -0.412,-1.638l6.901,-6.901c0.394,-0.394 0.394,-1.033 0,-1.427c-0.394,-0.394 -1.033,-0.394 -1.427,0l-6.901,6.901c-0.488,-0.262 -1.046,-0.412 -1.638,-0.412c-0.592,0 -1.15,0.15 -1.638,0.412l-3.42,-3.421Zm6.516,6.486c0,0.804 -0.654,1.458 -1.458,1.458c-0.804,0 -1.458,-0.654 -1.458,-1.458c0,-0.804 0.654,-1.458 1.458,-1.458c0.804,0 1.458,0.654 1.458,1.458Z" style="fill:#d94236;fill-rule:nonzero;"/><path id="XMLID_980_" d="M38.797,38.797c0.189,-0.187 0.297,-0.448 0.297,-0.713c0,-0.266 -0.108,-0.525 -0.297,-0.714c-0.187,-0.187 -0.447,-0.295 -0.713,-0.295c-0.266,0 -0.526,0.108 -0.714,0.295c-0.187,0.188 -0.295,0.448 -0.295,0.714c0,0.266 0.108,0.526 0.295,0.713c0.188,0.188 0.448,0.296 0.714,0.296c0.266,0 0.526,-0.108 0.713,-0.296Z" style="fill:#d94236;fill-rule:nonzero;"/><path id="XMLID_979_" d="M57.99,28.164c0.267,0 0.527,-0.107 0.715,-0.296c0.188,-0.188 0.296,-0.447 0.296,-0.713c0,-0.266 -0.108,-0.526 -0.296,-0.714c-0.188,-0.187 -0.448,-0.296 -0.715,-0.296c-0.265,0 -0.525,0.108 -0.713,0.296c-0.188,0.188 -0.296,0.448 -0.296,0.714c0,0.266 0.108,0.525 0.296,0.713c0.188,0.189 0.448,0.296 0.713,0.296Z" style="fill:#d94236;fill-rule:nonzero;"/></g></g></svg>