<?xml version="1.0" encoding="UTF-8" standalone="no"?><!DOCTYPE svg PUBLIC "-//W3C//DTD SVG 1.1//EN" "http://www.w3.org/Graphics/SVG/1.1/DTD/svg11.dtd"><svg width="100%" height="100%" viewBox="0 0 102 102" version="1.1" xmlns="http://www.w3.org/2000/svg" xmlns:xlink="http://www.w3.org/1999/xlink" xml:space="preserve" xmlns:serif="http://www.serif.com/" style="fill-rule:evenodd;clip-rule:evenodd;stroke-linejoin:round;stroke-miterlimit:1.5;"><g><circle cx="51" cy="51" r="49.5" style="fill:none;stroke:#d52132;stroke-width:3px;"/><clipPath id="_clip1"><rect id="_7" serif:id="7" x="22.929" y="22.929" width="56.141" height="56.141"/></clipPath><g clip-path="url(#_clip1)"><path d="M77.542,31.856l-7.194,-8.384c-0.013,-0.016 -0.028,-0.031 -0.042,-0.046c-0.629,-0.628 -1.647,-0.665 -2.319,-0.085l-5.733,4.95c-0.704,0.607 -0.781,1.669 -0.174,2.373l0.225,0.26l-0.37,0.319c-0.981,0.848 -2.458,1.101 -3.95,0.678c-0.03,-0.008 -4.276,-1.213 -4.306,-1.22c-0.774,-0.18 -2.776,-0.464 -4.688,0.769c-0.031,0.018 -10.986,6.288 -11.016,6.308c-2.983,1.943 -1.547,5.291 0.729,5.656c0.1,2.652 3.446,3.874 5.219,1.825c4.388,-5.07 4.244,-4.849 4.474,-5.313l0.167,-0.069c0.219,0.82 0.817,1.637 2.04,1.984c5.129,1.455 6.158,1.863 7.581,1.706c3.977,-0.426 4.888,-0.557 6.891,-1.709c1.44,-0.83 2.842,-1.799 4.177,-2.886l0.244,0.282c0.609,0.705 1.671,0.781 2.374,0.174l5.456,-4.711c0.846,-0.73 0.942,-2.013 0.215,-2.861Zm-34.863,12.327c-0.822,0.95 -2.375,0.32 -2.329,-0.913c0,0 4.859,-2.01 4.859,-2.01l-2.53,2.923Zm21.576,-3.751c-1.704,0.98 -2.277,1.074 -6.228,1.497c-1.083,0.116 -1.942,-0.223 -6.974,-1.651c-0.646,-0.183 -0.815,-0.528 -0.885,-0.772c-0.097,-0.333 -0.035,-0.652 -0.036,-0.652c0.042,-0.179 0.117,-0.333 0.201,-0.446c0.122,-0.165 0.307,-0.326 0.748,-0.265c1.557,0.214 5.263,0.709 5.3,0.714c0.451,0.061 0.864,-0.256 0.924,-0.706c0.06,-0.45 -0.256,-0.864 -0.706,-0.924c-0.037,-0.005 -3.74,-0.5 -5.293,-0.714c-1.454,-0.2 -2.311,0.698 -2.649,1.546l-1.199,0.495c0,0 -7.308,3.049 -8.037,3.259c-1.323,0.186 -2.228,-1.536 -0.566,-2.645l10.972,-6.28c0,-0.001 0.001,-0.001 0.002,-0.002c0.013,-0.007 0.026,-0.015 0.039,-0.024c1.374,-0.894 2.836,-0.696 3.42,-0.563l4.248,1.205c2.026,0.574 4.073,0.195 5.474,-1.015l0.37,-0.32c0.627,0.727 4.241,4.912 4.798,5.558c-1.255,1.019 -2.572,1.927 -3.923,2.705Zm11.998,-6.961c-0.045,0.039 -5.472,4.752 -5.51,4.708c-0.038,-0.044 -7.458,-8.605 -7.414,-8.643l5.733,-4.95l0,0c0.011,-0.009 0.025,-0.014 0.038,-0.014c0.012,0 0.023,0.003 0.032,0.009l7.161,8.346c0.139,0.161 0.121,0.406 -0.04,0.544Z" style="fill:#d94236;fill-rule:nonzero;"/><path d="M63.455,58.604c-0.1,-2.652 -3.446,-3.873 -5.219,-1.825l-4.06,4.691c-0.165,0.19 -0.303,0.399 -0.414,0.622l-0.167,0.07c-0.219,-0.821 -0.817,-1.638 -2.04,-1.985c-5.394,-1.53 -6.096,-1.836 -7.565,-1.707c-0.006,0 -0.011,0.001 -0.016,0.001c-3.976,0.427 -4.888,0.557 -6.891,1.71c-1.44,0.829 -2.842,1.798 -4.177,2.886l-0.244,-0.283c-0.607,-0.702 -1.672,-0.78 -2.374,-0.174l-5.754,4.968c-0.331,0.286 -0.53,0.684 -0.56,1.12c-0.03,0.437 0.112,0.858 0.4,1.187l7.584,8.642c0.567,0.647 1.555,0.728 2.199,0.183c0.003,-0.003 0.013,-0.011 0.016,-0.013l5.732,-4.95c0.704,-0.608 0.782,-1.669 0.174,-2.373l-0.225,-0.26l0.37,-0.319c0.981,-0.848 2.458,-1.101 3.95,-0.678l4.166,1.181c0.437,0.124 0.892,-0.129 1.016,-0.566c0.123,-0.437 -0.13,-0.892 -0.567,-1.016l-4.166,-1.182c-2.026,-0.574 -4.072,-0.194 -5.474,1.016l-0.37,0.319l-3.166,-3.667l-1.632,-1.89c1.255,-1.02 2.572,-1.928 3.923,-2.706c1.705,-0.981 2.278,-1.074 6.237,-1.498c1.119,-0.097 1.736,0.169 6.965,1.652c0.646,0.183 0.815,0.528 0.886,0.772c0.096,0.334 0.035,0.652 0.035,0.652c-0.04,0.175 -0.116,0.331 -0.201,0.446c-0.122,0.165 -0.308,0.326 -0.748,0.265c-1.557,-0.214 -5.262,-0.709 -5.3,-0.714c-0.451,-0.06 -0.864,0.256 -0.924,0.706c-0.06,0.45 0.256,0.864 0.706,0.924c0.038,0.005 3.74,0.5 5.294,0.714c0.139,0.019 0.273,0.028 0.401,0.028c1.212,0 1.941,-0.807 2.247,-1.574l1.2,-0.494c0,0 7.068,-2.912 7.156,-2.957c0.47,-0.241 0.76,-0.268 0.88,-0.303c1.323,-0.185 2.229,1.536 0.566,2.645c-11.556,6.615 -11.296,6.474 -11.296,6.474c-0.398,0.218 -0.545,0.718 -0.327,1.116c0.217,0.399 0.717,0.546 1.116,0.328c0,0 11.387,-6.527 11.387,-6.527c2.982,-1.943 1.548,-5.292 -0.729,-5.657Zm-24.621,13.845c0.038,0.044 -5.633,4.913 -5.677,4.951l-7.535,-8.588l5.741,-4.957c0.004,-0.003 0.013,-0.011 0.027,-0.009c0.016,0.001 0.023,0.009 0.026,0.013l7.418,8.59Zm18.116,-11.671l2.53,-2.923c0.809,-0.934 2.376,-0.34 2.329,0.913c0,0 -4.858,2.01 -4.859,2.01Z" style="fill:#d94236;fill-rule:nonzero;"/><path d="M57.21,52.132c-0.435,-0.133 -0.895,0.112 -1.028,0.546c-0.675,2.205 -2.718,3.686 -4.985,3.686c-2.854,0 -5.214,-2.317 -5.214,-5.215c0,-2.875 2.339,-5.215 5.214,-5.215c2.183,0 4.152,1.378 4.9,3.428c0.156,0.427 0.628,0.647 1.055,0.491c0.427,-0.155 0.646,-0.628 0.491,-1.054c-0.984,-2.697 -3.574,-4.51 -6.446,-4.51c-3.782,0 -6.859,3.078 -6.859,6.86c0,3.819 3.109,6.86 6.859,6.86c2.969,0 5.665,-1.933 6.558,-4.849c0.133,-0.435 -0.111,-0.895 -0.545,-1.028Z" style="fill:#d94236;fill-rule:nonzero;"/><text x="47.681px" y="54.328px" style="font-family:'Montserrat-SemiBold', 'Montserrat';font-weight:600;font-size:9.083px;fill:#d94236;">₽</text></g></g></svg>