<?xml version="1.0" encoding="UTF-8" standalone="no"?><!DOCTYPE svg PUBLIC "-//W3C//DTD SVG 1.1//EN" "http://www.w3.org/Graphics/SVG/1.1/DTD/svg11.dtd"><svg width="100%" height="100%" viewBox="0 0 102 102" version="1.1" xmlns="http://www.w3.org/2000/svg" xmlns:xlink="http://www.w3.org/1999/xlink" xml:space="preserve" xmlns:serif="http://www.serif.com/" style="fill-rule:evenodd;clip-rule:evenodd;stroke-linejoin:round;stroke-miterlimit:1.5;"><g><g><circle cx="51" cy="51" r="49.5" style="fill:none;stroke:#d94236;stroke-width:3px;"/></g><clipPath id="_clip1"><rect id="_9" serif:id="9" x="24.149" y="24.149" width="53.703" height="53.703"/></clipPath><g clip-path="url(#_clip1)"><path d="M36.928,42.812c-2.539,0 -4.604,2.065 -4.604,4.604c0,2.539 2.065,4.605 4.604,4.605c2.54,0 4.605,-2.066 4.605,-4.605c0,-2.539 -2.065,-4.604 -4.605,-4.604Zm0,7.635c-1.671,0 -3.03,-1.359 -3.03,-3.03c0,-1.672 1.359,-3.031 3.03,-3.031c1.672,0 3.031,1.359 3.031,3.031c0,1.671 -1.359,3.03 -3.031,3.03Z" style="fill:#d94236;fill-rule:nonzero;"/><path d="M51,42.812c-3.193,0 -5.791,2.597 -5.791,5.79c0,3.193 2.598,5.791 5.791,5.791c3.193,0 5.79,-2.598 5.79,-5.791c0,-3.193 -2.597,-5.79 -5.79,-5.79Zm0,10.007c-2.325,0 -4.217,-1.892 -4.217,-4.217c0,-2.325 1.892,-4.217 4.217,-4.217c2.325,0 4.216,1.892 4.216,4.217c0,2.325 -1.891,4.217 -4.216,4.217Z" style="fill:#d94236;fill-rule:nonzero;"/><path d="M65.071,42.812c-2.539,0 -4.604,2.065 -4.604,4.604c0,2.539 2.065,4.605 4.604,4.605c2.539,0 4.605,-2.066 4.605,-4.605c0,-2.539 -2.066,-4.604 -4.605,-4.604Zm0,7.635c-1.671,0 -3.03,-1.359 -3.03,-3.03c0,-1.672 1.359,-3.031 3.03,-3.031c1.672,0 3.031,1.359 3.031,3.031c0,1.671 -1.359,3.03 -3.031,3.03Z" style="fill:#d94236;fill-rule:nonzero;"/><path d="M66.655,53.703c-0.006,0 -0.011,0 -0.017,0l-3.133,0c-0.006,0 -0.011,0 -0.017,0c-3.118,0.008 -5.66,1.955 -6.151,4.449c-1.301,-0.708 -2.768,-1.067 -4.284,-1.067c-1.902,0 -3.081,-0.012 -3.927,0c-1.577,0 -3.027,0.285 -4.463,1.067c-0.488,-2.479 -3.016,-4.441 -6.151,-4.449c-0.006,0 -0.011,0 -0.017,0l-3.133,0c-0.006,0 -0.011,0 -0.017,0c-3.437,0.008 -6.239,2.394 -6.239,5.334l0,9.013c0,1.032 0.839,1.871 1.87,1.871l10.016,0l0,5.723c0,1.217 0.99,2.207 2.208,2.207l5.964,0c0.435,0 0.787,-0.352 0.787,-0.787c0,-0.434 -0.352,-0.787 -0.787,-0.787l-5.964,0c-0.35,0 -0.634,-0.284 -0.634,-0.633l0,-6.51l0,-5.302c0,-2.267 1.764,-4.042 3.928,-4.775l3.422,4.774c0.241,0.337 0.647,0.538 1.084,0.538c0.438,0 0.843,-0.201 1.084,-0.538l3.422,-4.774c2.197,0.745 3.928,2.544 3.928,4.775l0,11.812c0,0.349 -0.284,0.633 -0.633,0.633l-5.965,0c-0.434,0 -0.787,0.353 -0.787,0.787c0,0.435 0.353,0.787 0.787,0.787l5.965,0c1.217,0 2.207,-0.99 2.207,-2.207l0,-5.723l10.016,0c1.031,0 1.871,-0.839 1.871,-1.87l0,-9.014c-0.001,-2.93 -2.791,-5.326 -6.24,-5.334Zm-31.293,1.574l3.133,0c0.082,0 0.163,0.002 0.245,0.005l-1.812,2.527l-1.811,-2.527c0.081,-0.003 0.163,-0.005 0.245,-0.005Zm5.63,8.555l0,4.515l-10.016,0c-0.163,0 -0.296,-0.133 -0.296,-0.296l0,-9.014c0,-1.517 1.125,-2.827 2.741,-3.42l2.528,3.528l0,0c0.22,0.306 0.586,0.489 0.979,0.489c0.394,0 0.76,-0.183 0.979,-0.489l2.529,-3.528c1.542,0.566 2.741,1.79 2.741,3.568c-1.485,1.323 -2.185,2.992 -2.185,4.647Zm10.008,-1.19l-2.826,-3.943c0.263,-0.022 0.567,-0.034 0.954,-0.04l3.925,0c0.121,0 0.242,0.004 0.362,0.009c0.037,0.002 0.074,0.005 0.111,0.007c0.083,0.005 0.167,0.011 0.25,0.019c0.017,0.001 0.033,0.003 0.05,0.005l-2.826,3.943Zm12.505,-7.365l3.133,0c0.082,0 0.163,0.002 0.245,0.005l-1.812,2.527l-1.811,-2.527c0.081,-0.003 0.163,-0.005 0.245,-0.005Zm7.519,13.07l-10.016,0l0,-4.515c0,-1.678 -0.718,-3.34 -2.185,-4.647c0,-1.769 1.189,-2.998 2.74,-3.568l2.529,3.528c0.467,0.652 1.492,0.651 1.958,0l2.529,-3.528c1.616,0.593 2.741,1.903 2.741,3.42l0,9.014l0,0c0,0.163 -0.133,0.296 -0.296,0.296Z" style="fill:#d94236;fill-rule:nonzero;"/><path d="M47.327,25.763c1.799,0.242 2.413,1.65 2.568,1.811c0.697,0.728 1.616,0.675 2.225,-0.022c0.169,-0.196 0.946,-1.827 2.995,-1.829c1.549,0 2.917,1.098 3.251,2.612c0.093,0.424 0.513,0.693 0.938,0.598c0.424,-0.093 0.692,-0.513 0.599,-0.938c-0.897,-4.062 -6.369,-5.395 -8.903,-1.596c-1.679,-2.604 -5.36,-3.029 -7.585,-0.801c-0.926,0.927 -1.435,2.159 -1.434,3.467c0.005,5.03 4.397,8.894 8.505,10.833c0.324,0.153 0.709,0.16 1.05,-0.001c2.987,-1.418 6.642,-4.208 7.943,-7.791c0.149,-0.409 -0.062,-0.86 -0.471,-1.008c-0.408,-0.148 -0.86,0.062 -1.008,0.471c-1.118,3.078 -4.316,5.532 -6.991,6.835c-3.629,-1.754 -7.45,-5.103 -7.454,-9.34c-0.002,-1.989 1.749,-3.573 3.772,-3.301Z" style="fill:#d94236;fill-rule:nonzero;"/></g></g></svg>