<?xml version="1.0" encoding="UTF-8" standalone="no"?><!DOCTYPE svg PUBLIC "-//W3C//DTD SVG 1.1//EN" "http://www.w3.org/Graphics/SVG/1.1/DTD/svg11.dtd"><svg width="100%" height="100%" viewBox="0 0 102 102" version="1.1" xmlns="http://www.w3.org/2000/svg" xmlns:xlink="http://www.w3.org/1999/xlink" xml:space="preserve" xmlns:serif="http://www.serif.com/" style="fill-rule:evenodd;clip-rule:evenodd;stroke-linejoin:round;stroke-miterlimit:1.5;"><path d="M51,1.5c6.678,0 13.049,1.325 18.864,3.727c17.974,7.424 30.636,25.131 30.636,45.773c0,27.32 -22.18,49.5 -49.5,49.5c-27.32,0 -49.5,-22.18 -49.5,-49.5c0,-27.32 22.18,-49.5 49.5,-49.5Z" style="fill:none;stroke:#d94236;stroke-width:3px;"/><clipPath id="_clip1"><rect id="_1" serif:id="1" x="22.649" y="22.649" width="56.703" height="56.703"/></clipPath><g clip-path="url(#_clip1)"><path d="M78.521,51.76l-1.253,0l-5.171,-11.939c0.516,-0.458 0.842,-1.125 0.842,-1.867c0,-1.377 -1.12,-2.497 -2.497,-2.497c-0.704,0 -1.341,0.294 -1.795,0.765c-4.007,-1.824 -8.243,-3.011 -12.613,-3.536c-0.274,-1.667 -1.329,-3.074 -2.775,-3.833l0,-1.629c0,-1.154 -0.939,-2.093 -2.093,-2.093l-0.727,0c-1.154,0 -2.093,0.939 -2.093,2.093l0,1.629c-1.452,0.762 -2.509,2.177 -2.778,3.853c-4.253,0.527 -8.38,1.683 -12.288,3.443c-0.449,-0.428 -1.055,-0.692 -1.722,-0.692c-1.377,0 -2.497,1.12 -2.497,2.497c0,0.742 0.326,1.409 0.842,1.867l-5.171,11.939l-1.253,0c-0.459,0 -0.83,0.371 -0.83,0.83l0,1.084c0,3.477 2.829,6.306 6.306,6.306l5.205,0c3.477,0 6.307,-2.829 6.307,-6.306l0,-1.084c0,-0.459 -0.372,-0.83 -0.831,-0.83l-1.253,0l-5.17,-11.939c0.295,-0.262 0.527,-0.593 0.672,-0.967l13.588,0l0,25.599l-0.507,0c-3.245,0 -6.306,2.503 -6.306,6.584c-1.047,0.149 -1.855,1.048 -1.855,2.135l0,1.537c0,1.191 0.969,2.16 2.16,2.16l7.899,0c0.459,0 0.831,-0.372 0.831,-0.831c0,-0.458 -0.372,-0.83 -0.831,-0.83l-7.899,0c-0.27,0 -0.498,-0.229 -0.498,-0.499l0,-1.537c0,-0.27 0.228,-0.498 0.498,-0.498l19.675,0c0.27,0 0.498,0.228 0.498,0.498l0,1.537c0,0.27 -0.228,0.499 -0.498,0.499l-7.899,0c-0.459,0 -0.831,0.372 -0.831,0.83c0,0.459 0.372,0.831 0.831,0.831l7.899,0c1.191,0 2.16,-0.969 2.16,-2.16l0,-1.537c0,-1.087 -0.808,-1.986 -1.854,-2.135c0,-4.046 -3.031,-6.584 -6.307,-6.584l-0.507,0l0,-9.925c0,-0.458 -0.372,-0.83 -0.831,-0.83c-0.459,0 -0.83,0.372 -0.83,0.83l0,9.925l-3.336,0l0,-25.864c1.084,0.362 2.252,0.362 3.336,0l0,12.063c0,0.459 0.371,0.831 0.83,0.831c0.459,0 0.831,-0.372 0.831,-0.831l0,-11.798l13.983,0c0.145,0.374 0.378,0.705 0.673,0.967l-5.171,11.939l-1.253,0c-0.459,0 -0.831,0.371 -0.831,0.83l0,1.084c0,3.477 2.83,6.306 6.307,6.306l5.205,0c3.477,0 6.306,-2.829 6.306,-6.306l0,-1.084c0,-0.459 -0.371,-0.83 -0.83,-0.83Zm-46.963,-14.641c0.462,0 0.852,0.382 0.832,0.87c0,0.006 0,0.011 0,0.017c-0.028,0.449 -0.405,0.783 -0.832,0.783c-0.452,0 -0.835,-0.368 -0.835,-0.835c-0.001,-0.461 0.374,-0.835 0.835,-0.835Zm7.247,16.302c0,3.081 -2.27,4.898 -4.645,4.898l-5.205,0c-2.381,0 -4.645,-1.821 -4.645,-4.898l14.495,0Zm-2.232,-1.661l-10.031,0l4.9,-11.313c0.076,0.004 0.164,0.004 0.232,0l4.899,11.313Zm-1.528,-14.567c3.368,-1.403 6.896,-2.346 10.52,-2.814c0.162,1.034 0.63,2.02 1.381,2.814l-11.901,0Zm14.963,-9.969c0,-0.238 0.193,-0.432 0.431,-0.432l0.727,0c0.238,0 0.431,0.194 0.431,0.432l0,1.083c-0.247,-0.037 -0.547,-0.059 -0.795,-0.059c-0.243,0 -0.542,0.021 -0.794,0.059l0,-1.083Zm4.631,38.89c2.382,0 4.645,1.821 4.645,4.899l-16.963,0c0,-3.082 2.271,-4.899 4.645,-4.899l7.673,0Zm-3.837,-28.921c-2.033,0 -3.684,-1.675 -3.639,-3.723c0,-0.002 0,-0.004 0,-0.006c0.036,-1.551 1.049,-2.869 2.448,-3.354c2.376,-0.827 4.833,0.967 4.833,3.441c0,2.011 -1.635,3.642 -3.642,3.642Zm3.856,0c0.752,-0.796 1.227,-1.8 1.386,-2.834c3.679,0.461 7.258,1.411 10.675,2.834l-12.061,0Zm14.952,0.796c-0.02,-0.483 0.366,-0.87 0.832,-0.87c0.461,0 0.835,0.374 0.835,0.835c0,0.467 -0.383,0.835 -0.835,0.835c-0.431,0 -0.804,-0.337 -0.832,-0.783c0,-0.006 0,-0.011 0,-0.017Zm0.716,2.458l0.001,0c0.075,0.004 0.15,0.005 0.231,0l4.9,11.313l-10.031,0l4.899,-11.313Zm2.719,17.872l-5.205,0c-2.382,0 -4.645,-1.821 -4.645,-4.898l14.495,0c0,3.081 -2.271,4.898 -4.645,4.898Z" style="fill:#d94236;fill-rule:nonzero;"/><path d="M50.802,31.095c-1.354,0 -2.456,1.101 -2.456,2.456c0,1.354 1.102,2.456 2.456,2.456c1.355,0 2.457,-1.102 2.457,-2.456c0,-1.355 -1.102,-2.456 -2.457,-2.456Zm0,3.251c-0.438,0 -0.794,-0.357 -0.794,-0.795c0,-0.438 0.356,-0.795 0.794,-0.795c0.439,0 0.795,0.357 0.795,0.795c0,0.438 -0.356,0.795 -0.795,0.795Z" style="fill:#d94236;fill-rule:nonzero;"/></g></svg>