<?xml version="1.0" encoding="UTF-8" standalone="no"?><!DOCTYPE svg PUBLIC "-//W3C//DTD SVG 1.1//EN" "http://www.w3.org/Graphics/SVG/1.1/DTD/svg11.dtd"><svg width="100%" height="100%" viewBox="0 0 554 791" version="1.1" xmlns="http://www.w3.org/2000/svg" xmlns:xlink="http://www.w3.org/1999/xlink" xml:space="preserve" xmlns:serif="http://www.serif.com/" style="fill-rule:evenodd;clip-rule:evenodd;stroke-linecap:round;stroke-linejoin:round;stroke-miterlimit:1.5;"><g><path d="M327.171,488.801c18.173,-66.867 42.393,-196.84 -10.58,-269.305c-26.474,-36.216 -141.221,-186.342 -142.606,-216.559c-1.285,-28.02 -25.712,151.314 -28.571,246.968c-2.832,94.784 149.155,236.308 180.672,239.406" style="fill:#d52132;"/><path d="M217.175,697.928c18.719,11.693 14.744,11.121 39.834,28.88c25.091,17.759 75.687,40.992 114.181,-3.908c38.494,-44.9 46.952,-56.006 61.104,-63.674c14.153,-7.668 -27.189,22.64 -92.818,4.601c-65.629,-18.039 -103.438,16.019 -122.467,34.026" style="fill:#d9d9d9;"/><path d="M1.5,681.017c82.871,-20.858 202.873,-36.981 219.078,-30.234c20.398,8.494 16.382,8.575 44.068,22.018c27.687,13.443 81.438,28.143 111.991,-22.404c30.553,-50.547 37.062,-62.877 49.755,-72.741c12.694,-9.864 -23.08,26.751 -90.803,19.618c-67.723,-7.133 -99.389,26.705 -115.338,34.8c-15.949,8.095 81.964,-23.461 101.158,-137.785c11.469,-68.313 22.712,-200.014 -37.176,-266.977c-29.929,-33.467 -158.978,-171.707 -163.346,-201.644c-4.051,-27.76 -10.616,153.085 -3.996,248.556c6.56,94.602 187.474,237.153 219.146,237.172c31.671,0.018 130.91,1.126 135.141,-38.928c4.316,-40.863 61.105,-56.571 81.221,-109.607c0,0 -142.899,-0.724 -173.428,62.281c-23.745,49.004 -41.182,79.8 -41.593,85.704c-1.623,23.325 -48.243,50.61 -123.804,106.123c-75.561,55.514 -112.31,90.137 -127.602,116.077c-15.293,25.94 -50.878,71.059 -1.826,50.581c29.624,-12.368 27.729,-66.269 5.761,-92.128c-14.408,-16.959 -79.375,-11.883 -79.375,-11.883" style="fill:none;stroke:#272727;stroke-width:3px;"/></g></svg>