<?xml version="1.0" encoding="UTF-8" standalone="no"?>
<!DOCTYPE svg PUBLIC "-//W3C//DTD SVG 1.1//EN" "http://www.w3.org/Graphics/SVG/1.1/DTD/svg11.dtd">
<svg width="100%" height="100%" viewBox="0 0 33 33" version="1.1" xmlns="http://www.w3.org/2000/svg" xmlns:xlink="http://www.w3.org/1999/xlink" xml:space="preserve" xmlns:serif="http://www.serif.com/" style="fill-rule:evenodd;clip-rule:evenodd;stroke-linecap:round;stroke-linejoin:round;stroke-miterlimit:1.5;">
    <g transform="matrix(1,0,0,1,-311.587,-4702.06)">
        <g transform="matrix(1,0,0,1,0,-2385)">
            <g transform="matrix(-0.9375,-1.04083e-16,1.04083e-16,-0.9375,1107.15,13898.6)">
                <path d="M815,7240L815,7264" style="fill:none;stroke:rgb(51,51,51);stroke-width:3.2px;"/>
            </g>
        </g>
        <g transform="matrix(1,0,0,1,0,-2385)">
            <g transform="matrix(-0.9375,-1.04083e-16,1.04083e-16,-0.9375,1107.15,13898.6)">
                <path d="M815,7264L839,7264" style="fill:none;stroke:rgb(51,51,51);stroke-width:3.2px;"/>
            </g>
        </g>
        <g transform="matrix(1,0,0,1,0,-2385)">
            <g transform="matrix(-0.9375,-1.04083e-16,1.04083e-16,-0.9375,1107.15,13898.6)">
                <path d="M815,7264L847,7232" style="fill:none;stroke:rgb(51,51,51);stroke-width:3.2px;"/>
            </g>
        </g>
    </g>
</svg>
