<?xml version="1.0" encoding="UTF-8" standalone="no"?>
<!DOCTYPE svg PUBLIC "-//W3C//DTD SVG 1.1//EN" "http://www.w3.org/Graphics/SVG/1.1/DTD/svg11.dtd">
<svg width="100%" height="100%" viewBox="0 0 90 90" version="1.1" xmlns="http://www.w3.org/2000/svg" xmlns:xlink="http://www.w3.org/1999/xlink" xml:space="preserve" xmlns:serif="http://www.serif.com/" style="fill-rule:evenodd;clip-rule:evenodd;stroke-linecap:round;stroke-linejoin:round;stroke-miterlimit:1.5;">
    <g transform="matrix(1,0,0,1,-256.631,-10205.8)">
        <g transform="matrix(1,0,0,1,-562.761,1278.91)">
            <g transform="matrix(0.909091,0,0,0.909091,-649.7,3709.64)">
                <g transform="matrix(1,0,0,1,488,-697)">
                    <circle cx="1177.5" cy="6485.5" r="49.5" style="fill:rgb(213,33,50);"/>
                </g>
                <g transform="matrix(-0.707107,-0.707107,0.707107,-0.707107,-2604.01,10803.3)">
                    <g transform="matrix(0.75,0,0,0.75,-96.25,1129)">
                        <path d="M815,7240L815,7264" style="fill:none;stroke:rgb(237,236,236);stroke-width:4.4px;"/>
                    </g>
                    <g transform="matrix(0.75,0,0,0.75,-96.25,1129)">
                        <path d="M815,7264L839,7264" style="fill:none;stroke:rgb(237,236,236);stroke-width:4.4px;"/>
                    </g>
                    <g transform="matrix(0.75,0,0,0.75,-96.25,1129)">
                        <path d="M815,7264L847,7232" style="fill:none;stroke:rgb(237,236,236);stroke-width:4.4px;"/>
                    </g>
                </g>
            </g>
        </g>
    </g>
</svg>
