<?xml version="1.0" encoding="UTF-8" standalone="no"?><!DOCTYPE svg PUBLIC "-//W3C//DTD SVG 1.1//EN" "http://www.w3.org/Graphics/SVG/1.1/DTD/svg11.dtd"><svg width="100%" height="100%" viewBox="0 0 1640 630" version="1.1" xmlns="http://www.w3.org/2000/svg" xmlns:xlink="http://www.w3.org/1999/xlink" xml:space="preserve" xmlns:serif="http://www.serif.com/" style="fill-rule:evenodd;clip-rule:evenodd;stroke-linecap:round;stroke-linejoin:round;stroke-miterlimit:1.5;"><g id="кривые"><rect x="0" y="0" width="1640" height="630" style="fill:#fff;"/><g><g><path d="M144.636,428.496l-4.128,0c-2,0 -3.596,-0.488 -4.788,-1.464c-1.192,-0.976 -1.788,-2.416 -1.788,-4.32c0,-1.952 0.592,-3.388 1.776,-4.308c1.184,-0.92 2.784,-1.38 4.8,-1.38l4.128,0l0,-2.808l2.328,0l0,2.808l4.128,0c2.016,0 3.616,0.46 4.8,1.38c1.184,0.92 1.776,2.356 1.776,4.308c0,1.968 -0.604,3.424 -1.812,4.368c-1.208,0.944 -2.796,1.416 -4.764,1.416l-4.128,0l0,3.24l-2.328,0l0,-3.24Zm0,-2.16l0,-7.152l-4.2,0c-2.736,0 -4.104,1.192 -4.104,3.576c0,1.2 0.376,2.096 1.128,2.688c0.752,0.592 1.744,0.888 2.976,0.888l4.2,0Zm6.528,-7.152l-4.2,0l0,7.152l4.2,0c1.232,0 2.224,-0.296 2.976,-0.888c0.752,-0.592 1.128,-1.488 1.128,-2.688c0,-2.384 -1.368,-3.576 -4.104,-3.576Z" style="fill:#2c2c2c;fill-rule:nonzero;"/><path d="M166.956,419.352c1.776,0 3.26,0.596 4.452,1.788c1.192,1.192 1.788,2.668 1.788,4.428c0,1.76 -0.604,3.236 -1.812,4.428c-1.208,1.192 -2.684,1.788 -4.428,1.788c-1.776,0 -3.26,-0.6 -4.452,-1.8c-1.192,-1.2 -1.788,-2.672 -1.788,-4.416c0,-1.776 0.6,-3.256 1.8,-4.44c1.2,-1.184 2.68,-1.776 4.44,-1.776Zm0,10.416c1.184,0 2.144,-0.408 2.88,-1.224c0.736,-0.816 1.104,-1.808 1.104,-2.976c0,-1.2 -0.372,-2.2 -1.116,-3c-0.744,-0.8 -1.7,-1.2 -2.868,-1.2c-1.184,0 -2.144,0.404 -2.88,1.212c-0.736,0.808 -1.104,1.804 -1.104,2.988c0,1.184 0.376,2.18 1.128,2.988c0.752,0.808 1.704,1.212 2.856,1.212Z" style="fill:#2c2c2c;fill-rule:nonzero;"/><path d="M176.82,431.496l0,-11.856l2.184,0l0,4.848l6.648,0l0,-4.848l2.184,0l0,11.856l-2.184,0l0,-5.04l-6.648,0l0,5.04l-2.184,0Z" style="fill:#2c2c2c;fill-rule:nonzero;"/><path d="M200.412,429.528l0,-7.92l-4.848,0l-0.312,2.64c-0.144,1.2 -0.32,2.296 -0.528,3.288c-0.16,0.784 -0.408,1.448 -0.744,1.992l6.432,0Zm-8.016,5.544l-1.944,0l0,-5.544l1.416,0c0.672,-0.896 1.152,-2.712 1.44,-5.448l0.504,-4.44l8.784,0l0,9.888l2.16,0l0,5.544l-1.944,0l0,-3.576l-10.416,0l0,3.576Z" style="fill:#2c2c2c;fill-rule:nonzero;"/><path d="M222.3,429.528l0,-9.888l2.184,0l0,9.888l2.16,0l0,5.544l-1.944,0l0,-3.576l-10.968,0l0,-11.856l2.184,0l0,9.888l6.384,0Z" style="fill:#2c2c2c;fill-rule:nonzero;"/><path d="M234.396,419.352c1.856,0 3.328,0.62 4.416,1.86c1.088,1.24 1.632,2.78 1.632,4.62l-9.864,0c0.032,0.784 0.272,1.516 0.72,2.196c0.448,0.68 1.024,1.156 1.728,1.428c0.464,0.208 0.992,0.312 1.584,0.312c0.704,0 1.4,-0.14 2.088,-0.42c0.688,-0.28 1.168,-0.692 1.44,-1.236l2.16,0c-0.128,0.72 -0.496,1.364 -1.104,1.932c-0.608,0.568 -1.288,1.004 -2.04,1.308c-0.688,0.288 -1.536,0.432 -2.544,0.432c-1.792,0 -3.28,-0.592 -4.464,-1.776c-1.184,-1.184 -1.776,-2.664 -1.776,-4.44c0,-1.776 0.568,-3.256 1.704,-4.44c1.136,-1.184 2.576,-1.776 4.32,-1.776Zm0,1.872c-0.928,0 -1.716,0.24 -2.364,0.72c-0.648,0.48 -1.084,1.168 -1.308,2.064l7.296,0c-0.272,-0.88 -0.72,-1.564 -1.344,-2.052c-0.624,-0.488 -1.384,-0.732 -2.28,-0.732Z" style="fill:#2c2c2c;fill-rule:nonzero;"/><path d="M244.692,426.216l0.648,-6.576l8.832,0l0,11.856l-2.184,0l0,-9.888l-4.896,0l-0.456,4.752c-0.064,0.608 -0.128,1.12 -0.192,1.536c-0.064,0.416 -0.184,0.884 -0.36,1.404c-0.176,0.52 -0.392,0.936 -0.648,1.248c-0.256,0.312 -0.608,0.576 -1.056,0.792c-0.448,0.216 -0.968,0.324 -1.56,0.324l-0.648,0l0,-1.968l0.288,0c0.624,0 1.084,-0.144 1.38,-0.432c0.296,-0.288 0.508,-0.744 0.636,-1.368c0.08,-0.48 0.152,-1.04 0.216,-1.68Z" style="fill:#2c2c2c;fill-rule:nonzero;"/><path d="M263.82,419.352c1.856,0 3.328,0.62 4.416,1.86c1.088,1.24 1.632,2.78 1.632,4.62l-9.864,0c0.032,0.784 0.272,1.516 0.72,2.196c0.448,0.68 1.024,1.156 1.728,1.428c0.464,0.208 0.992,0.312 1.584,0.312c0.704,0 1.4,-0.14 2.088,-0.42c0.688,-0.28 1.168,-0.692 1.44,-1.236l2.16,0c-0.128,0.72 -0.496,1.364 -1.104,1.932c-0.608,0.568 -1.288,1.004 -2.04,1.308c-0.688,0.288 -1.536,0.432 -2.544,0.432c-1.792,0 -3.28,-0.592 -4.464,-1.776c-1.184,-1.184 -1.776,-2.664 -1.776,-4.44c0,-1.776 0.568,-3.256 1.704,-4.44c1.136,-1.184 2.576,-1.776 4.32,-1.776Zm0,1.872c-0.928,0 -1.716,0.24 -2.364,0.72c-0.648,0.48 -1.084,1.168 -1.308,2.064l7.296,0c-0.272,-0.88 -0.72,-1.564 -1.344,-2.052c-0.624,-0.488 -1.384,-0.732 -2.28,-0.732Z" style="fill:#2c2c2c;fill-rule:nonzero;"/><path d="M273.372,431.496l0,-11.856l6.24,0c1.168,0 2.14,0.248 2.916,0.744c0.776,0.496 1.164,1.288 1.164,2.376c0,0.608 -0.152,1.152 -0.456,1.632c-0.304,0.48 -0.744,0.808 -1.32,0.984c0.544,0.144 1.048,0.424 1.512,0.84c0.432,0.432 0.648,1.024 0.648,1.776c0,1.168 -0.436,2.044 -1.308,2.628c-0.872,0.584 -1.916,0.876 -3.132,0.876l-6.264,0Zm6.24,-9.936l-4.056,0l0,2.928l4.056,0c1.28,0 1.92,-0.512 1.92,-1.536c0,-0.496 -0.188,-0.852 -0.564,-1.068c-0.376,-0.216 -0.828,-0.324 -1.356,-0.324Zm0.072,4.848l-4.128,0l0,3.168l4.104,0c1.424,0 2.136,-0.56 2.136,-1.68c0,-0.528 -0.208,-0.908 -0.624,-1.14c-0.416,-0.232 -0.912,-0.348 -1.488,-0.348Z" style="fill:#2c2c2c;fill-rule:nonzero;"/><path d="M293.244,419.352c1.776,0 3.26,0.596 4.452,1.788c1.192,1.192 1.788,2.668 1.788,4.428c0,1.76 -0.604,3.236 -1.812,4.428c-1.208,1.192 -2.684,1.788 -4.428,1.788c-1.776,0 -3.26,-0.6 -4.452,-1.8c-1.192,-1.2 -1.788,-2.672 -1.788,-4.416c0,-1.776 0.6,-3.256 1.8,-4.44c1.2,-1.184 2.68,-1.776 4.44,-1.776Zm0,10.416c1.184,0 2.144,-0.408 2.88,-1.224c0.736,-0.816 1.104,-1.808 1.104,-2.976c0,-1.2 -0.372,-2.2 -1.116,-3c-0.744,-0.8 -1.7,-1.2 -2.868,-1.2c-1.184,0 -2.144,0.404 -2.88,1.212c-0.736,0.808 -1.104,1.804 -1.104,2.988c0,1.184 0.376,2.18 1.128,2.988c0.752,0.808 1.704,1.212 2.856,1.212Z" style="fill:#2c2c2c;fill-rule:nonzero;"/><path d="M303.06,431.496l0,-11.856l8.832,0l0,1.968l-6.648,0l0,9.888l-2.184,0Z" style="fill:#2c2c2c;fill-rule:nonzero;"/><path d="M319.74,419.352c1.776,0 3.26,0.596 4.452,1.788c1.192,1.192 1.788,2.668 1.788,4.428c0,1.76 -0.604,3.236 -1.812,4.428c-1.208,1.192 -2.684,1.788 -4.428,1.788c-1.776,0 -3.26,-0.6 -4.452,-1.8c-1.192,-1.2 -1.788,-2.672 -1.788,-4.416c0,-1.776 0.6,-3.256 1.8,-4.44c1.2,-1.184 2.68,-1.776 4.44,-1.776Zm0,10.416c1.184,0 2.144,-0.408 2.88,-1.224c0.736,-0.816 1.104,-1.808 1.104,-2.976c0,-1.2 -0.372,-2.2 -1.116,-3c-0.744,-0.8 -1.7,-1.2 -2.868,-1.2c-1.184,0 -2.144,0.404 -2.88,1.212c-0.736,0.808 -1.104,1.804 -1.104,2.988c0,1.184 0.376,2.18 1.128,2.988c0.752,0.808 1.704,1.212 2.856,1.212Z" style="fill:#2c2c2c;fill-rule:nonzero;"/><path d="M172.044,467.496l0,-11.856l2.112,0l0,5.136l6.24,-5.136l3.12,0l-7.008,5.688l7.32,6.168l-3.096,0l-6.576,-5.424l0,5.424l-2.112,0Z" style="fill:#2c2c2c;fill-rule:nonzero;"/><path d="M195.156,467.496l0,-2.04c-0.384,0.752 -0.956,1.328 -1.716,1.728c-0.76,0.4 -1.588,0.6 -2.484,0.6c-1.744,0 -3.144,-0.6 -4.2,-1.8c-1.056,-1.2 -1.584,-2.672 -1.584,-4.416c0,-1.76 0.536,-3.236 1.608,-4.428c1.072,-1.192 2.464,-1.788 4.176,-1.788c1.648,0 2.912,0.544 3.792,1.632c0.224,0.32 0.36,0.528 0.408,0.624l0,-1.968l2.184,0l0,11.856l-2.184,0Zm0.048,-5.928c0,-1.2 -0.352,-2.2 -1.056,-3c-0.704,-0.8 -1.632,-1.2 -2.784,-1.2c-1.184,0 -2.136,0.404 -2.856,1.212c-0.72,0.808 -1.08,1.804 -1.08,2.988c0,1.264 0.36,2.256 1.08,2.976c0.72,0.816 1.672,1.224 2.856,1.224c1.152,0 2.08,-0.408 2.784,-1.224c0.704,-0.816 1.056,-1.808 1.056,-2.976Z" style="fill:#2c2c2c;fill-rule:nonzero;"/><path d="M201.852,467.496l0,-11.856l10.776,0l0,11.856l-2.184,0l0,-9.888l-6.408,0l0,9.888l-2.184,0Z" style="fill:#2c2c2c;fill-rule:nonzero;"/><path d="M217.14,467.496l0,-11.856l2.184,0l0,8.928l6.888,-8.928l2.184,0l0,11.856l-2.184,0l0,-9l-6.888,9l-2.184,0Z" style="fill:#2c2c2c;fill-rule:nonzero;"/><path d="M236.172,467.496l0,-9.888l-4.8,0l0,-1.968l11.784,0l0,1.968l-4.8,0l0,9.888l-2.184,0Z" style="fill:#2c2c2c;fill-rule:nonzero;"/><path d="M254.772,467.496l0,-2.04c-0.384,0.752 -0.956,1.328 -1.716,1.728c-0.76,0.4 -1.588,0.6 -2.484,0.6c-1.744,0 -3.144,-0.6 -4.2,-1.8c-1.056,-1.2 -1.584,-2.672 -1.584,-4.416c0,-1.76 0.536,-3.236 1.608,-4.428c1.072,-1.192 2.464,-1.788 4.176,-1.788c1.648,0 2.912,0.544 3.792,1.632c0.224,0.32 0.36,0.528 0.408,0.624l0,-1.968l2.184,0l0,11.856l-2.184,0Zm0.048,-5.928c0,-1.2 -0.352,-2.2 -1.056,-3c-0.704,-0.8 -1.632,-1.2 -2.784,-1.2c-1.184,0 -2.136,0.404 -2.856,1.212c-0.72,0.808 -1.08,1.804 -1.08,2.988c0,1.264 0.36,2.256 1.08,2.976c0.72,0.816 1.672,1.224 2.856,1.224c1.152,0 2.08,-0.408 2.784,-1.224c0.704,-0.816 1.056,-1.808 1.056,-2.976Z" style="fill:#2c2c2c;fill-rule:nonzero;"/><path d="M262.452,462.216l0.648,-6.576l8.832,0l0,11.856l-2.184,0l0,-9.888l-4.896,0l-0.456,4.752c-0.064,0.608 -0.128,1.12 -0.192,1.536c-0.064,0.416 -0.184,0.884 -0.36,1.404c-0.176,0.52 -0.392,0.936 -0.648,1.248c-0.256,0.312 -0.608,0.576 -1.056,0.792c-0.448,0.216 -0.968,0.324 -1.56,0.324l-0.648,0l0,-1.968l0.288,0c0.624,0 1.084,-0.144 1.38,-0.432c0.296,-0.288 0.508,-0.744 0.636,-1.368c0.08,-0.48 0.152,-1.04 0.216,-1.68Z" style="fill:#2c2c2c;fill-rule:nonzero;"/><path d="M285.564,467.496l0,-2.04c-0.384,0.752 -0.956,1.328 -1.716,1.728c-0.76,0.4 -1.588,0.6 -2.484,0.6c-1.744,0 -3.144,-0.6 -4.2,-1.8c-1.056,-1.2 -1.584,-2.672 -1.584,-4.416c0,-1.76 0.536,-3.236 1.608,-4.428c1.072,-1.192 2.464,-1.788 4.176,-1.788c1.648,0 2.912,0.544 3.792,1.632c0.224,0.32 0.36,0.528 0.408,0.624l0,-1.968l2.184,0l0,11.856l-2.184,0Zm0.048,-5.928c0,-1.2 -0.352,-2.2 -1.056,-3c-0.704,-0.8 -1.632,-1.2 -2.784,-1.2c-1.184,0 -2.136,0.404 -2.856,1.212c-0.72,0.808 -1.08,1.804 -1.08,2.988c0,1.264 0.36,2.256 1.08,2.976c0.72,0.816 1.672,1.224 2.856,1.224c1.152,0 2.08,-0.408 2.784,-1.224c0.704,-0.816 1.056,-1.808 1.056,-2.976Z" style="fill:#2c2c2c;fill-rule:nonzero;"/></g><circle cx="229.92" cy="312.654" r="61.197" style="fill:#d94236;"/><path d="M238.045,286.209l0,52.89l-7.195,0l0,-44.507l-13.055,7.566l0,-6.825l14.909,-9.124l5.341,0Z" style="fill:#fff;fill-rule:nonzero;"/><circle cx="523.049" cy="312.654" r="61.197" style="fill:#d94236;"/><path d="M541.557,332.905l0,6.528l-37.015,0l0,-4.451l17.803,-17.581c3.066,-3.066 5.291,-5.612 6.676,-7.64c1.533,-2.473 2.299,-5.019 2.299,-7.64c0,-3.017 -0.877,-5.391 -2.633,-7.121c-1.756,-1.731 -4.142,-2.597 -7.158,-2.597c-3.017,0 -5.403,0.952 -7.158,2.856c-1.756,1.904 -2.634,4.389 -2.634,7.455l0,3.412l-7.047,0l0,-3.486c0,-5.094 1.558,-9.161 4.674,-12.202c3.115,-3.042 7.17,-4.562 12.165,-4.562c4.994,0 9.074,1.483 12.239,4.45c3.165,2.967 4.748,6.899 4.748,11.795c0,3.808 -1.002,7.207 -3.005,10.199c-2.002,2.992 -4.834,6.219 -8.493,9.681l-11.127,10.904l25.666,0Z" style="fill:#fff;fill-rule:nonzero;"/><circle cx="813.851" cy="312.654" r="61.197" style="fill:#d94236;"/><path d="M832.581,324.597c0,5.093 -1.818,8.914 -5.452,11.46c-3.635,2.547 -8.073,3.821 -13.315,3.821c-4.946,0 -9.198,-1.299 -12.759,-3.895c-3.561,-2.596 -5.539,-6.243 -5.934,-10.941l7.195,0c0.544,2.72 1.879,4.784 4.006,6.194c2.126,1.409 4.623,2.114 7.492,2.114c3.264,0 5.996,-0.767 8.196,-2.3c2.201,-1.533 3.301,-3.832 3.301,-6.898c0,-3.165 -0.976,-5.477 -2.93,-6.936c-1.953,-1.459 -4.562,-2.188 -7.826,-2.188l-9.272,0l0,-6.528l9.495,0c2.769,0 4.958,-0.705 6.565,-2.114c1.607,-1.409 2.411,-3.474 2.411,-6.194c0,-2.769 -0.965,-4.846 -2.893,-6.231c-1.929,-1.385 -4.327,-2.077 -7.196,-2.077c-2.72,0 -4.957,0.668 -6.713,2.003c-1.755,1.335 -2.856,3.313 -3.301,5.934l-7.121,0c0.148,-2.967 1.1,-5.613 2.856,-7.937c1.756,-2.324 4.018,-4.055 6.787,-5.192c2.127,-0.841 4.599,-1.261 7.418,-1.261c4.945,0 9.062,1.236 12.351,3.708c3.288,2.473 4.933,6.058 4.933,10.756c0,5.341 -2.448,9.149 -7.344,11.424c0.989,0.297 2.028,0.742 3.116,1.335c3.956,2.522 5.934,6.503 5.934,11.943Z" style="fill:#fff;fill-rule:nonzero;"/><circle cx="1105.35" cy="312.654" r="61.197" style="fill:#d94236;"/><path d="M1127.78,322.742l-11.201,0l0,16.245l-6.973,0l0,-16.245l-26.704,0l0,-3.931l25.814,-32.49l7.863,0l0,30.19l11.201,0l0,6.231Zm-35.384,-6.231l17.21,0l0,-21.882l-17.21,21.882Z" style="fill:#fff;fill-rule:nonzero;"/><circle cx="1402.71" cy="312.654" r="61.197" style="fill:#d94236;"/><path d="M1386.84,315.25l0,-29.374l32.341,0l0,6.527l-25.517,0l0,15.281c2.572,-2.571 6.132,-3.857 10.682,-3.857c5.093,0 9.173,1.632 12.239,4.896c3.066,3.263 4.599,7.417 4.599,12.462l0,0.816c0,5.291 -1.755,9.519 -5.266,12.684c-3.511,3.165 -7.913,4.748 -13.204,4.748c-5.044,0 -9.297,-1.373 -12.759,-4.117c-3.462,-2.745 -5.365,-6.516 -5.712,-11.313l7.047,0c0.149,0.891 0.445,1.855 0.89,2.893c0.693,1.978 2.04,3.474 4.043,4.488c2.003,1.014 4.167,1.521 6.491,1.521c3.264,0 5.971,-1.014 8.122,-3.042c2.152,-2.027 3.227,-4.648 3.227,-7.862l0,-0.742c0,-3.412 -1.038,-6.083 -3.115,-8.012c-2.077,-1.928 -4.822,-2.892 -8.234,-2.892c-4.154,0 -7.467,1.631 -9.94,4.895l-5.934,0Z" style="fill:#fff;fill-rule:nonzero;"/><g><path d="M439.313,431.676l-2.4,0l3.408,-5.304l-7.752,-11.736l2.688,0l6.384,9.696l6.24,-9.696l2.4,0l-10.968,17.04Z" style="fill:#2c2c2c;fill-rule:nonzero;"/><path d="M452.417,431.676l0,-11.856l10.776,0l0,11.856l-2.184,0l0,-9.888l-6.408,0l0,9.888l-2.184,0Z" style="fill:#2c2c2c;fill-rule:nonzero;"/><path d="M469.865,429.756l0,7.296l-2.16,0l0,-17.232l2.16,0l0,2.04c0.368,-0.736 0.96,-1.308 1.776,-1.716c0.816,-0.408 1.664,-0.612 2.544,-0.612c1.776,0 3.192,0.592 4.248,1.776c1.056,1.184 1.584,2.664 1.584,4.44c0,1.792 -0.536,3.276 -1.608,4.452c-1.072,1.176 -2.48,1.764 -4.224,1.764c-0.72,0 -1.444,-0.144 -2.172,-0.432c-0.728,-0.288 -1.3,-0.688 -1.716,-1.2c-0.224,-0.24 -0.368,-0.432 -0.432,-0.576Zm-0.048,-4.008c0,1.248 0.368,2.24 1.104,2.976c0.72,0.816 1.68,1.224 2.88,1.224c1.184,0 2.144,-0.404 2.88,-1.212c0.736,-0.808 1.104,-1.804 1.104,-2.988c0,-1.168 -0.36,-2.168 -1.08,-3c-0.8,-0.8 -1.768,-1.2 -2.904,-1.2c-1.2,0 -2.164,0.4 -2.892,1.2c-0.728,0.8 -1.092,1.8 -1.092,3Z" style="fill:#2c2c2c;fill-rule:nonzero;"/><path d="M492.785,431.676l0,-2.04c-0.384,0.752 -0.956,1.328 -1.716,1.728c-0.76,0.4 -1.588,0.6 -2.484,0.6c-1.744,0 -3.144,-0.6 -4.2,-1.8c-1.056,-1.2 -1.584,-2.672 -1.584,-4.416c0,-1.76 0.536,-3.236 1.608,-4.428c1.072,-1.192 2.464,-1.788 4.176,-1.788c1.648,0 2.912,0.544 3.792,1.632c0.224,0.32 0.36,0.528 0.408,0.624l0,-1.968l2.184,0l0,11.856l-2.184,0Zm0.048,-5.928c0,-1.2 -0.352,-2.2 -1.056,-3c-0.704,-0.8 -1.632,-1.2 -2.784,-1.2c-1.184,0 -2.136,0.404 -2.856,1.212c-0.72,0.808 -1.08,1.804 -1.08,2.988c0,1.264 0.36,2.256 1.08,2.976c0.72,0.816 1.672,1.224 2.856,1.224c1.152,0 2.08,-0.408 2.784,-1.224c0.704,-0.816 1.056,-1.808 1.056,-2.976Z" style="fill:#2c2c2c;fill-rule:nonzero;"/><path d="M499.481,431.676l0,-11.856l6.24,0c1.168,0 2.14,0.248 2.916,0.744c0.776,0.496 1.164,1.288 1.164,2.376c0,0.608 -0.152,1.152 -0.456,1.632c-0.304,0.48 -0.744,0.808 -1.32,0.984c0.544,0.144 1.048,0.424 1.512,0.84c0.432,0.432 0.648,1.024 0.648,1.776c0,1.168 -0.436,2.044 -1.308,2.628c-0.872,0.584 -1.916,0.876 -3.132,0.876l-6.264,0Zm6.24,-9.936l-4.056,0l0,2.928l4.056,0c1.28,0 1.92,-0.512 1.92,-1.536c0,-0.496 -0.188,-0.852 -0.564,-1.068c-0.376,-0.216 -0.828,-0.324 -1.356,-0.324Zm0.072,4.848l-4.128,0l0,3.168l4.104,0c1.424,0 2.136,-0.56 2.136,-1.68c0,-0.528 -0.208,-0.908 -0.624,-1.14c-0.416,-0.232 -0.912,-0.348 -1.488,-0.348Z" style="fill:#2c2c2c;fill-rule:nonzero;"/><path d="M514.865,426.396l0.648,-6.576l8.832,0l0,11.856l-2.184,0l0,-9.888l-4.896,0l-0.456,4.752c-0.064,0.608 -0.128,1.12 -0.192,1.536c-0.064,0.416 -0.184,0.884 -0.36,1.404c-0.176,0.52 -0.392,0.936 -0.648,1.248c-0.256,0.312 -0.608,0.576 -1.056,0.792c-0.448,0.216 -0.968,0.324 -1.56,0.324l-0.648,0l0,-1.968l0.288,0c0.624,0 1.084,-0.144 1.38,-0.432c0.296,-0.288 0.508,-0.744 0.636,-1.368c0.08,-0.48 0.152,-1.04 0.216,-1.68Z" style="fill:#2c2c2c;fill-rule:nonzero;"/><path d="M538.913,431.676l-2.184,0l0,-4.296l-3.528,0l-2.88,4.296l-2.52,0l3.144,-4.584c-0.896,-0.208 -1.584,-0.624 -2.064,-1.248c-0.48,-0.624 -0.72,-1.4 -0.72,-2.328c0,-1.184 0.404,-2.096 1.212,-2.736c0.808,-0.64 1.812,-0.96 3.012,-0.96l6.528,0l0,11.856Zm-6.264,-6.264l4.08,0l0,-3.624l-4.08,0c-1.456,0 -2.184,0.576 -2.184,1.728c0,0.64 0.2,1.116 0.6,1.428c0.4,0.312 0.928,0.468 1.584,0.468Z" style="fill:#2c2c2c;fill-rule:nonzero;"/><path d="M543.377,431.676l0,-11.856l2.184,0l0,4.848l2.256,0c0.256,-1.536 0.94,-2.776 2.052,-3.72c1.112,-0.944 2.436,-1.416 3.972,-1.416c1.76,0 3.22,0.6 4.38,1.8c1.16,1.2 1.74,2.672 1.74,4.416c0,1.76 -0.584,3.236 -1.752,4.428c-1.168,1.192 -2.624,1.788 -4.368,1.788c-1.552,0 -2.904,-0.504 -4.056,-1.512c-1.152,-1.008 -1.824,-2.28 -2.016,-3.816l-2.208,0l0,5.04l-2.184,0Zm10.464,-1.728c1.168,0 2.104,-0.408 2.808,-1.224c0.704,-0.816 1.056,-1.808 1.056,-2.976c0,-1.2 -0.352,-2.2 -1.056,-3c-0.8,-0.8 -1.736,-1.2 -2.808,-1.2c-1.152,0 -2.084,0.412 -2.796,1.236c-0.712,0.824 -1.068,1.812 -1.068,2.964c0,1.168 0.36,2.16 1.08,2.976c0.72,0.816 1.648,1.224 2.784,1.224Z" style="fill:#2c2c2c;fill-rule:nonzero;"/><path d="M563.585,419.82l2.184,0l0,9.888l5.544,0l0,-9.888l2.184,0l0,9.888l5.544,0l0,-9.888l2.184,0l0,9.888l2.16,0l0,5.544l-1.944,0l0,-3.576l-17.856,0l0,-11.856Z" style="fill:#2c2c2c;fill-rule:nonzero;"/><path d="M595.121,431.676l0,-2.04c-0.384,0.752 -0.956,1.328 -1.716,1.728c-0.76,0.4 -1.588,0.6 -2.484,0.6c-1.744,0 -3.144,-0.6 -4.2,-1.8c-1.056,-1.2 -1.584,-2.672 -1.584,-4.416c0,-1.76 0.536,-3.236 1.608,-4.428c1.072,-1.192 2.464,-1.788 4.176,-1.788c1.648,0 2.912,0.544 3.792,1.632c0.224,0.32 0.36,0.528 0.408,0.624l0,-1.968l2.184,0l0,11.856l-2.184,0Zm0.048,-5.928c0,-1.2 -0.352,-2.2 -1.056,-3c-0.704,-0.8 -1.632,-1.2 -2.784,-1.2c-1.184,0 -2.136,0.404 -2.856,1.212c-0.72,0.808 -1.08,1.804 -1.08,2.988c0,1.264 0.36,2.256 1.08,2.976c0.72,0.816 1.672,1.224 2.856,1.224c1.152,0 2.08,-0.408 2.784,-1.224c0.704,-0.816 1.056,-1.808 1.056,-2.976Z" style="fill:#2c2c2c;fill-rule:nonzero;"/><path d="M611.873,431.676l-2.184,0l0,-4.296l-3.528,0l-2.88,4.296l-2.52,0l3.144,-4.584c-0.896,-0.208 -1.584,-0.624 -2.064,-1.248c-0.48,-0.624 -0.72,-1.4 -0.72,-2.328c0,-1.184 0.404,-2.096 1.212,-2.736c0.808,-0.64 1.812,-0.96 3.012,-0.96l6.528,0l0,11.856Zm-6.264,-6.264l4.08,0l0,-3.624l-4.08,0c-1.456,0 -2.184,0.576 -2.184,1.728c0,0.64 0.2,1.116 0.6,1.428c0.4,0.312 0.928,0.468 1.584,0.468Z" style="fill:#2c2c2c;fill-rule:nonzero;"/><path d="M462.353,467.676l0,-11.856l2.112,0l0,5.136l6.24,-5.136l3.12,0l-7.008,5.688l7.32,6.168l-3.096,0l-6.576,-5.424l0,5.424l-2.112,0Z" style="fill:#2c2c2c;fill-rule:nonzero;"/><path d="M481.697,455.532c1.776,0 3.26,0.596 4.452,1.788c1.192,1.192 1.788,2.668 1.788,4.428c0,1.76 -0.604,3.236 -1.812,4.428c-1.208,1.192 -2.684,1.788 -4.428,1.788c-1.776,0 -3.26,-0.6 -4.452,-1.8c-1.192,-1.2 -1.788,-2.672 -1.788,-4.416c0,-1.776 0.6,-3.256 1.8,-4.44c1.2,-1.184 2.68,-1.776 4.44,-1.776Zm0,10.416c1.184,0 2.144,-0.408 2.88,-1.224c0.736,-0.816 1.104,-1.808 1.104,-2.976c0,-1.2 -0.372,-2.2 -1.116,-3c-0.744,-0.8 -1.7,-1.2 -2.868,-1.2c-1.184,0 -2.144,0.404 -2.88,1.212c-0.736,0.808 -1.104,1.804 -1.104,2.988c0,1.184 0.376,2.18 1.128,2.988c0.752,0.808 1.704,1.212 2.856,1.212Z" style="fill:#2c2c2c;fill-rule:nonzero;"/><path d="M491.561,467.676l0,-11.856l2.904,0l4.728,9.336l4.728,-9.336l2.808,0l0,11.856l-2.136,0l0,-9.312l-4.752,9.384l-1.512,0l-4.704,-9.288l0,9.216l-2.064,0Z" style="fill:#2c2c2c;fill-rule:nonzero;"/><path d="M511.241,467.676l0,-11.856l10.776,0l0,11.856l-2.184,0l0,-9.888l-6.408,0l0,9.888l-2.184,0Z" style="fill:#2c2c2c;fill-rule:nonzero;"/><path d="M535.649,467.676l0,-2.04c-0.384,0.752 -0.956,1.328 -1.716,1.728c-0.76,0.4 -1.588,0.6 -2.484,0.6c-1.744,0 -3.144,-0.6 -4.2,-1.8c-1.056,-1.2 -1.584,-2.672 -1.584,-4.416c0,-1.76 0.536,-3.236 1.608,-4.428c1.072,-1.192 2.464,-1.788 4.176,-1.788c1.648,0 2.912,0.544 3.792,1.632c0.224,0.32 0.36,0.528 0.408,0.624l0,-1.968l2.184,0l0,11.856l-2.184,0Zm0.048,-5.928c0,-1.2 -0.352,-2.2 -1.056,-3c-0.704,-0.8 -1.632,-1.2 -2.784,-1.2c-1.184,0 -2.136,0.404 -2.856,1.212c-0.72,0.808 -1.08,1.804 -1.08,2.988c0,1.264 0.36,2.256 1.08,2.976c0.72,0.816 1.672,1.224 2.856,1.224c1.152,0 2.08,-0.408 2.784,-1.224c0.704,-0.816 1.056,-1.808 1.056,-2.976Z" style="fill:#2c2c2c;fill-rule:nonzero;"/><path d="M542.345,467.676l0,-11.856l2.184,0l0,4.848l6.648,0l0,-4.848l2.184,0l0,11.856l-2.184,0l0,-5.04l-6.648,0l0,5.04l-2.184,0Z" style="fill:#2c2c2c;fill-rule:nonzero;"/><path d="M557.873,467.676l0,-11.856l2.184,0l0,8.928l6.888,-8.928l2.184,0l0,11.856l-2.184,0l0,-9l-6.888,9l-2.184,0Z" style="fill:#2c2c2c;fill-rule:nonzero;"/><path d="M583.697,467.676l-2.184,0l0,-4.296l-3.528,0l-2.88,4.296l-2.52,0l3.144,-4.584c-0.896,-0.208 -1.584,-0.624 -2.064,-1.248c-0.48,-0.624 -0.72,-1.4 -0.72,-2.328c0,-1.184 0.404,-2.096 1.212,-2.736c0.808,-0.64 1.812,-0.96 3.012,-0.96l6.528,0l0,11.856Zm-6.264,-6.264l4.08,0l0,-3.624l-4.08,0c-1.456,0 -2.184,0.576 -2.184,1.728c0,0.64 0.2,1.116 0.6,1.428c0.4,0.312 0.928,0.468 1.584,0.468Z" style="fill:#2c2c2c;fill-rule:nonzero;"/></g><path d="M323.695,312.654l108,0" style="fill:none;stroke:#d1d1d1;stroke-width:4px;stroke-dasharray:12,20,0,0;"/><path d="M614.623,312.654l108,0" style="fill:none;stroke:#d1d1d1;stroke-width:4px;stroke-dasharray:12,20,0,0;"/><path d="M905.603,312.654l108,0" style="fill:none;stroke:#d1d1d1;stroke-width:4px;stroke-dasharray:12,20,0,0;"/><path d="M1196.58,312.654l108,0" style="fill:none;stroke:#d1d1d1;stroke-width:4px;stroke-dasharray:12,20,0,0;"/><text x="781.715px" y="468.379px" style="font-family:'StyreneAWeb-Regular', 'Styrene A Web';font-size:24px;fill:#2c2c2c;">Банк</text><g><path d="M735.385,432.496l0,-17.04l2.328,0l0,13.92l10.68,-13.92l2.328,0l0,17.04l-2.328,0l0,-13.968l-10.68,13.968l-2.328,0Z" style="fill:#2c2c2c;fill-rule:nonzero;"/><path d="M755.617,432.496l0,-11.856l2.184,0l0,4.848l6.648,0l0,-4.848l2.184,0l0,11.856l-2.184,0l0,-5.04l-6.648,0l0,5.04l-2.184,0Z" style="fill:#2c2c2c;fill-rule:nonzero;"/><path d="M771.145,432.496l0,-11.856l6.24,0c1.168,0 2.14,0.248 2.916,0.744c0.776,0.496 1.164,1.288 1.164,2.376c0,0.608 -0.152,1.152 -0.456,1.632c-0.304,0.48 -0.744,0.808 -1.32,0.984c0.544,0.144 1.048,0.424 1.512,0.84c0.432,0.432 0.648,1.024 0.648,1.776c0,1.168 -0.436,2.044 -1.308,2.628c-0.872,0.584 -1.916,0.876 -3.132,0.876l-6.264,0Zm6.24,-9.936l-4.056,0l0,2.928l4.056,0c1.28,0 1.92,-0.512 1.92,-1.536c0,-0.496 -0.188,-0.852 -0.564,-1.068c-0.376,-0.216 -0.828,-0.324 -1.356,-0.324Zm0.072,4.848l-4.128,0l0,3.168l4.104,0c1.424,0 2.136,-0.56 2.136,-1.68c0,-0.528 -0.208,-0.908 -0.624,-1.14c-0.416,-0.232 -0.912,-0.348 -1.488,-0.348Z" style="fill:#2c2c2c;fill-rule:nonzero;"/><path d="M790.801,420.352c1.856,0 3.328,0.62 4.416,1.86c1.088,1.24 1.632,2.78 1.632,4.62l-9.864,0c0.032,0.784 0.272,1.516 0.72,2.196c0.448,0.68 1.024,1.156 1.728,1.428c0.464,0.208 0.992,0.312 1.584,0.312c0.704,0 1.4,-0.14 2.088,-0.42c0.688,-0.28 1.168,-0.692 1.44,-1.236l2.16,0c-0.128,0.72 -0.496,1.364 -1.104,1.932c-0.608,0.568 -1.288,1.004 -2.04,1.308c-0.688,0.288 -1.536,0.432 -2.544,0.432c-1.792,0 -3.28,-0.592 -4.464,-1.776c-1.184,-1.184 -1.776,-2.664 -1.776,-4.44c0,-1.776 0.568,-3.256 1.704,-4.44c1.136,-1.184 2.576,-1.776 4.32,-1.776Zm0,1.872c-0.928,0 -1.716,0.24 -2.364,0.72c-0.648,0.48 -1.084,1.168 -1.308,2.064l7.296,0c-0.272,-0.88 -0.72,-1.564 -1.344,-2.052c-0.624,-0.488 -1.384,-0.732 -2.28,-0.732Z" style="fill:#2c2c2c;fill-rule:nonzero;"/><path d="M811.129,424.336l-2.208,0c-0.656,-1.312 -1.808,-1.968 -3.456,-1.968c-1.12,0 -2.024,0.416 -2.712,1.248c-0.688,0.832 -1.032,1.816 -1.032,2.952c0,1.136 0.352,2.12 1.056,2.952c0.704,0.832 1.608,1.248 2.712,1.248c1.648,0 2.808,-0.656 3.48,-1.968l2.16,0c-0.08,0.704 -0.504,1.472 -1.272,2.304c-1.072,1.12 -2.528,1.68 -4.368,1.68c-1.712,0 -3.144,-0.608 -4.296,-1.824c-1.152,-1.216 -1.728,-2.68 -1.728,-4.392c0,-1.728 0.576,-3.196 1.728,-4.404c1.152,-1.208 2.576,-1.812 4.272,-1.812c1.36,0 2.576,0.348 3.648,1.044c1.072,0.696 1.744,1.676 2.016,2.94Z" style="fill:#2c2c2c;fill-rule:nonzero;"/><path d="M817.633,432.496l0,-9.888l-4.8,0l0,-1.968l11.784,0l0,1.968l-4.8,0l0,9.888l-2.184,0Z" style="fill:#2c2c2c;fill-rule:nonzero;"/><path d="M827.593,432.496l0,-11.856l2.184,0l0,8.928l6.888,-8.928l2.184,0l0,11.856l-2.184,0l0,-9l-6.888,9l-2.184,0Z" style="fill:#2c2c2c;fill-rule:nonzero;"/><path d="M851.929,430.528l0,-9.888l2.184,0l0,9.888l2.16,0l0,5.544l-1.944,0l0,-3.576l-10.968,0l0,-11.856l2.184,0l0,9.888l6.384,0Z" style="fill:#2c2c2c;fill-rule:nonzero;"/><path d="M859.009,432.496l0,-11.856l2.184,0l0,8.928l6.888,-8.928l2.184,0l0,11.856l-2.184,0l0,-9l-6.888,9l-2.184,0Z" style="fill:#2c2c2c;fill-rule:nonzero;"/><path d="M874.777,432.496l0,-11.856l2.184,0l0,8.928l6.888,-8.928l2.184,0l0,11.856l-2.184,0l0,-9l-6.888,9l-2.184,0Z" style="fill:#2c2c2c;fill-rule:nonzero;"/><path d="M888.289,432.789l4.98,-17.766l1.688,0l-4.969,17.766l-1.699,0Z" style="fill:#2c2c2c;fill-rule:nonzero;"/></g><g><path d="M1041.5,431.964c-2.432,0 -4.444,-0.86 -6.036,-2.58c-1.592,-1.72 -2.388,-3.796 -2.388,-6.228c0,-2.48 0.8,-4.568 2.4,-6.264c1.6,-1.696 3.608,-2.544 6.024,-2.544c1.808,0 3.448,0.464 4.92,1.392c1.472,0.928 2.448,2.224 2.928,3.888l-2.424,0c-0.448,-0.976 -1.18,-1.736 -2.196,-2.28c-1.016,-0.544 -2.092,-0.816 -3.228,-0.816c-1.808,0 -3.26,0.648 -4.356,1.944c-1.096,1.296 -1.644,2.856 -1.644,4.68c0,1.84 0.552,3.404 1.656,4.692c1.104,1.288 2.552,1.932 4.344,1.932c2.512,0 4.336,-1.04 5.472,-3.12l2.376,0c-0.272,1.072 -0.816,2.02 -1.632,2.844c-0.816,0.824 -1.768,1.452 -2.856,1.884c-0.944,0.384 -2.064,0.576 -3.36,0.576Z" style="fill:#2c2c2c;fill-rule:nonzero;"/><path d="M1058.45,419.532c1.776,0 3.26,0.596 4.452,1.788c1.192,1.192 1.788,2.668 1.788,4.428c0,1.76 -0.604,3.236 -1.812,4.428c-1.208,1.192 -2.684,1.788 -4.428,1.788c-1.776,0 -3.26,-0.6 -4.452,-1.8c-1.192,-1.2 -1.788,-2.672 -1.788,-4.416c0,-1.776 0.6,-3.256 1.8,-4.44c1.2,-1.184 2.68,-1.776 4.44,-1.776Zm0,10.416c1.184,0 2.144,-0.408 2.88,-1.224c0.736,-0.816 1.104,-1.808 1.104,-2.976c0,-1.2 -0.372,-2.2 -1.116,-3c-0.744,-0.8 -1.7,-1.2 -2.868,-1.2c-1.184,0 -2.144,0.404 -2.88,1.212c-0.736,0.808 -1.104,1.804 -1.104,2.988c0,1.184 0.376,2.18 1.128,2.988c0.752,0.808 1.704,1.212 2.856,1.212Z" style="fill:#2c2c2c;fill-rule:nonzero;"/><path d="M1074.12,420.012c1.824,0 3.276,0.548 4.356,1.644c1.08,1.096 1.62,2.54 1.62,4.332c0,1.792 -0.596,3.236 -1.788,4.332c-1.192,1.096 -2.676,1.644 -4.452,1.644c-1.952,0 -3.48,-0.596 -4.584,-1.788c-1.104,-1.192 -1.656,-2.756 -1.656,-4.692c0,-0.368 0.008,-0.64 0.024,-0.816c0,-0.352 0.008,-0.616 0.024,-0.792c0,-0.16 0.016,-0.448 0.048,-0.864c0.032,-0.368 0.056,-0.72 0.072,-1.056c0.16,-2.144 0.768,-3.784 1.824,-4.92c1.056,-1.136 2.624,-1.88 4.704,-2.232l4.8,-0.84l0,2.016l-4.752,0.84c-1.648,0.32 -2.784,0.856 -3.408,1.608c-0.624,0.752 -1.008,1.952 -1.152,3.6c0.816,-1.344 2.256,-2.016 4.32,-2.016Zm-0.264,9.936c1.216,0 2.184,-0.364 2.904,-1.092c0.72,-0.728 1.08,-1.684 1.08,-2.868c0,-1.216 -0.364,-2.18 -1.092,-2.892c-0.728,-0.712 -1.692,-1.068 -2.892,-1.068c-1.216,0 -2.184,0.364 -2.904,1.092c-0.72,0.728 -1.08,1.684 -1.08,2.868c0,1.2 0.368,2.16 1.104,2.88c0.736,0.72 1.696,1.08 2.88,1.08Z" style="fill:#2c2c2c;fill-rule:nonzero;"/><path d="M1085.88,429.756l0,7.296l-2.16,0l0,-17.232l2.16,0l0,2.04c0.368,-0.736 0.96,-1.308 1.776,-1.716c0.816,-0.408 1.664,-0.612 2.544,-0.612c1.776,0 3.192,0.592 4.248,1.776c1.056,1.184 1.584,2.664 1.584,4.44c0,1.792 -0.536,3.276 -1.608,4.452c-1.072,1.176 -2.48,1.764 -4.224,1.764c-0.72,0 -1.444,-0.144 -2.172,-0.432c-0.728,-0.288 -1.3,-0.688 -1.716,-1.2c-0.224,-0.24 -0.368,-0.432 -0.432,-0.576Zm-0.048,-4.008c0,1.248 0.368,2.24 1.104,2.976c0.72,0.816 1.68,1.224 2.88,1.224c1.184,0 2.144,-0.404 2.88,-1.212c0.736,-0.808 1.104,-1.804 1.104,-2.988c0,-1.168 -0.36,-2.168 -1.08,-3c-0.8,-0.8 -1.768,-1.2 -2.904,-1.2c-1.2,0 -2.164,0.4 -2.892,1.2c-0.728,0.8 -1.092,1.8 -1.092,3Z" style="fill:#2c2c2c;fill-rule:nonzero;"/><path d="M1108.8,431.676l0,-2.04c-0.384,0.752 -0.956,1.328 -1.716,1.728c-0.76,0.4 -1.588,0.6 -2.484,0.6c-1.744,0 -3.144,-0.6 -4.2,-1.8c-1.056,-1.2 -1.584,-2.672 -1.584,-4.416c0,-1.76 0.536,-3.236 1.608,-4.428c1.072,-1.192 2.464,-1.788 4.176,-1.788c1.648,0 2.912,0.544 3.792,1.632c0.224,0.32 0.36,0.528 0.408,0.624l0,-1.968l2.184,0l0,11.856l-2.184,0Zm0.048,-5.928c0,-1.2 -0.352,-2.2 -1.056,-3c-0.704,-0.8 -1.632,-1.2 -2.784,-1.2c-1.184,0 -2.136,0.404 -2.856,1.212c-0.72,0.808 -1.08,1.804 -1.08,2.988c0,1.264 0.36,2.256 1.08,2.976c0.72,0.816 1.672,1.224 2.856,1.224c1.152,0 2.08,-0.408 2.784,-1.224c0.704,-0.816 1.056,-1.808 1.056,-2.976Z" style="fill:#2c2c2c;fill-rule:nonzero;"/><path d="M1115.5,431.676l0,-11.856l2.184,0l0,4.848l6.648,0l0,-4.848l2.184,0l0,11.856l-2.184,0l0,-5.04l-6.648,0l0,5.04l-2.184,0Z" style="fill:#2c2c2c;fill-rule:nonzero;"/><path d="M1131.03,431.676l0,-11.856l2.184,0l0,4.848l6.648,0l0,-4.848l2.184,0l0,11.856l-2.184,0l0,-5.04l-6.648,0l0,5.04l-2.184,0Z" style="fill:#2c2c2c;fill-rule:nonzero;"/><path d="M1148.74,423.636l3.6,0c2.336,0 3.824,0.8 4.464,2.4c0.176,0.528 0.264,1.056 0.264,1.584c0,1.312 -0.452,2.316 -1.356,3.012c-0.904,0.696 -2.02,1.044 -3.348,1.044l-5.808,0l0,-11.856l2.184,0l0,3.816Zm3.36,1.968l-3.36,0l0,4.104l3.36,0c1.776,0 2.664,-0.696 2.664,-2.088c0,-1.344 -0.888,-2.016 -2.664,-2.016Zm6.96,6.072l0,-11.856l2.184,0l0,11.856l-2.184,0Z" style="fill:#2c2c2c;fill-rule:nonzero;"/><path d="M1165.75,431.676l0,-11.856l2.184,0l0,8.928l6.888,-8.928l2.184,0l0,11.856l-2.184,0l0,-9l-6.888,9l-2.184,0Zm5.664,-15.48c0.496,0 0.872,-0.16 1.128,-0.48c0.256,-0.32 0.384,-0.736 0.384,-1.248l0,-0.408l1.824,0l0,0.456c0,1.056 -0.296,1.888 -0.888,2.496c-0.592,0.608 -1.408,0.912 -2.448,0.912c-1.04,0 -1.856,-0.308 -2.448,-0.924c-0.592,-0.616 -0.888,-1.444 -0.888,-2.484l0,-0.456l1.824,0l0,0.408c0,0.496 0.132,0.908 0.396,1.236c0.264,0.328 0.636,0.492 1.116,0.492Z" style="fill:#2c2c2c;fill-rule:nonzero;"/><path d="M1078.38,465.708l0,-7.92l-4.848,0l-0.312,2.64c-0.144,1.2 -0.32,2.296 -0.528,3.288c-0.16,0.784 -0.408,1.448 -0.744,1.992l6.432,0Zm-8.016,5.544l-1.944,0l0,-5.544l1.416,0c0.672,-0.896 1.152,-2.712 1.44,-5.448l0.504,-4.44l8.784,0l0,9.888l2.16,0l0,5.544l-1.944,0l0,-3.576l-10.416,0l0,3.576Z" style="fill:#2c2c2c;fill-rule:nonzero;"/><path d="M1090.69,455.532c1.776,0 3.26,0.596 4.452,1.788c1.192,1.192 1.788,2.668 1.788,4.428c0,1.76 -0.604,3.236 -1.812,4.428c-1.208,1.192 -2.684,1.788 -4.428,1.788c-1.776,0 -3.26,-0.6 -4.452,-1.8c-1.192,-1.2 -1.788,-2.672 -1.788,-4.416c0,-1.776 0.6,-3.256 1.8,-4.44c1.2,-1.184 2.68,-1.776 4.44,-1.776Zm0,10.416c1.184,0 2.144,-0.408 2.88,-1.224c0.736,-0.816 1.104,-1.808 1.104,-2.976c0,-1.2 -0.372,-2.2 -1.116,-3c-0.744,-0.8 -1.7,-1.2 -2.868,-1.2c-1.184,0 -2.144,0.404 -2.88,1.212c-0.736,0.808 -1.104,1.804 -1.104,2.988c0,1.184 0.376,2.18 1.128,2.988c0.752,0.808 1.704,1.212 2.856,1.212Z" style="fill:#2c2c2c;fill-rule:nonzero;"/><path d="M1109.39,467.676l-3.984,-4.44l-4.008,4.44l-2.64,0l5.328,-5.904l-5.352,-5.952l2.832,0l3.888,4.392l3.96,-4.392l2.664,0l-5.304,5.88l5.304,5.976l-2.688,0Z" style="fill:#2c2c2c;fill-rule:nonzero;"/><path d="M1120.12,455.532c1.776,0 3.26,0.596 4.452,1.788c1.192,1.192 1.788,2.668 1.788,4.428c0,1.76 -0.604,3.236 -1.812,4.428c-1.208,1.192 -2.684,1.788 -4.428,1.788c-1.776,0 -3.26,-0.6 -4.452,-1.8c-1.192,-1.2 -1.788,-2.672 -1.788,-4.416c0,-1.776 0.6,-3.256 1.8,-4.44c1.2,-1.184 2.68,-1.776 4.44,-1.776Zm0,10.416c1.184,0 2.144,-0.408 2.88,-1.224c0.736,-0.816 1.104,-1.808 1.104,-2.976c0,-1.2 -0.372,-2.2 -1.116,-3c-0.744,-0.8 -1.7,-1.2 -2.868,-1.2c-1.184,0 -2.144,0.404 -2.88,1.212c-0.736,0.808 -1.104,1.804 -1.104,2.988c0,1.184 0.376,2.18 1.128,2.988c0.752,0.808 1.704,1.212 2.856,1.212Z" style="fill:#2c2c2c;fill-rule:nonzero;"/><path d="M1137.92,465.708l0,-7.92l-4.848,0l-0.312,2.64c-0.144,1.2 -0.32,2.296 -0.528,3.288c-0.16,0.784 -0.408,1.448 -0.744,1.992l6.432,0Zm-8.016,5.544l-1.944,0l0,-5.544l1.416,0c0.672,-0.896 1.152,-2.712 1.44,-5.448l0.504,-4.44l8.784,0l0,9.888l2.16,0l0,5.544l-1.944,0l0,-3.576l-10.416,0l0,3.576Z" style="fill:#2c2c2c;fill-rule:nonzero;"/></g><g><path d="M1378.54,430.416l-4.128,0c-2,0 -3.596,-0.488 -4.788,-1.464c-1.192,-0.976 -1.788,-2.416 -1.788,-4.32c0,-1.952 0.592,-3.388 1.776,-4.308c1.184,-0.92 2.784,-1.38 4.8,-1.38l4.128,0l0,-2.808l2.328,0l0,2.808l4.128,0c2.016,0 3.616,0.46 4.8,1.38c1.184,0.92 1.776,2.356 1.776,4.308c0,1.968 -0.604,3.424 -1.812,4.368c-1.208,0.944 -2.796,1.416 -4.764,1.416l-4.128,0l0,3.24l-2.328,0l0,-3.24Zm0,-2.16l0,-7.152l-4.2,0c-2.736,0 -4.104,1.192 -4.104,3.576c0,1.2 0.376,2.096 1.128,2.688c0.752,0.592 1.744,0.888 2.976,0.888l4.2,0Zm6.528,-7.152l-4.2,0l0,7.152l4.2,0c1.232,0 2.224,-0.296 2.976,-0.888c0.752,-0.592 1.128,-1.488 1.128,-2.688c0,-2.384 -1.368,-3.576 -4.104,-3.576Z" style="fill:#2c2c2c;fill-rule:nonzero;"/><path d="M1400.86,421.272c1.776,0 3.26,0.596 4.452,1.788c1.192,1.192 1.788,2.668 1.788,4.428c0,1.76 -0.604,3.236 -1.812,4.428c-1.208,1.192 -2.684,1.788 -4.428,1.788c-1.776,0 -3.26,-0.6 -4.452,-1.8c-1.192,-1.2 -1.788,-2.672 -1.788,-4.416c0,-1.776 0.6,-3.256 1.8,-4.44c1.2,-1.184 2.68,-1.776 4.44,-1.776Zm0,10.416c1.184,0 2.144,-0.408 2.88,-1.224c0.736,-0.816 1.104,-1.808 1.104,-2.976c0,-1.2 -0.372,-2.2 -1.116,-3c-0.744,-0.8 -1.7,-1.2 -2.868,-1.2c-1.184,0 -2.144,0.404 -2.88,1.212c-0.736,0.808 -1.104,1.804 -1.104,2.988c0,1.184 0.376,2.18 1.128,2.988c0.752,0.808 1.704,1.212 2.856,1.212Z" style="fill:#2c2c2c;fill-rule:nonzero;"/><path d="M1410.73,433.416l0,-11.856l2.184,0l0,4.848l6.648,0l0,-4.848l2.184,0l0,11.856l-2.184,0l0,-5.04l-6.648,0l0,5.04l-2.184,0Z" style="fill:#2c2c2c;fill-rule:nonzero;"/><path d="M1434.32,431.448l0,-7.92l-4.848,0l-0.312,2.64c-0.144,1.2 -0.32,2.296 -0.528,3.288c-0.16,0.784 -0.408,1.448 -0.744,1.992l6.432,0Zm-8.016,5.544l-1.944,0l0,-5.544l1.416,0c0.672,-0.896 1.152,-2.712 1.44,-5.448l0.504,-4.44l8.784,0l0,9.888l2.16,0l0,5.544l-1.944,0l0,-3.576l-10.416,0l0,3.576Z" style="fill:#2c2c2c;fill-rule:nonzero;"/><path d="M1301.68,464.406l3.035,5.344l-1.711,0l-3.738,-5.344l3.738,-5.344l1.734,0l-3.058,5.344Zm4.535,0l3.093,5.344l-1.781,0l-3.668,-5.344l3.668,-5.344l1.781,0l-3.093,5.344Z" style="fill:#2c2c2c;fill-rule:nonzero;"/><path d="M1313.68,470.593l0,-17.04l14.88,0l0,17.04l-2.328,0l0,-14.88l-10.224,0l0,14.88l-2.328,0Z" style="fill:#2c2c2c;fill-rule:nonzero;"/><path d="M1338.81,458.449c1.776,0 3.26,0.596 4.452,1.788c1.192,1.192 1.788,2.668 1.788,4.428c0,1.76 -0.604,3.236 -1.812,4.428c-1.208,1.192 -2.684,1.788 -4.428,1.788c-1.776,0 -3.26,-0.6 -4.452,-1.8c-1.192,-1.2 -1.788,-2.672 -1.788,-4.416c0,-1.776 0.6,-3.256 1.8,-4.44c1.2,-1.184 2.68,-1.776 4.44,-1.776Zm0,10.416c1.184,0 2.144,-0.408 2.88,-1.224c0.736,-0.816 1.104,-1.808 1.104,-2.976c0,-1.2 -0.372,-2.2 -1.116,-3c-0.744,-0.8 -1.7,-1.2 -2.868,-1.2c-1.184,0 -2.144,0.404 -2.88,1.212c-0.736,0.808 -1.104,1.804 -1.104,2.988c0,1.184 0.376,2.18 1.128,2.988c0.752,0.808 1.704,1.212 2.856,1.212Z" style="fill:#2c2c2c;fill-rule:nonzero;"/><path d="M1356.62,468.625l0,-7.92l-4.848,0l-0.312,2.64c-0.144,1.2 -0.32,2.296 -0.528,3.288c-0.16,0.784 -0.408,1.448 -0.744,1.992l6.432,0Zm-8.016,5.544l-1.944,0l0,-5.544l1.416,0c0.672,-0.896 1.152,-2.712 1.44,-5.448l0.504,-4.44l8.784,0l0,9.888l2.16,0l0,5.544l-1.944,0l0,-3.576l-10.416,0l0,3.576Z" style="fill:#2c2c2c;fill-rule:nonzero;"/><path d="M1372.7,470.593l0,-2.04c-0.384,0.752 -0.956,1.328 -1.716,1.728c-0.76,0.4 -1.588,0.6 -2.484,0.6c-1.744,0 -3.144,-0.6 -4.2,-1.8c-1.056,-1.2 -1.584,-2.672 -1.584,-4.416c0,-1.76 0.536,-3.236 1.608,-4.428c1.072,-1.192 2.464,-1.788 4.176,-1.788c1.648,0 2.912,0.544 3.792,1.632c0.224,0.32 0.36,0.528 0.408,0.624l0,-1.968l2.184,0l0,11.856l-2.184,0Zm0.048,-5.928c0,-1.2 -0.352,-2.2 -1.056,-3c-0.704,-0.8 -1.632,-1.2 -2.784,-1.2c-1.184,0 -2.136,0.404 -2.856,1.212c-0.72,0.808 -1.08,1.804 -1.08,2.988c0,1.264 0.36,2.256 1.08,2.976c0.72,0.816 1.672,1.224 2.856,1.224c1.152,0 2.08,-0.408 2.784,-1.224c0.704,-0.816 1.056,-1.808 1.056,-2.976Z" style="fill:#2c2c2c;fill-rule:nonzero;"/><path d="M1381.56,468.673l0,7.296l-2.16,0l0,-17.232l2.16,0l0,2.04c0.368,-0.736 0.96,-1.308 1.776,-1.716c0.816,-0.408 1.664,-0.612 2.544,-0.612c1.776,0 3.192,0.592 4.248,1.776c1.056,1.184 1.584,2.664 1.584,4.44c0,1.792 -0.536,3.276 -1.608,4.452c-1.072,1.176 -2.48,1.764 -4.224,1.764c-0.72,0 -1.444,-0.144 -2.172,-0.432c-0.728,-0.288 -1.3,-0.688 -1.716,-1.2c-0.224,-0.24 -0.368,-0.432 -0.432,-0.576Zm-0.048,-4.008c0,1.248 0.368,2.24 1.104,2.976c0.72,0.816 1.68,1.224 2.88,1.224c1.184,0 2.144,-0.404 2.88,-1.212c0.736,-0.808 1.104,-1.804 1.104,-2.988c0,-1.168 -0.36,-2.168 -1.08,-3c-0.8,-0.8 -1.768,-1.2 -2.904,-1.2c-1.2,0 -2.164,0.4 -2.892,1.2c-0.728,0.8 -1.092,1.8 -1.092,3Z" style="fill:#2c2c2c;fill-rule:nonzero;"/><path d="M1395.36,470.593l0,-11.856l2.184,0l0,8.928l6.888,-8.928l2.184,0l0,11.856l-2.184,0l0,-9l-6.888,9l-2.184,0Z" style="fill:#2c2c2c;fill-rule:nonzero;"/><path d="M1424.3,470.593l0,-5.352l-5.856,5.352l-3.024,0l6.672,-6.072l-6.384,-5.784l3.072,0l5.52,5.064l0,-5.064l2.112,0l0,5.064l5.52,-5.064l3.048,0l-6.336,5.736l6.72,6.12l-3.096,0l-5.856,-5.352l0,5.352l-2.112,0Z" style="fill:#2c2c2c;fill-rule:nonzero;"/><path d="M1437.81,470.593l0,-11.856l2.184,0l0,8.928l6.888,-8.928l2.184,0l0,11.856l-2.184,0l0,-9l-6.888,9l-2.184,0Z" style="fill:#2c2c2c;fill-rule:nonzero;"/><path d="M1458.43,468.913c2.064,0 3.096,-0.6 3.096,-1.8c0,-1.04 -0.832,-1.56 -2.496,-1.56l-1.968,0l0,-1.92l1.992,0c1.52,0 2.28,-0.544 2.28,-1.632c0,-0.512 -0.264,-0.912 -0.792,-1.2c-0.576,-0.272 -1.32,-0.408 -2.232,-0.408c-1.632,0 -2.744,0.56 -3.336,1.68l-2.136,0c0.128,-0.784 0.504,-1.468 1.128,-2.052c0.624,-0.584 1.352,-1.012 2.184,-1.284c0.624,-0.208 1.36,-0.312 2.208,-0.312c0.624,0 1.216,0.056 1.776,0.168c0.56,0.112 1.104,0.292 1.632,0.54c0.528,0.248 0.948,0.612 1.26,1.092c0.312,0.48 0.468,1.048 0.468,1.704c0,0.624 -0.168,1.172 -0.504,1.644c-0.336,0.472 -0.8,0.788 -1.392,0.948c1.472,0.416 2.208,1.272 2.208,2.568c0,0.896 -0.292,1.644 -0.876,2.244c-0.584,0.6 -1.26,1.008 -2.028,1.224c-0.768,0.216 -1.592,0.324 -2.472,0.324c-1.392,0 -2.672,-0.336 -3.84,-1.008c-1.168,-0.672 -1.848,-1.64 -2.04,-2.904l2.232,0c0.096,0.208 0.24,0.424 0.432,0.648c0.304,0.432 0.76,0.756 1.368,0.972c0.608,0.216 1.224,0.324 1.848,0.324Z" style="fill:#2c2c2c;fill-rule:nonzero;"/><path d="M1467.62,470.593l0,-11.856l2.184,0l0,4.848l6.648,0l0,-4.848l2.184,0l0,11.856l-2.184,0l0,-5.04l-6.648,0l0,5.04l-2.184,0Z" style="fill:#2c2c2c;fill-rule:nonzero;"/><path d="M1485.33,462.553l3.6,0c2.336,0 3.824,0.8 4.464,2.4c0.176,0.528 0.264,1.056 0.264,1.584c0,1.312 -0.452,2.316 -1.356,3.012c-0.904,0.696 -2.02,1.044 -3.348,1.044l-5.808,0l0,-11.856l2.184,0l0,3.816Zm3.36,1.968l-3.36,0l0,4.104l3.36,0c1.776,0 2.664,-0.696 2.664,-2.088c0,-1.344 -0.888,-2.016 -2.664,-2.016Z" style="fill:#2c2c2c;fill-rule:nonzero;"/><path d="M1503.65,464.406l-3.058,-5.344l1.734,0l3.738,5.344l-3.738,5.344l-1.722,0l3.046,-5.344Zm-4.535,0l-3.094,-5.344l1.77,0l3.68,5.344l-3.68,5.344l-1.77,0l3.094,-5.344Z" style="fill:#2c2c2c;fill-rule:nonzero;"/></g><path d="M251.007,153.184c-1.328,-2.587 -4.86,-3.062 -6.79,-0.838c-2.677,-3.071 -8.401,-0.92 -7.028,4.454c-0.942,0.391 -1.991,1.103 -2.862,2.4c-2.167,-3.329 -6.886,-3.868 -9.742,-1.008c-1.192,1.193 -1.849,2.777 -1.846,4.462c0.007,6.46 5.645,11.423 10.92,13.913c0.437,0.205 0.938,0.199 1.363,-0.002c0.85,-0.403 3.064,-1.542 5.278,-3.401c3.586,-3.014 5.469,-6.409 5.605,-10.096c1.864,-1.086 3.466,-2.556 4.406,-4.078c0.299,-0.483 0.149,-1.117 -0.333,-1.414c-0.484,-0.299 -1.117,-0.149 -1.416,0.334c-0.952,1.542 -2.688,2.888 -4.342,3.737c-2.569,-1.292 -5.192,-3.674 -5.195,-6.572c-0.002,-2.142 2.846,-2.867 3.891,-1.028c0.515,0.905 1.954,1.033 2.599,-0.005c0.971,-1.562 2.964,-1.28 3.663,0.08c0.258,0.505 0.877,0.705 1.383,0.446c0.505,-0.26 0.705,-0.879 0.446,-1.384Zm-7.21,10.53c-0.326,2.815 -1.944,5.459 -4.82,7.877c-1.877,1.577 -3.752,2.586 -4.64,3.022c-4.646,-2.248 -9.537,-6.538 -9.543,-11.962c-0.002,-1.134 0.441,-2.202 1.245,-3.006c1.986,-1.99 5.315,-1.538 6.705,0.905c0.179,0.316 0.824,0.898 1.634,0.879c0.648,-0.015 1.227,-0.403 1.546,-0.914c0.619,-0.994 1.371,-1.528 2.039,-1.809c1.481,2.621 4.64,4.617 5.834,5.008Z" style="fill:#d94236;fill-rule:nonzero;"/><path d="M264.231,202.692c-0.003,-0.011 -0.006,-0.022 -0.007,-0.032c-0.355,-1.524 -1.266,-2.619 -2.566,-3.19c1.509,-4.085 -2.993,-7.915 -6.807,-5.65c-9.946,5.903 -9.524,5.58 -10.131,6.23l-0.893,0.062c0.223,-1.371 -0.104,-3.097 -2.029,-4.408c-7.577,-5.163 -8.926,-6.298 -11.221,-6.794c-6.732,-1.469 -8.121,-1.72 -11.92,-0.949c-2.875,0.585 -5.765,1.437 -8.603,2.533l-0.382,-0.928c-0.526,-1.276 -1.982,-1.883 -3.258,-1.358l-10.66,4.389c-0.959,0.396 -1.578,1.32 -1.578,2.356l0,21.39c0,1.54 1.566,2.578 2.98,1.997l18.532,-7.611c1.272,-0.524 1.882,-1.985 1.358,-3.257l-0.368,-0.89l1.12,-0.459c2.163,-0.891 4.822,-0.491 7.113,1.069c6.448,4.394 6.531,4.592 8.181,5.199c0.534,0.196 1.125,-0.078 1.32,-0.61c0.196,-0.533 -0.077,-1.123 -0.61,-1.32c-1.242,-0.457 -1.17,-0.496 -7.734,-4.967c-2.864,-1.951 -6.249,-2.427 -9.053,-1.272l-1.118,0.46c-0.157,-0.379 -3.514,-8.532 -5.061,-12.288c2.718,-1.047 5.482,-1.859 8.229,-2.418c2.854,-0.579 4.368,-0.645 11.055,0.939c1.95,0.464 2.789,1.221 10.522,6.488c1.163,0.792 1.561,1.987 0.81,3.344c-0.085,0.154 -0.88,1.489 -2.386,0.745c-2.403,-1.186 -8.136,-3.985 -8.193,-4.014c-0.51,-0.249 -1.125,-0.037 -1.374,0.472c-0.249,0.511 -0.037,1.126 0.472,1.375c0.057,0.028 5.786,2.827 8.185,4.011c1.887,0.931 3.686,0.281 4.765,-1.1c21.236,-1.477 15.282,-1.126 17.211,-1.104c0.944,0.166 1.783,0.701 2.086,1.977c0.462,2.388 -1.986,3.195 -2.556,3.348l-21.159,4.251c-0.557,0.112 -0.917,0.654 -0.806,1.21c0.098,0.488 0.527,0.825 1.007,0.825c0.067,0 0.135,-0.006 0.203,-0.02c0.046,-0.009 21.204,-4.259 21.248,-4.271c1.843,-0.481 4.775,-2.237 4.076,-5.76Zm-49.086,5.563c0.091,0.224 -0.016,0.481 -0.238,0.574l-18.533,7.609c-0.013,0.006 -0.051,0.021 -0.096,-0.009c-0.046,-0.031 -0.046,-0.071 -0.046,-0.086l0,-21.39c0,-0.199 0.119,-0.379 0.304,-0.454l10.66,-4.39c0.061,-0.025 0.117,-0.034 0.168,-0.034c0.072,0 0.133,0.019 0.17,0.035c0.062,0.025 0.177,0.091 0.237,0.238c3.296,8.003 4.244,10.304 7.374,17.907Zm44.469,-9.23c-0.53,-0.02 -0.984,0.02 -1.488,0.092l-4.621,0.322l-4.637,0.322l7.032,-4.174c2.257,-1.34 4.877,1.102 3.714,3.438Z" style="fill:#d94236;fill-rule:nonzero;"/><path d="M263.564,178.024c-0.578,-0.176 -1.189,0.149 -1.365,0.726c-0.897,2.929 -3.612,4.897 -6.623,4.897c-3.792,0 -6.927,-3.078 -6.927,-6.929c0,-3.819 3.107,-6.928 6.927,-6.928c2.9,0 5.516,1.831 6.51,4.554c0.207,0.568 0.834,0.86 1.401,0.653c0.568,-0.206 0.858,-0.835 0.653,-1.401c-1.308,-3.583 -4.749,-5.992 -8.564,-5.992c-5.025,0 -9.113,4.09 -9.113,9.114c0,5.074 4.131,9.114 9.113,9.114c3.944,0 7.526,-2.568 8.712,-6.442c0.177,-0.578 -0.147,-1.189 -0.724,-1.366Z" style="fill:#d94236;fill-rule:nonzero;"/><text x="250.904px" y="180.942px" style="font-family:'Montserrat-SemiBold', 'Montserrat';font-weight:600;font-size:12.067px;fill:#d94236;">₽</text><path d="M506.841,154.528c-2.924,0 -5.303,2.378 -5.303,5.303c0,2.924 2.379,5.304 5.303,5.304c2.925,0 5.304,-2.38 5.304,-5.304c0,-2.925 -2.379,-5.303 -5.304,-5.303Zm0,8.794c-1.925,0 -3.49,-1.565 -3.49,-3.49c0,-1.926 1.565,-3.491 3.49,-3.491c1.926,0 3.491,1.565 3.491,3.491c0,1.925 -1.565,3.49 -3.491,3.49Z" style="fill:#d94236;fill-rule:nonzero;"/><path d="M523.049,154.528c-3.678,0 -6.67,2.991 -6.67,6.669c0,3.677 2.992,6.67 6.67,6.67c3.678,0 6.669,-2.993 6.669,-6.67c0,-3.678 -2.991,-6.669 -6.669,-6.669Zm0,11.526c-2.678,0 -4.857,-2.179 -4.857,-4.857c0,-2.678 2.179,-4.857 4.857,-4.857c2.678,0 4.856,2.179 4.856,4.857c0,2.678 -2.178,4.857 -4.856,4.857Z" style="fill:#d94236;fill-rule:nonzero;"/><path d="M539.256,154.528c-2.925,0 -5.303,2.378 -5.303,5.303c0,2.924 2.378,5.304 5.303,5.304c2.924,0 5.304,-2.38 5.304,-5.304c0,-2.925 -2.38,-5.303 -5.304,-5.303Zm0,8.794c-1.925,0 -3.49,-1.565 -3.49,-3.49c0,-1.926 1.565,-3.491 3.49,-3.491c1.925,0 3.491,1.565 3.491,3.491c0,1.925 -1.566,3.49 -3.491,3.49Z" style="fill:#d94236;fill-rule:nonzero;"/><path d="M541.08,167.072l-0.019,0l-3.609,0l-0.02,0c-3.591,0.009 -6.519,2.252 -7.084,5.124c-1.499,-0.815 -3.188,-1.229 -4.934,-1.229c-2.191,0 -3.549,-0.013 -4.524,0c-1.816,0 -3.486,0.329 -5.14,1.229c-0.562,-2.855 -3.474,-5.115 -7.085,-5.124l-0.019,0l-3.609,0l-0.019,0c-3.959,0.009 -7.186,2.757 -7.186,6.144l0,10.381c0,1.188 0.966,2.155 2.154,2.155l11.536,0l0,6.591c0,1.402 1.14,2.542 2.543,2.542l6.869,0c0.501,0 0.907,-0.405 0.907,-0.906c0,-0.5 -0.406,-0.907 -0.907,-0.907l-6.869,0c-0.403,0 -0.73,-0.327 -0.73,-0.729l0,-7.498l0,-6.107c0,-2.611 2.031,-4.655 4.524,-5.499l3.941,5.498c0.278,0.388 0.746,0.62 1.249,0.62c0.504,0 0.971,-0.232 1.248,-0.62l3.942,-5.498c2.53,0.858 4.524,2.93 4.524,5.499l0,13.605c0,0.402 -0.327,0.729 -0.729,0.729l-6.87,0c-0.5,0 -0.907,0.407 -0.907,0.907c0,0.501 0.407,0.906 0.907,0.906l6.87,0c1.402,0 2.542,-1.14 2.542,-2.542l0,-6.591l11.536,0c1.188,0 2.155,-0.967 2.155,-2.154l0,-10.382c-0.001,-3.375 -3.214,-6.135 -7.187,-6.144Zm-36.043,1.813l3.609,0c0.094,0 0.188,0.002 0.282,0.006l-2.087,2.91l-2.086,-2.91c0.093,-0.004 0.188,-0.006 0.282,-0.006Zm6.485,9.853l0,5.201l-11.536,0c-0.188,0 -0.341,-0.153 -0.341,-0.341l0,-10.382c0,-1.748 1.295,-3.256 3.157,-3.939l2.911,4.063c0.254,0.352 0.675,0.563 1.128,0.563c0.454,0 0.875,-0.211 1.128,-0.563l2.912,-4.063c1.776,0.651 3.157,2.061 3.157,4.109c-1.71,1.524 -2.516,3.446 -2.516,5.352Zm11.527,-1.37l-3.255,-4.542c0.303,-0.025 0.653,-0.039 1.099,-0.046l4.521,0c0.139,0 0.278,0.005 0.416,0.011c0.043,0.002 0.086,0.005 0.128,0.008c0.096,0.005 0.193,0.012 0.288,0.022c0.02,0.001 0.038,0.003 0.058,0.005l-3.255,4.542Zm14.403,-8.483l3.609,0c0.094,0 0.187,0.002 0.282,0.006l-2.087,2.91l-2.086,-2.91c0.093,-0.004 0.188,-0.006 0.282,-0.006Zm8.66,15.054l-11.536,0l0,-5.201c0,-1.932 -0.827,-3.847 -2.517,-5.352c0,-2.037 1.37,-3.453 3.156,-4.109l2.913,4.063c0.538,0.751 1.719,0.75 2.255,0l2.913,-4.063c1.861,0.683 3.157,2.191 3.157,3.939l0,10.382c0,0.188 -0.153,0.341 -0.341,0.341Z" style="fill:#d94236;fill-rule:nonzero;"/><path d="M507.549,204.903l31,0" style="fill:none;stroke:#d94236;stroke-width:2px;"/><path d="M496.549,214.903l53,0" style="fill:none;stroke:#d94236;stroke-width:2px;"/><g><path d="M1424.31,152.581c-7.298,0 -13.391,5.271 -14.701,12.218l-8.489,-4.916c-0.868,-0.55 -5.016,-0.55 -5.884,0l-20.604,13.279c-0.456,0.289 -0.729,0.785 -0.729,1.326l0,4.811c0,0.865 0.701,1.569 1.563,1.569l0.664,0l0,2.127c0,0.951 0.77,1.724 1.717,1.724l1.125,0l0,20.536l-1.125,0c-0.947,0 -1.717,0.773 -1.717,1.723l0,2.127l-0.51,0c-0.946,0 -1.717,0.774 -1.717,1.724l0,2.226c0,0.95 0.771,1.723 1.718,1.723l19.289,0c0.501,0 0.908,-0.408 0.908,-0.911c0,-0.503 -0.407,-0.911 -0.908,-0.911l-19.191,0l0,-2.028l46.008,0l0,2.028l-19.191,0c-0.501,0 -0.908,0.408 -0.908,0.911c0,0.503 0.407,0.911 0.908,0.911l19.289,0c0.947,0 0.507,-0.773 0.507,-1.723l0,-2.226c0,-0.951 0.44,-1.724 -0.507,-1.724l-0.509,0l0,-2.127c0,-0.95 -0.77,-1.723 -1.717,-1.723l-1.125,0l0,-8.351c0,-0.503 -0.407,-0.911 -0.908,-0.911c-0.502,0 -0.908,0.408 -0.908,0.911l0,8.351l-2.903,0l0,-20.536l2.903,0l0,7.933c0,0.504 0.406,0.912 0.908,0.912c0.501,0 0.908,-0.408 0.908,-0.912l0,-7.933l1.125,0c0.947,0 1.717,-0.773 1.717,-1.723l0,-0.687c0.968,0.198 1.969,0.302 2.994,0.302c8.25,0 14.963,-6.735 14.963,-15.015c0,-8.279 -6.713,-15.015 -14.963,-15.015Zm-48.591,26.465l0,-4.418l20.486,-13.204c0.28,-0.177 3.667,-0.177 3.946,0l9.217,5.377c-0.248,4.755 1.758,9.259 5.262,12.245l-38.911,0Zm43.781,28.031l0,2.028l-41.554,0l0,-2.028l41.554,0Zm-38.712,-1.822l0,-20.536l2.903,0l0,20.536l-2.903,0Zm4.719,0l0,-20.536l8.254,0l0,20.536l-8.254,0Zm10.07,0l0,-20.536l6.292,0l0,20.536l-6.292,0Zm8.108,0l0,-20.536l8.254,0l0,20.536l-8.254,0Zm15.815,-22.358l-41.554,0l0,-2.029l39.362,0c0.722,0.384 1.522,0.721 2.192,0.95l0,1.079Zm4.81,-2.108c-7.633,0 -13.782,-6.569 -13.094,-14.373c0.597,-6.723 6.241,-12.013 13.094,-12.013c7.249,0 13.147,5.919 13.147,13.193c0,7.275 -5.898,13.193 -13.147,13.193Z" style="fill:#d94236;fill-rule:nonzero;"/><path d="M1424.31,156.715c-5.979,0 -10.843,4.881 -10.843,10.881c0,6 4.864,10.881 10.843,10.881c5.979,0 10.843,-4.881 10.843,-10.881c0,-6 -4.864,-10.881 -10.843,-10.881Zm0,19.94c-4.978,0 -9.028,-4.064 -9.028,-9.059c0,-4.995 4.05,-9.059 9.028,-9.059c4.978,0 9.027,4.064 9.027,9.059c0,4.995 -4.049,9.059 -9.027,9.059Z" style="fill:#d94236;fill-rule:nonzero;"/><path d="M1397.88,167.865c-2.013,0 -3.65,1.643 -3.65,3.662c0,2.019 1.637,3.662 3.65,3.662c2.012,0 3.649,-1.643 3.649,-3.662c0,-2.019 -1.637,-3.662 -3.649,-3.662Zm0,5.502c-1.011,0 -1.834,-0.826 -1.834,-1.84c0,-1.015 0.823,-1.84 1.834,-1.84c1.01,0 1.833,0.825 1.833,1.84c0,1.014 -0.823,1.84 -1.833,1.84Z" style="fill:#d94236;fill-rule:nonzero;"/><text x="1419.14px" y="172.477px" style="font-family:'Montserrat-SemiBold', 'Montserrat';font-weight:600;font-size:13.945px;fill:#d94236;">₽</text></g><path d="M848.297,159.87l-9.336,-10.881c-0.017,-0.021 -0.036,-0.04 -0.055,-0.06c-0.816,-0.815 -2.137,-0.863 -3.009,-0.11l-7.441,6.424c-0.913,0.788 -1.013,2.166 -0.225,3.08l0.292,0.337l-0.481,0.414c-1.273,1.101 -3.19,1.429 -5.126,0.88c-0.039,-0.01 -5.55,-1.574 -5.588,-1.583c-1.005,-0.234 -3.603,-0.602 -6.085,0.998c-0.04,0.023 -14.258,8.16 -14.296,8.186c-3.872,2.522 -2.008,6.867 0.946,7.341c0.129,3.442 4.472,5.028 6.773,2.368c5.695,-6.579 5.508,-6.293 5.806,-6.895l0.217,-0.089c0.284,1.064 1.06,2.124 2.648,2.574c6.656,1.889 7.992,2.418 9.839,2.215c5.161,-0.553 6.343,-0.723 8.943,-2.218c1.869,-1.078 3.688,-2.335 5.421,-3.746l0.316,0.366c0.791,0.915 2.169,1.014 3.081,0.226l7.081,-6.114c1.098,-0.948 1.223,-2.613 0.279,-3.713Zm-45.246,15.998c-1.066,1.233 -3.082,0.415 -3.022,-1.185l6.306,-2.609l-3.284,3.794Zm28.002,-4.868c-2.211,1.272 -2.955,1.394 -8.083,1.943c-1.405,0.15 -2.52,-0.29 -9.051,-2.143c-0.838,-0.237 -1.057,-0.685 -1.148,-1.002c-0.126,-0.432 -0.046,-0.846 -0.047,-0.846c0.055,-0.232 0.152,-0.432 0.261,-0.579c0.158,-0.214 0.398,-0.423 0.971,-0.344c2.02,0.278 6.83,0.92 6.878,0.927c0.586,0.079 1.122,-0.332 1.199,-0.916c0.078,-0.584 -0.332,-1.122 -0.916,-1.2c-0.048,-0.006 -4.854,-0.649 -6.869,-0.926c-1.887,-0.26 -2.999,0.906 -3.438,2.006l-1.556,0.643c0,0 -9.485,3.957 -10.431,4.229c-1.717,0.242 -2.891,-1.993 -0.734,-3.433l14.239,-8.15c0,-0.001 0.002,-0.001 0.003,-0.002c0.017,-0.01 0.034,-0.02 0.051,-0.032c1.783,-1.16 3.68,-0.903 4.438,-0.73l5.513,1.564c2.63,0.745 5.286,0.253 7.104,-1.318l0.481,-0.415c0.813,0.943 5.504,6.375 6.227,7.213c-1.629,1.323 -3.338,2.501 -5.092,3.511Zm15.572,-9.034c-0.059,0.05 -7.102,6.167 -7.151,6.11c-0.05,-0.057 -9.68,-11.168 -9.622,-11.217l7.44,-6.424c0.014,-0.012 0.032,-0.019 0.049,-0.019c0.016,0 0.03,0.004 0.042,0.012l9.293,10.832c0.181,0.209 0.158,0.527 -0.051,0.706Z" style="fill:#d94236;fill-rule:nonzero;"/><path d="M830.015,194.584c-0.13,-3.442 -4.472,-5.027 -6.773,-2.369l-5.269,6.088c-0.215,0.247 -0.394,0.518 -0.538,0.808l-0.217,0.091c-0.284,-1.066 -1.06,-2.126 -2.647,-2.577c-7.001,-1.985 -7.912,-2.382 -9.818,-2.215c-0.008,0 -0.014,0.001 -0.021,0.001c-5.16,0.554 -6.344,0.723 -8.943,2.22c-1.869,1.075 -3.689,2.333 -5.421,3.745l-0.317,-0.367c-0.788,-0.911 -2.17,-1.013 -3.081,-0.226l-7.468,6.448c-0.429,0.371 -0.687,0.887 -0.726,1.453c-0.039,0.567 0.145,1.114 0.519,1.541l9.843,11.215c0.735,0.84 2.018,0.945 2.853,0.238c0.004,-0.004 0.017,-0.014 0.021,-0.017l7.439,-6.424c0.914,-0.789 1.015,-2.166 0.226,-3.08l-0.292,-0.337l0.48,-0.414c1.273,-1.101 3.19,-1.429 5.127,-0.88l5.406,1.532c0.568,0.161 1.158,-0.167 1.319,-0.734c0.16,-0.567 -0.169,-1.158 -0.736,-1.319l-5.407,-1.534c-2.629,-0.745 -5.284,-0.252 -7.104,1.319l-0.48,0.414l-4.109,-4.759l-2.118,-2.453c1.629,-1.324 3.338,-2.502 5.091,-3.512c2.213,-1.273 2.957,-1.394 8.095,-1.944c1.452,-0.126 2.253,0.219 9.039,2.144c0.839,0.237 1.058,0.685 1.15,1.002c0.125,0.433 0.046,0.846 0.046,0.846c-0.052,0.227 -0.151,0.43 -0.261,0.579c-0.159,0.214 -0.4,0.423 -0.971,0.344c-2.021,-0.278 -6.829,-0.92 -6.879,-0.927c-0.585,-0.078 -1.121,0.332 -1.199,0.916c-0.078,0.584 0.332,1.122 0.916,1.199c0.05,0.007 4.854,0.649 6.871,0.927c0.181,0.025 0.354,0.036 0.521,0.036c1.573,0 2.519,-1.047 2.916,-2.042l1.557,-0.641c0,0 9.173,-3.78 9.287,-3.838c0.61,-0.313 0.987,-0.348 1.142,-0.393c1.718,-0.24 2.893,1.993 0.735,3.432c-14.998,8.586 -14.66,8.403 -14.66,8.403c-0.517,0.282 -0.707,0.931 -0.425,1.448c0.282,0.518 0.931,0.708 1.449,0.426l14.778,-8.471c3.87,-2.522 2.009,-6.868 -0.946,-7.342Zm-31.954,17.968c0.05,0.057 -7.31,6.376 -7.367,6.426l-9.779,-11.146l7.45,-6.433c0.006,-0.004 0.017,-0.015 0.035,-0.012c0.021,0.001 0.03,0.012 0.034,0.017l9.627,11.148Zm23.512,-15.147l3.283,-3.793c1.05,-1.212 3.084,-0.441 3.023,1.185c0,0 -6.305,2.608 -6.306,2.608Z" style="fill:#d94236;fill-rule:nonzero;"/><path d="M821.91,186.184c-0.564,-0.172 -1.161,0.146 -1.334,0.709c-0.876,2.862 -3.528,4.784 -6.47,4.784c-3.704,0 -6.767,-3.007 -6.767,-6.768c0,-3.732 3.036,-6.769 6.767,-6.769c2.833,0 5.389,1.789 6.36,4.449c0.202,0.555 0.815,0.84 1.369,0.638c0.554,-0.202 0.838,-0.815 0.637,-1.368c-1.277,-3.5 -4.638,-5.853 -8.366,-5.853c-4.908,0 -8.901,3.994 -8.901,8.903c0,4.956 4.034,8.903 8.901,8.903c3.854,0 7.352,-2.509 8.511,-6.293c0.173,-0.565 -0.144,-1.162 -0.707,-1.335Z" style="fill:#d94236;fill-rule:nonzero;"/><text x="809.543px" y="189.034px" style="font-family:'Montserrat-SemiBold', 'Montserrat';font-weight:600;font-size:11.788px;fill:#d94236;">₽</text><g><path d="M1101.14,186.373l-15.686,-6.921c-0.594,-0.261 -1.262,0.173 -1.262,0.822l0,20.439c0,0.649 0.384,1.239 0.979,1.501l15.244,6.726c0.116,0.051 0.24,0.076 0.363,0.076c0.171,0 0.342,-0.049 0.491,-0.146c0.254,-0.166 0.407,-0.449 0.407,-0.753l0,-20.922c0,-0.356 -0.21,-0.678 -0.536,-0.822Zm-1.261,20.366l-13.89,-6.128l0,-13.387l13.89,6.128l0,13.387Zm0,-15.352l-13.89,-6.128l0,-3.606l13.89,6.128l0,3.606Z" style="fill:#d94236;fill-rule:nonzero;"/><path d="M1103.64,165.833l0,0.528l2.04,0l0,0.649l-2.04,0l0,0.964l-1.205,0l0,-0.964l-0.927,0l0,-0.649l0.927,0l0,-4.876l2.67,0c0.865,0 1.54,0.186 2.025,0.557c0.485,0.37 0.728,0.911 0.728,1.622c0,0.704 -0.243,1.242 -0.728,1.613c-0.485,0.371 -1.16,0.556 -2.025,0.556l-1.465,0Zm3.004,-2.16c0,-0.377 -0.133,-0.666 -0.399,-0.867c-0.266,-0.2 -0.649,-0.301 -1.149,-0.301l-1.456,0l0,2.355l1.456,0c0.494,0 0.876,-0.104 1.144,-0.311c0.269,-0.207 0.404,-0.499 0.404,-0.876Z" style="fill:#d94236;fill-rule:nonzero;"/><path d="M1128.17,191.242c-0.497,0 -0.899,0.402 -0.899,0.899l0,11.153c0,0.084 -0.05,0.16 -0.127,0.194l-21.563,9.514l0,-29.363l5.625,-2.481l16.065,-7.088l0,13.877c0,0.496 0.402,0.899 0.898,0.899c0.497,0 0.899,-0.403 0.899,-0.899c0,-0.519 0,-15.451 0,-15.257c0,-0.358 -0.216,-0.682 -0.54,-0.823l-13.108,-5.701c0.622,-5.807 -3.361,-10.869 -8.702,-11.993c-0.486,-0.103 -0.962,0.209 -1.064,0.694c-0.103,0.486 0.208,0.963 0.694,1.065c6.837,1.438 9.741,9.803 5.024,15.154l-1.895,0c5.63,-4.592 2.449,-14.012 -5.043,-14.012c-7.41,0 -10.724,9.285 -5.015,14.012l-1.922,0c-4.685,-5.316 -1.848,-13.711 5.027,-15.155c0.486,-0.102 0.797,-0.578 0.695,-1.064c-0.102,-0.486 -0.579,-0.797 -1.064,-0.695c-5.497,1.154 -9.415,6.403 -8.683,12.2l-12.636,5.495c-0.316,0.137 -0.534,0.453 -0.539,0.811c0,0.003 -0.001,0.007 -0.001,0.011l0,30.605c0,0.796 0.47,1.517 1.198,1.838l22.825,10.071c0.224,0.098 0.491,0.103 0.726,0l22.825,-10.071c0.728,-0.321 1.198,-1.043 1.198,-1.838l0,-11.153c0,-0.497 -0.402,-0.899 -0.898,-0.899Zm-23.736,-32.371c2.691,0 5.035,1.725 5.833,4.291c1.637,5.262 -3.942,9.652 -8.616,7.252c-5.708,-2.934 -3.581,-11.543 2.783,-11.543Zm-22.341,44.423l0,-29.224c0.612,0.27 21.194,9.35 21.69,9.569l0,29.363l-21.563,-9.514c-0.077,-0.034 -0.127,-0.11 -0.127,-0.194Zm22.589,-21.223l-21.248,-9.374l10.419,-4.531c0.311,1.028 0.775,2.011 1.382,2.92l-0.518,0c-0.496,0 -0.899,0.402 -0.899,0.898c0,0.497 0.403,0.899 0.899,0.899l19.439,0c0.496,0 0.898,-0.402 0.898,-0.899c0,-0.496 -0.402,-0.898 -0.898,-0.898l-0.522,0c0.644,-0.965 1.127,-2.014 1.437,-3.112l10.859,4.723l-21.248,9.374Z" style="fill:#d94236;fill-rule:nonzero;"/><path d="M1097.6,195.931l-8.674,-3.826c-0.454,-0.2 -0.984,0.005 -1.184,0.459c-0.201,0.454 0.005,0.985 0.459,1.185l8.674,3.827c0.456,0.201 0.985,-0.007 1.185,-0.46c0.2,-0.454 -0.006,-0.984 -0.46,-1.185Z" style="fill:#d94236;fill-rule:nonzero;"/><path d="M1097.6,199.976l-8.674,-3.827c-0.454,-0.2 -0.984,0.006 -1.184,0.46c-0.201,0.454 0.005,0.984 0.459,1.185l8.674,3.826c0.454,0.201 0.984,-0.005 1.185,-0.459c0.2,-0.454 -0.006,-0.984 -0.46,-1.185Z" style="fill:#d94236;fill-rule:nonzero;"/></g></g></g></svg>