<?xml version="1.0" encoding="UTF-8" standalone="no"?><!DOCTYPE svg PUBLIC "-//W3C//DTD SVG 1.1//EN" "http://www.w3.org/Graphics/SVG/1.1/DTD/svg11.dtd"><svg width="100%" height="100%" viewBox="0 0 441 56" version="1.1" xmlns="http://www.w3.org/2000/svg" xmlns:xlink="http://www.w3.org/1999/xlink" xml:space="preserve" xmlns:serif="http://www.serif.com/" style="fill-rule:evenodd;clip-rule:evenodd;stroke-linejoin:round;stroke-miterlimit:1.41421;"><g><path d="M83.82,11.89c-0.084,0.201 -0.181,0.427 -0.181,0.427c0,0 -0.111,0.018 -0.21,0.026l0,1.559l-0.266,0.02c-0.089,0 -0.122,0.054 -0.156,0.49c-0.021,0.313 -0.044,0.673 -0.303,0.881l-1.349,0.316l0.569,-0.651c0.143,-0.197 0.209,-0.436 0.209,-0.74c0,-0.052 -0.004,-0.118 -0.007,-0.172c-0.108,-0.078 -0.186,-0.216 -0.222,-0.433c-0.553,-0.09 -1.024,-0.557 -1.362,-0.955c0,0 -0.178,-0.193 -0.251,-0.271l-0.005,0.008c-0.535,0.19 -0.756,0.158 -1.033,-0.012l0,0.737c0.451,0.128 0.608,0.566 0.696,0.858l0.203,0.459l0.08,0.201l0.124,0.471c0.071,0.181 0.168,0.393 0.168,0.7c0,0.012 -0.007,0.035 -0.01,0.047c0.071,0.017 0.146,0.017 0.212,0.063c0.233,0.168 0.264,0.462 0.285,0.703l0.048,0.275l0.122,0.095l0.038,0.184l-0.019,0.607c-0.028,1.072 -0.082,2.156 -0.702,2.736c0.066,0.238 0.123,0.485 0.123,0.74c0,0.377 -0.069,0.763 -0.211,1.077c-0.185,0.452 -0.482,0.761 -0.853,0.905l-0.336,0.129c0,0 -0.028,-0.226 -0.043,-0.32c-0.021,0.017 -0.056,0.04 -0.056,0.04c-0.193,0.13 -0.422,0.292 -0.674,0.168c-0.238,-0.125 -0.266,-0.425 -0.271,-0.526l-0.009,-0.128l0.346,-0.386c0.37,-0.403 0.695,-0.765 0.695,-1.48c0,-0.092 -0.016,-0.211 -0.024,-0.322c-0.952,-0.378 -1.562,0.244 -2.172,0.923l-0.853,0.884l-0.168,-0.384c-0.608,-1.24 -0.615,-2.847 -0.014,-4.777l0.068,-0.216l0.224,0.012c0.182,0.014 0.304,-0.062 0.436,-0.147l0,-1.555l0.217,-0.059c0.168,-0.037 0.234,-0.2 0.349,-0.549c0.12,-0.374 0.316,-0.893 0.926,-0.954c0.016,-0.267 0.045,-0.61 0.045,-0.61c0,0 -0.033,-0.568 -0.048,-0.849c-0.711,-0.038 -1.222,0.092 -1.467,0.41c-0.154,0.18 -0.368,0.142 -0.542,0.113c0,-0.059 -0.279,0.38 -0.279,0.38l-0.16,0.257l-0.525,0.549l-0.208,0.205c0.015,-0.038 0.043,0.186 0.043,0.186l-0.012,0.511l-0.554,0.599c0.008,-0.007 -0.185,0.172 -0.204,0.195c0.035,0.069 0.082,0.134 0.082,0.187l0,0.054c-0.019,0.221 -0.203,0.341 -0.373,0.468l-0.24,0.199l0.24,0.41l-0.421,0.087c-0.288,0.03 -0.459,0.087 -0.571,0.153c0.133,0.13 0.239,0.282 0.311,0.421l0.251,0.495l-0.955,-0.103c0.014,0 0.014,0.365 0.014,0.365l-0.033,0.74l-0.325,0.381c-0.108,0.076 -0.149,0.102 -0.149,0.283l0,0.156c0,0.976 0.144,1.14 0.149,1.143c0.085,0.035 0.526,0.287 0.526,0.287c0.019,0.019 0.061,0.629 0.061,0.629c0,0 -0.009,0.074 -0.017,0.133c0.797,0.254 1.261,0.786 1.261,1.672l0,0.038c0.075,0.03 0.163,0.045 0.163,0.045c0.372,0.08 0.796,0.165 1.011,0.539l0.053,0.09l-0.014,0.103c-0.009,0.1 -0.009,0.177 -0.009,0.25c0,0.205 0.038,0.295 0.071,0.338c0,0 0.031,0.021 0.042,0.021c0.188,-0.265 0.455,-0.451 0.842,-0.443l0.876,0.056c1.23,0.08 2.281,0.161 3.131,-0.497l0.125,-0.106l0.081,0.047c0,0 0.098,0.036 0.184,0.071c-0.006,-0.026 -0.036,-0.047 -0.036,-0.071c0,-0.059 0.014,-0.113 0.042,-0.17c0.116,-0.219 0.371,-0.216 0.629,-0.177c-0.009,-0.021 -0.211,-0.822 -0.211,-0.822l0.158,-0.028c0.317,-0.269 0.509,-0.309 0.782,-0.151c0,0 0.065,0.017 0.103,0.028l0,-0.077c0,-0.333 0.038,-0.762 0.46,-0.872l0.457,-0.106l-0.101,0.459c-0.014,0.055 -0.022,0.092 -0.022,0.127c0,0.074 0.057,0.1 0.285,0.154c0.248,0.064 0.651,0.169 0.726,0.629l0.008,0.057l-0.022,0.061c-0.009,0.056 -0.021,0.099 -0.021,0.134c0,0.061 0.04,0.09 0.129,0.162c0.109,0.064 0.227,0.203 0.314,0.39c0.325,0.127 0.483,0.119 0.763,0.06l1.025,-0.162l0.017,0.379l0.012,0.156c0.059,0.078 0.33,0.097 0.521,0.108c0,0 0.231,0.062 0.456,0.128c0.205,-0.535 0.592,-0.642 0.924,-0.717l0.319,-0.113c0,-0.216 0.091,-0.466 0.251,-0.586c0,-0.007 0.486,-0.064 0.486,-0.064l0.122,0.007c0,-0.003 0.236,-0.181 0.236,-0.181c0.113,-0.154 0.273,-0.279 0.519,-0.319c-0.014,-0.224 -0.092,-0.384 -0.21,-0.574c0,0 -0.083,-0.189 -0.168,-0.364c-1.107,-0.037 -2.234,-0.066 -2.509,0.587l-0.076,0.175l-2.035,0l0.085,-0.366c0.018,-0.061 0.026,-0.129 0.026,-0.205c0,-0.403 -0.201,-0.924 -0.331,-1.293l-0.188,-0.775c0.049,-0.21 0.248,-0.253 0.394,-0.276l0.2,-0.059c-0.194,-0.142 -0.281,-0.276 -0.281,-0.432c0,-0.084 0.031,-0.181 0.09,-0.284c0,0 0.014,-0.076 0.026,-0.139c-0.122,-0.041 -0.252,-0.102 -0.34,-0.225c-0.077,-0.11 -0.112,-0.23 -0.112,-0.377c0,-0.063 0.013,-0.143 0.021,-0.219l0,-0.011c0,-0.304 0.24,-0.465 0.382,-0.568c0.099,-0.064 0.139,-0.09 0.139,-0.16c0,-0.028 -0.008,-0.067 -0.026,-0.125c-0.012,-0.092 -0.189,-0.795 -0.189,-0.795c-0.108,-0.308 -0.202,-0.581 -0.202,-0.815c0,-0.101 0.014,-0.191 0.056,-0.278c0,0 0.111,-0.092 0.198,-0.165c-0.049,-0.087 -0.101,-0.181 -0.101,-0.181c0,0 0.134,0.028 0.256,0.047c0.071,-0.066 0.21,-0.179 0.21,-0.179c0,0 0,0.127 -0.005,0.212c0.01,0 0.061,0.005 0.061,0.005l0.234,0c0.038,-0.389 0.115,-1.159 0.115,-1.159c0.071,-0.328 0.133,-0.646 0.133,-1.03c0,-0.094 -0.01,-0.2 -0.019,-0.304c-0.191,-0.038 -0.542,-0.116 -0.542,-0.116c-0.418,-0.064 -0.821,-0.2 -1.117,-0.471c-0.087,0.071 -0.194,0.118 -0.34,0.134Z" style="fill:#fff;fill-rule:nonzero;"/><path d="M114.794,11.381c-0.082,0.121 -0.212,0.215 -0.454,0.241c-0.031,0.101 -0.069,0.195 -0.069,0.195l-0.697,1.619l-0.177,-0.019l-0.69,0c-0.016,0.406 -0.168,0.679 -0.304,0.889c0,0 -0.059,0.115 -0.113,0.216c0.063,0.048 0.134,0.09 0.134,0.09l0.942,0.791l-0.233,0.178c-0.318,0.391 -0.325,0.935 -0.334,1.514l-0.106,1.151l-0.269,0.523l-0.214,0.443c0,0.011 -0.003,0.864 -0.003,0.864l0.003,0.893c-0.825,1.622 -1.004,3.839 -1.157,5.979c0,0 -0.043,0.445 -0.055,0.664c0.248,0.146 0.441,0.351 0.58,0.61c0.288,-0.009 0.511,-0.064 0.644,-0.189l0.542,-0.478l-0.057,0.733c-0.014,0.116 0.005,0.167 0.017,0.177c0,0 0.075,0.064 0.372,0.007c0,0 0.007,-0.082 0.151,-0.111l0,-0.007l0.207,-0.504l0.473,-0.137c-0.105,0.007 0.137,-0.177 0.137,-0.177c0.155,-0.157 0.379,-0.381 0.809,-0.369c0.075,-0.259 0.256,-0.401 0.386,-0.47c0.094,-0.047 0.137,-0.068 0.137,-0.132c0,-0.051 -0.022,-0.11 -0.053,-0.216l-0.317,-0.872c0,0 0.853,0.589 0.867,0.605c0,-0.007 -0.008,-0.007 -0.008,-0.007c0,-0.065 0.102,-0.27 0.102,-0.27c0.167,-0.361 0.466,-0.973 1.188,-0.898c0.204,-0.641 0.626,-1.089 1.338,-1.233c-0.089,0.038 -0.049,-0.217 -0.049,-0.217c0.028,-0.265 0.073,-0.751 0.567,-0.791l0,-0.003c0,-0.023 0.299,-0.271 0.299,-0.271c0.179,-0.225 0.411,-0.522 0.913,-0.522l0,-1.21l0.329,-0.011l0.285,-0.007l0.071,-0.253l0.069,-0.327l0.772,-0.836l0.276,-0.255c-0.005,0.005 0.33,-0.301 0.33,-0.301c0.309,-0.253 0.413,-0.356 0.337,-0.682l-0.233,-0.942l0.728,0.664c0.08,-0.172 0.249,-0.525 0.249,-0.525c0,0 0.208,-0.021 0.378,-0.045c0.011,-0.021 0.049,-0.247 0.049,-0.247c0.019,-0.26 0.068,-0.747 0.559,-0.792l0.369,-0.033l-0.065,0.379c-0.373,2.345 -0.729,4.902 -0.729,7.779l0,0.143l-0.111,0.083c-0.336,0.285 -0.395,0.973 -0.45,1.642c0,0 -0.108,0.688 -0.152,1.002c0.214,0.13 0.631,0.13 1.024,0.12c0,0 0.114,-0.003 0.215,-0.003c-0.024,-0.093 -0.111,-0.431 -0.111,-0.431l0.075,-0.24c0.104,-0.12 0.245,-0.11 0.443,-0.087c0.083,-0.499 0.097,-1.117 0.106,-1.801l0.109,-2.238l0.125,-0.608c0.113,-0.507 0.25,-1.076 0.12,-1.541l-0.057,-0.252l0.217,-0.104c0.245,-0.11 0.245,-0.224 0.137,-0.589l-0.029,-0.513c0.078,-0.243 0.345,-0.205 0.526,-0.18l0.028,0c0.008,-0.056 0.019,-0.099 0.019,-0.186c0,-0.278 -0.047,-0.662 -0.068,-0.886l-0.036,-0.693l0.245,-1.404c0.142,-0.725 0.286,-1.418 0.286,-2.149c0,-0.151 -0.01,-0.311 -0.024,-0.464c-0.097,-0.009 -0.129,0.028 -0.188,0.139l-0.745,0.693l-0.052,-0.465c0,0 -0.035,-0.089 -0.077,-0.167c-0.02,0.017 -0.046,0.028 -0.046,0.028c-0.167,0.147 -0.437,0.361 -0.807,0.378c-0.055,0.647 -0.425,1.043 -0.663,1.249l-0.13,0.124c-0.397,0.465 -0.6,0.792 -0.668,1.36l-0.022,0.149l-0.169,0.094l-0.443,0.23c0,0 -0.245,0.121 -0.391,0.199c-0.137,0.523 -0.611,1.781 -1.19,1.84c-0.057,0.097 -0.109,0.21 -0.109,0.21c-0.205,0.152 -0.254,0.31 -0.32,0.516l-0.391,0.718c-0.154,0.154 -0.354,0.111 -0.507,0.087c-0.036,0.05 -0.379,0.53 -0.379,0.53c0,0 -0.137,-0.011 -0.248,-0.023c-0.037,0.664 -0.443,0.935 -0.697,1.082l-0.146,0.101l-0.311,0.386c-0.199,0.295 -0.47,0.653 -0.882,0.695c-0.026,0.371 -0.084,0.703 -0.254,0.91l-0.092,0.102l-0.12,0.006c-0.337,0.01 -0.604,0.262 -0.856,0.502l-0.474,0.521c-0.322,0.422 -1.019,0.721 -1.019,0.721l-0.039,0.269c-0.028,0.231 -0.058,0.534 -0.292,0.692c-0.158,0.113 -0.355,0.137 -0.61,0.059l-0.229,-0.063l0.201,-2.559l0.077,-1.421l0.182,-0.061c0.234,-0.081 0.325,-0.361 0.436,-0.809c0.113,-0.381 0.274,-0.775 0.598,-1.024c-0.016,-0.113 -0.025,-0.224 -0.025,-0.33c0,-0.462 0.082,-0.849 0.158,-1.217c0.079,-0.358 0.155,-0.687 0.155,-1.102c0,-0.151 -0.012,-0.314 -0.036,-0.499l-0.047,-0.307l0.311,-0.024c0.055,-0.009 0.081,-0.047 0.125,-0.376c0.041,-0.265 0.088,-0.589 0.337,-0.773c0,0 0.128,-0.026 0.248,-0.048c0,-0.681 0.143,-1.229 0.282,-1.75c0.123,-0.523 0.257,-1.013 0.257,-1.645c0,-0.149 -0.011,-0.327 -0.028,-0.502c-0.2,-0.101 -0.335,-0.301 -0.408,-0.598c-0.341,0.016 -0.546,-0.095 -0.7,-0.196c-0.139,-0.076 -0.24,-0.13 -0.417,-0.097Z" style="fill:#fff;fill-rule:nonzero;"/><path d="M207.574,8.959c-0.142,0.179 -0.306,0.384 -0.573,0.354c-0.066,0 -0.115,-0.055 -0.174,-0.092c0.153,0.191 0.335,0.433 0.335,0.815l0,0.073l-0.019,0.295l-0.295,-0.019c-0.222,-0.017 -0.28,0.054 -0.403,0.475l-0.374,0.721l-0.469,-0.296c0.065,-0.259 0.03,-0.379 0,-0.399c-0.014,-0.019 -0.057,-0.032 -0.142,-0.032c0,0.037 0.014,0.084 0.014,0.117c0,0.392 -0.097,0.698 -0.169,0.969c-0.078,0.254 -0.144,0.487 -0.144,0.78c0,0.11 0.011,0.219 0.026,0.346l0.016,0.108l-0.042,0.09c-0.128,0.231 -0.399,0.268 -0.615,0.292c0,0 -0.139,0.026 -0.172,0.031c0.042,0.021 0.052,0.224 0.052,0.224c0.018,0.104 0.032,0.217 0.032,0.329c0,0.187 -0.037,0.359 -0.186,0.489c-0.089,0.073 -0.198,0.096 -0.306,0.096l0,2.486l-0.299,-0.01c-0.163,-0.002 -0.266,0.069 -0.368,0.125c0.019,0.088 0.083,0.193 0.083,0.257c0,0.288 -0.167,0.462 -0.273,0.577l-0.086,0.099c0,-0.006 0.142,0.22 0.142,0.22l0.262,0.45l-0.488,0.038c-0.311,0 -0.703,0.436 -0.811,0.775c0.151,0.018 0.309,0.117 0.358,0.386l0.024,0.118l-0.142,0.184l-0.218,0.362c-0.055,0.128 -0.126,0.269 -0.222,0.39c0.182,0.186 0.316,0.419 0.316,0.739l-0.008,0.205l-0.193,0.116c-0.308,0.195 -0.471,0.344 -0.657,0.624c0.071,0.095 0.122,0.214 0.122,0.335c0,0.018 0,0.035 -0.004,0.057c-0.01,0.047 -0.377,0.338 -0.377,0.338c0,0 -0.092,0.036 -0.156,0.067c-0.026,0.12 -0.205,0.987 -0.205,0.987c0,0 -0.15,0.646 -0.221,0.964c0.143,0.094 0.28,0.181 0.28,0.181l0.201,0.151c0.685,0.184 0.747,0.519 0.76,0.827c0.008,0.135 0.008,0.172 0.095,0.247c0,-0.009 0.308,-0.026 0.308,-0.026c0.257,-0.044 0.58,-0.089 0.769,0.158c0.065,0.087 0.08,0.182 0.084,0.292c0.173,-0.03 0.321,-0.086 0.47,-0.185c0.225,-0.154 0.487,-0.328 0.932,-0.323c0.102,-0.474 0.297,-0.938 0.785,-1.171c-0.023,-0.041 -0.049,-0.123 -0.049,-0.123c0,0 0.12,0.012 0.235,0.024c0.156,-0.052 0.556,-0.205 0.556,-0.205c0,0 -0.065,0.139 -0.122,0.252c0.342,0.033 0.462,-0.134 0.639,-0.42l0.473,-0.563c0.009,0 0.57,-0.287 0.57,-0.287c0.173,-0.071 0.264,-0.154 0.373,-0.238c-0.014,-0.04 -0.05,-0.127 -0.05,-0.127l0.132,-0.201c0.102,-0.111 0.299,-0.151 0.49,-0.177c-0.024,-0.094 -0.071,-0.205 -0.071,-0.29c0,-0.148 0.043,-0.273 0.149,-0.362c0.094,-0.087 0.212,-0.087 0.332,-0.073c-0.005,-0.014 -0.024,-0.074 -0.024,-0.074l0.449,-0.386c0.157,0.191 0.167,0.182 0.405,-0.017c0.124,-0.098 0.386,-0.258 0.68,-0.198c0.121,-0.35 0.284,-0.652 0.455,-0.937l0.422,-0.686c0,0 0.05,0.064 0.076,0.116c0.092,-0.274 0.223,-0.575 0.541,-0.709c0.121,-0.045 0.258,-0.039 0.406,-0.019c0.136,-0.792 0.791,-1.534 1.399,-1.687c0.017,-0.006 0.027,0 0.04,-0.006c0,-0.033 -0.03,-0.04 -0.03,-0.08c0,-0.049 0.007,-0.112 0.016,-0.172l0.033,-0.249l0.163,0.011l0.754,-0.006c0.097,0.011 0.248,0.028 0.368,0.028c-0.017,-0.052 -0.036,-0.104 -0.036,-0.158c0,-0.168 0.099,-0.34 0.189,-0.525c-0.165,0.018 -0.318,0.027 -0.459,-0.048c-0.218,-0.12 -0.328,-0.346 -0.272,-0.582c0.064,-0.455 0.502,-0.506 0.844,-0.497c0.309,-0.855 1.041,-1.239 1.656,-1.444c0.062,-0.165 0.123,-0.323 0.123,-0.437c0,-0.212 -0.123,-0.365 -0.351,-0.657l-0.234,-0.289l0.453,-0.198l0.132,-0.069l1.075,-0.295l-0.17,0.427l-0.099,0.7c-0.024,0.13 -0.031,0.222 -0.043,0.325c0.163,-0.03 0.693,-0.12 0.693,-0.12l-0.066,0.306c0.015,0.078 0.019,0.151 0.019,0.219c0,0.443 -0.177,0.748 -0.292,0.966l-0.109,0.222c0.012,-0.009 0.22,0.123 0.22,0.123l0.266,0.185l-0.217,0.328l-0.426,0.561c0,0 -0.107,0.16 -0.18,0.274c0.041,0.119 0.104,0.233 0.104,0.357c0,0.359 -0.146,0.754 -0.301,1.153c-0.166,0.454 -0.337,0.917 -0.337,1.381c0,0.101 0.005,0.183 0.018,0.278l0.04,0.184l-0.275,0.158l-0.236,0.171c0,0 -0.122,0.088 -0.238,0.168c0.022,0.092 0.306,1.234 0.306,1.234l-0.337,-0.058c-0.19,0.025 -0.232,0.028 -0.212,0.475l-0.03,0.556l-0.267,0.43l-0.225,0.353c0,0.064 -0.149,1.955 -0.149,1.955c0,0 -0.068,1.285 -0.085,1.593c0.123,0.095 0.227,0.243 0.241,0.521c0.044,0.007 0.218,0.045 0.218,0.045c0.257,0.023 0.719,0.073 0.76,0.566c0,-0.014 0.042,0.277 0.042,0.277l0,1.084c0.066,-0.03 0.16,-0.03 0.196,-0.079c0.124,-0.144 0.183,-0.373 0.183,-0.686c0,-0.09 -0.004,-0.187 -0.007,-0.285l-0.044,-0.434l0.404,0.111c0.177,0.052 0.184,0.042 0.276,-0.109c0.066,-0.094 0.184,-0.212 0.335,-0.299c-0.021,-0.184 -0.031,-0.374 -0.031,-0.556c0,-0.95 0.186,-1.845 0.352,-2.655c0.141,-0.7 0.284,-1.386 0.284,-2.013c0,-0.28 -0.019,-0.559 -0.091,-0.813l-0.061,-0.21l0.176,-0.117c0.573,-0.377 0.763,-1.2 0.964,-2.071c0.163,-0.663 0.325,-1.355 0.674,-1.883c-0.165,-0.271 -0.292,-0.577 -0.292,-0.809c0,-0.03 0,-0.051 0.002,-0.078c-0.002,0.039 0.245,-0.334 0.245,-0.334l0.28,-0.281l0,-0.009c0,-0.071 0.118,-0.775 0.118,-0.775l0.116,-0.688l0.071,-0.201c0.449,-1.22 0.749,-2.042 0.409,-3.138l-0.051,-0.181l0.132,-0.125c0.172,-0.163 0.169,-0.667 0.158,-1.117l-0.008,-0.432c-0.026,0.001 -0.325,-0.252 -0.532,-0.261c0.037,0.075 0.089,0.141 0.096,0.229l0,0.039c0,0.274 -0.184,0.489 -0.447,0.538l-0.226,0.042l-0.113,-0.261l-0.092,-0.22c-0.079,-0.138 -0.158,-0.325 -0.168,-0.588c-0.612,-0.003 -1.124,0.214 -1.225,0.414c-0.014,0.021 -0.035,0.054 0.033,0.13l0.393,0.507l-0.633,-0.019c-0.323,-0.014 -0.529,0.059 -0.679,0.151l0,0.798l-0.231,0.05c-0.276,0.071 -0.434,0.268 -0.629,0.521c-0.194,0.252 -0.465,0.511 -0.863,0.64l0,1.058l-0.325,0.062c0,0 -0.504,0.132 -0.662,0.176l0,1.136c0,0 -0.679,-0.108 -0.704,-0.115c0.016,0.011 0.021,0.073 0.021,0.111l0,0.035l-0.099,0.532l-0.57,0.281l-0.133,0.037c0.015,0.071 0.027,0.149 0.027,0.227c0,0.091 -0.02,0.184 -0.099,0.266c-0.106,0.11 -0.239,0.115 -0.375,0.104c0.002,0.011 0,0.011 0.007,0.032c0.045,0.073 0.111,0.191 0.111,0.316c0,0.047 -0.007,0.101 -0.04,0.149c-0.078,0.195 -0.285,0.228 -0.354,0.247c-0.061,0.002 -0.626,-0.115 -0.626,-0.115c0,0 -0.074,-0.031 -0.099,-0.038l0,0.003c0.014,0.025 0.058,0.035 0.063,0.046c0.023,0.048 0.026,0.099 0.026,0.14c0,0.16 -0.101,0.297 -0.198,0.423c-0.075,0.095 -0.198,0.258 -0.198,0.345l0,0.018l0.823,0.82l-0.875,-0.132c-0.799,-0.143 -0.968,0.248 -1.216,0.839c0,0 -0.527,0.893 -0.53,0.901c0.014,0.032 0.055,0.051 0.055,0.089c0,0.026 0,0.059 -0.003,0.087c-0.052,0.22 -0.257,0.302 -0.351,0.333c-0.012,0.019 -0.052,0.103 -0.052,0.103c0,0 -0.004,-0.057 -0.009,-0.07c-0.033,0.004 -0.054,0.013 -0.054,0.013l-0.083,-0.03c-0.245,-0.071 -0.313,-0.023 -0.445,0.078c0,0 -0.292,0.068 -0.516,0.118c-0.462,0.695 -1.032,1.46 -1.727,2.031c-0.158,0.122 -0.347,0.08 -0.488,0.052l0,0.065c0,0.109 -0.05,0.314 -0.333,0.425c0,0 -0.355,0.016 -0.459,0.016c0.037,0.101 0.044,0.207 0.103,0.295l0.375,0.561l-0.652,-0.095c-0.481,-0.073 -0.556,0.036 -0.693,0.288l-0.306,0.401l-0.66,0.398l-1.145,0.699l0.106,-0.634c0.068,-0.355 0.007,-0.511 -0.09,-0.732l-0.261,-1.1l0.419,0.084c0,0 0.054,0.005 0.118,0.005c-0.017,-0.047 -0.043,-0.095 -0.043,-0.095l-0.139,-0.709l0,-0.014c0,-0.103 0.125,-0.165 0.34,-0.263l0.245,-0.121c0.12,-0.13 0.146,-0.401 0.146,-0.692c0,-0.142 -0.007,-0.286 -0.008,-0.43l0,-0.985l0.285,0.026l0.641,0c-0.011,-0.108 -0.051,-0.216 -0.051,-0.317c0,-0.587 0.263,-1.035 0.527,-1.476c0.288,-0.481 0.576,-0.966 0.576,-1.689c0,-0.075 -0.007,-0.154 -0.007,-0.234l-0.031,-0.334l0.502,0.021c-0.007,-0.026 -0.008,-0.073 -0.008,-0.116c0,-0.171 0.039,-0.443 0.039,-0.443l0.287,-0.334c0,0 0.191,-0.172 0.203,-0.188c-0.027,-0.008 -0.149,-0.384 -0.149,-0.384l-0.308,-0.54l0.47,-0.028c0.111,-0.008 0.147,-0.054 0.248,-0.316c0.08,-0.226 0.264,-0.558 0.669,-0.648c-0.025,-0.156 -0.08,-0.311 -0.08,-0.465c0,-0.735 0.398,-1.376 1.084,-1.903c-0.04,-0.142 -0.092,-0.29 -0.092,-0.429c0,-0.236 0.035,-0.455 0.076,-0.669l0.047,-0.749c-0.005,0.011 -0.227,-0.201 -0.227,-0.201c-0.181,-0.144 -0.355,-0.309 -0.402,-0.549c-0.126,0.061 -0.236,0.155 -0.356,0.304Z" style="fill:#fff;fill-rule:nonzero;"/><path d="M247.047,7.317l-0.042,-0.024c-0.028,0.118 -0.038,0.248 -0.144,0.332c-0.07,0.052 -0.132,0.041 -0.195,0.068c0.014,0.006 0.018,0.019 0.018,0.019l0.017,0.076c0,0.035 0.007,0.052 0.007,0.08c0,0.184 -0.089,0.316 -0.24,0.391c-0.208,0.101 -0.384,0.028 -0.556,-0.05c-0.022,0.027 -0.378,0.599 -0.378,0.599c0,0 -0.066,0.009 -0.108,0.014c0,0.036 -0.007,0.083 -0.007,0.113c0,0.299 0.085,0.531 0.266,0.712l0.418,0.44l-0.757,0.045l-0.214,0.014c-0.102,0.059 -0.13,0.298 -0.151,0.483c-0.043,0.316 -0.092,0.672 -0.426,0.884c0,0 -0.199,0.033 -0.396,0.068c-0.017,0.085 -0.038,0.18 -0.038,0.251c0,0.299 0.141,0.48 0.299,0.692l0.636,1.292l-0.648,-0.158c-0.362,-0.038 -0.629,-0.015 -0.739,0.089c-0.083,0.064 -0.114,0.186 -0.114,0.342c0,0.011 0.005,0.038 0.005,0.054c0.071,-0.003 0.153,-0.038 0.311,-0.127c0.155,-0.094 0.377,-0.217 0.636,-0.118c0.278,0.094 0.302,0.354 0.323,0.45l0.036,0.314l-0.392,0.018c-0.155,0.005 -0.212,0.057 -0.315,0.457c0,0 -0.074,0.151 -0.159,0.288c0.229,0.056 0.498,0.143 0.509,0.457l0.031,0.382l-0.344,-0.076l-0.883,-0.157c0,0 -0.071,-0.022 -0.12,-0.029l0,0.036c0,0.242 0.145,0.339 0.369,0.496l0.337,0.246l-0.007,0.124l0,1.813l-0.554,0c0.019,0.091 0.066,0.216 0.066,0.294c0,0.207 -0.063,0.354 -0.099,0.472c0.116,0.04 0.25,0.105 0.298,0.242l0.066,0.148l-0.163,0.238c-0.102,0.111 -0.248,0.135 -0.441,0.126l0.012,0.049l0.252,0.513l-0.16,0.092l-0.215,0.335c0,0.009 -0.009,0.354 -0.009,0.354c0,0.072 0.009,0.151 0.009,0.228c0,0.222 -0.054,0.464 -0.16,0.697c0.226,0.053 0.455,0.14 0.464,0.446c0.08,0.141 0.104,0.264 0.104,0.372c0,0.236 -0.143,0.375 -0.297,0.476c0.019,0.019 0.064,0 0.087,0.028c0.041,0.066 0.067,0.125 0.067,0.185c0,0.02 -0.026,0.037 -0.026,0.06c0.313,0.074 0.586,0.338 0.678,0.561l0.125,0.307l-0.384,0.077c-0.486,0.107 -1.124,0.397 -1.246,1.594c0.08,0.063 0.117,0.171 0.178,0.285c0.125,-0.019 0.533,-0.104 0.533,-0.104l0.297,0.327c0,0 0.04,0.069 0.083,0.13c0.155,0.049 0.357,0.125 0.515,0.222c0.028,-0.005 0.361,-0.081 0.361,-0.081l0.897,-0.223l0.165,0.153l0.326,0.139c0,0 1.117,0.169 1.14,0.176c-0.037,-0.169 -0.101,-0.327 -0.228,-0.48l-0.507,-0.849l0.347,-0.077c0.235,-0.095 0.294,-0.203 0.313,-0.273c0.012,-0.034 0.017,-0.076 0.017,-0.116c0,-0.327 -0.335,-0.773 -0.469,-0.952l-0.231,-0.299l0.735,-0.245c-0.097,-0.005 -0.241,-0.67 -0.241,-0.67l0.201,-0.29c0,0 0.044,-0.061 0.08,-0.115c-0.186,-0.219 -0.281,-0.492 -0.281,-0.53c-0.052,-0.195 -0.068,-0.368 -0.068,-0.537c0,-0.384 0.09,-0.674 0.163,-0.919c0.059,-0.189 0.094,-0.337 0.094,-0.486c0,-0.15 -0.035,-0.29 -0.158,-0.473l-0.471,-0.716l1.239,0.397c0.066,0.029 0.101,0.003 0.148,-0.013l-0.162,-0.081c-0.2,-0.084 -0.584,-0.224 -0.584,-0.638c0,-0.123 0.044,-0.281 0.127,-0.457l0.077,-0.163l1.07,-0.123c0.297,-0.054 0.582,-0.047 0.887,-0.009c-0.008,-0.075 -0.064,-0.188 -0.064,-0.243c0,-0.131 0.056,-0.217 0.191,-0.282c0.29,-0.12 0.494,0.065 0.624,0.171c0,0 0.104,0.083 0.207,0.151c0.09,-0.181 0.206,-0.356 0.206,-0.356c0.054,-0.037 0.636,-0.094 0.636,-0.094c0.089,0.033 0.322,-0.141 0.322,-0.141c0.192,-0.175 0.526,-0.429 0.976,-0.466c-0.031,-0.081 -0.07,-0.206 -0.07,-0.206l0.464,-0.372c0,0 0.04,0.023 0.049,0.029c-0.068,-0.092 -0.146,-0.211 -0.226,-0.382l-0.968,-0.142c-0.305,-0.004 -0.489,0.092 -0.719,0.205l-0.557,0.29l-0.011,-0.535l0,-0.117c-0.22,0.084 -0.396,0.202 -0.587,0.424c-0.231,0.263 -0.584,0.506 -1.093,0.633c0,0.019 0.011,0.029 0.011,0.041c0,0.139 -0.066,0.277 -0.186,0.39c-0.275,0.241 -0.848,0.312 -1.225,0.161c-0.231,-0.097 -0.358,-0.271 -0.358,-0.467c0,-0.038 0.005,-0.08 0.016,-0.118l0.064,-0.238l0.486,0c-0.026,-0.151 -0.1,-0.323 -0.1,-0.464c0,-0.271 0.062,-0.499 0.1,-0.704l0.066,-0.53l-0.05,-0.229c-0.036,-0.186 -0.076,-0.389 -0.076,-0.584c0,-0.233 0.06,-0.462 0.278,-0.616c0.121,-0.099 0.297,-0.134 0.491,-0.152c-0.028,-0.227 -0.189,-0.366 -0.389,-0.503l-0.38,-0.508l0.229,-0.42c0.306,-0.24 0.382,-0.344 0.382,-0.44c0,-0.045 -0.014,-0.086 -0.043,-0.132l-0.131,-0.778l0.228,-0.295c0,0 0.024,-0.049 0.047,-0.089c-0.122,-0.09 -0.28,-0.233 -0.28,-0.505c0,-0.039 0.002,-0.073 0.005,-0.106l0.025,-0.235l0.045,0c-0.038,-0.116 -0.07,-0.283 -0.07,-0.283l0.275,-0.318c0.002,-0.012 0.014,-0.031 0.014,-0.042c0,-0.102 -0.087,-0.224 -0.087,-0.224l-0.361,-0.545l0.361,-0.103c0.201,-0.078 0.309,-0.309 0.431,-0.563c0,0 0.083,-0.151 0.182,-0.292c-0.125,0.077 -0.267,0.15 -0.45,0.087c-0.156,-0.052 -0.227,-0.139 -0.279,-0.233c-0.054,0.018 -0.563,0.266 -0.563,0.266Zm4.963,7.733c-0.262,0.087 -0.596,0.177 -1.034,0.16c0,0.067 0.046,0.094 0.185,0.147c0,0 1.087,0.949 1.108,0.968c-0.021,-0.038 0.052,-0.089 0.031,-0.141c-0.186,-0.163 -0.465,-0.191 -0.465,-0.384c0,-0.083 0.026,-0.18 0.088,-0.278l0.108,-0.198l0.269,0.023c0.111,0.007 0.177,-0.005 0.191,-0.023c0,0 0.051,-0.036 0.051,-0.179c0,-0.031 -0.011,-0.064 -0.011,-0.095c-0.132,-0.08 -0.231,-0.085 -0.521,0Z" style="fill:#fff;fill-rule:nonzero;"/><path d="M255.961,6.579c-0.006,0.045 -0.033,0.085 -0.033,0.135c0,0.124 0.033,0.261 0.062,0.412l0.066,0.728l-0.302,0.97l-0.313,1.045l0,0.768c0.005,0.188 0.018,0.365 0.018,0.53c0,0.454 -0.072,0.813 -0.403,0.978c-0.035,0.019 -0.103,0.026 -0.155,0.035c0.026,0.031 0.017,0.047 0.064,0.071c0.193,0.108 0.497,0.283 0.497,0.672c0,0.084 -0.009,0.171 -0.031,0.263l-0.028,0.073l-0.375,0.344c-0.287,0.238 -0.516,0.424 -0.53,0.783l0.113,0.544c0.05,0.208 0.102,0.412 0.102,0.61c0,0.187 -0.052,0.365 -0.189,0.524c-0.127,0.143 -0.396,0.183 -0.636,0.242c0.038,0.332 0.136,1.244 0.136,1.244l0.194,1.391l-0.46,0.023c-0.177,-0.023 -0.205,0.005 -0.325,0.16c0,0 -0.085,0.078 -0.179,0.149c0.08,0.214 0.141,0.435 0.141,0.742c0,0.401 -0.047,0.863 -0.089,1.392c-0.054,0.568 -0.113,1.209 -0.113,1.818c0,0.923 0.134,1.802 0.615,2.344l0.059,0.073l0,1.522l0.021,-0.009c1.52,-0.168 3.085,-0.361 4.515,-0.644c-0.068,-0.817 -0.267,-1.583 -0.483,-2.316l-0.417,-1.704l0.176,-0.852c0,0 0.052,-0.168 0.092,-0.304c-0.085,-0.036 -0.177,-0.078 -0.177,-0.078l-0.151,-0.693c0,0 0.132,0.01 0.267,0.014c-0.052,-0.078 -0.104,-0.137 -0.177,-0.282c-0.153,-0.104 -0.415,-0.317 -0.415,-0.634c0,-0.106 0.033,-0.224 0.109,-0.358c0.007,-0.01 0.313,-0.385 0.313,-0.385c0.191,-0.197 0.335,-0.349 0.335,-0.629c0,-0.08 -0.012,-0.188 -0.054,-0.311l-0.153,-0.551l0.97,0.309c0.033,0.016 0.052,0.009 0.087,0c-0.014,-0.027 -0.023,-0.046 -0.122,-0.092l-0.457,-0.399l-0.17,-0.492l-0.533,-0.606l0.383,-0.292l-0.029,0.009l0.029,-0.751l0.358,-0.026l0.631,0c0.045,-0.224 0.118,-0.613 0.118,-0.613l0.212,-1.3c0,0 0.242,0.134 0.255,0.146c0.028,-0.135 0.098,-0.257 0.171,-0.365c0.125,-0.144 0.187,-0.243 0.196,-0.331c-0.222,-0.025 -0.705,-0.085 -0.705,-0.515l0,-0.321c0,0 0.467,0.028 0.483,0.028c-0.072,-0.13 -0.185,-0.327 -0.185,-0.327l-0.615,-1.344c0,0 0.167,0.092 0.317,0.165l0.026,-0.143l0.45,-0.24c0.351,-0.192 0.542,-0.361 0.66,-0.587c-0.327,-0.01 -0.77,-0.073 -0.811,-0.484l-0.044,-0.28c0,0 0.917,-0.125 0.945,-0.125c-0.055,-0.011 -0.118,-0.334 -0.118,-0.334c0,0 -0.064,-0.292 -0.115,-0.514c-0.411,-0.054 -0.615,-0.271 -0.728,-0.471c-0.057,0.012 -0.279,0.111 -0.279,0.111c-0.24,0.073 -0.681,0.049 -0.93,-0.199c-0.069,-0.066 -0.127,-0.176 -0.142,-0.315c-0.056,0.026 -0.137,0.026 -0.202,0.061c-0.259,0.163 -0.59,0.354 -1.183,0.311l-0.361,-0.028l0.026,-0.29c0.007,-0.097 -0.009,-0.153 -0.026,-0.167c-0.014,-0.007 -0.075,-0.038 -0.269,-0.038Z" style="fill:#fff;fill-rule:nonzero;"/><path d="M266.247,6.579c-0.096,0.108 -0.139,0.259 -0.139,0.426c0,0.199 0.071,0.427 0.215,0.688l0.186,0.337l-0.448,0.081c-0.283,0.044 -0.37,0.231 -0.37,0.629c0,0.129 0.007,0.28 0.021,0.462l0.016,0.667l-0.322,1.031c-0.134,0.344 -0.271,0.721 -0.271,0.965c0,0.115 0.026,0.2 0.106,0.242l0.565,0.28l-0.594,0.241c-0.195,0.078 -0.365,0.21 -0.365,0.54c0,0.198 0.064,0.473 0.227,0.859l0.11,0.227l-0.346,0.162l-0.366,0.172c-0.03,0.05 -0.035,0.104 -0.035,0.175c0,0.172 0.074,0.414 0.163,0.631l0.195,0.752l-0.191,0.712l-0.122,0.751l0.109,0.189l0.306,0.954l-0.399,-0.043c-0.075,0.013 -0.301,0.05 -0.364,0.41c-0.013,0.066 -0.013,0.135 -0.013,0.203c0,0.497 0.293,1.021 0.479,1.108l0.725,0.313l-0.774,0.226c-0.656,0.194 -0.866,0.451 -0.866,0.851c0,0.254 0.074,0.554 0.187,0.933c0.122,0.41 0.261,0.849 0.261,1.296c0,0.231 -0.129,0.471 -0.209,0.709c0.433,0.074 0.893,0.196 1.14,0.594l0.165,0.273l-0.53,0.21c0.028,0.012 0.183,0.142 0.45,0.337l0.629,0.464l-0.613,0.146c-0.216,0.054 -0.343,0.147 -0.358,0.373c0.238,0.29 0.688,0.445 1.181,0.61c0.509,0.158 1.003,0.363 1.371,0.702c0.307,-0.016 1.298,-0.064 1.298,-0.064c0.453,0.013 0.78,-0.013 1.158,-0.209l0,-0.024c0,-0.122 0.059,-0.282 0.339,-0.41l0.216,-0.106l0.321,0.248l0.003,0.011c0.013,-0.127 0.049,-0.284 0.226,-0.388c0.082,-0.048 0.242,-0.106 0.468,-0.054l0.154,0.035l0.071,0.118c0.106,0.162 0.126,0.2 0.687,0.011c0.219,-0.075 0.479,-0.129 0.747,-0.164c-0.007,-0.017 -0.018,-0.052 -0.018,-0.052c-0.057,-0.107 -0.109,-0.21 -0.109,-0.326c0,-0.072 0.024,-0.141 0.082,-0.216c0.052,-0.059 0.192,-0.104 0.363,-0.135c-0.061,-0.11 -0.158,-0.219 -0.158,-0.325c0,-0.044 0.01,-0.092 0.024,-0.139c0.045,-0.101 0.147,-0.236 0.425,-0.313c0.066,-0.017 0.108,-0.017 0.15,-0.022c0,-0.018 -0.014,-0.037 -0.014,-0.046c0,-0.349 0.222,-0.604 0.398,-0.794l0.189,-0.238l0.671,0.238c0.01,-0.003 0.01,-0.017 0.01,-0.031c0,-0.045 -0.012,-0.111 -0.092,-0.172l-0.248,-0.068l0.279,-0.185c0.013,-0.037 0.016,-0.089 0.016,-0.139c0,-0.219 -0.142,-0.43 -0.295,-0.633l-0.129,-0.177l0.226,-0.222l0.547,-0.567c0,0 0.018,-0.019 0.018,-0.024c-0.31,-0.103 -0.574,-0.275 -0.701,-0.589l-0.142,-0.38l0.488,-0.009c0.438,-0.014 0.94,-0.028 1.115,-0.177c0,0 0,-0.011 0.007,-0.019c-0.477,-0.025 -0.92,-0.079 -1.214,-0.334l-0.679,-1.789c0,0 0.382,0.323 0.684,0.59c-0.076,-0.116 -0.446,-0.681 -0.446,-0.681l0.858,0.386c0,0 0.144,0.054 0.28,0.104c0.109,-0.328 0.347,-0.549 0.554,-0.679c0.118,-0.068 0.111,-0.123 0.158,-0.181c-0.208,-0.061 -0.431,-0.156 -0.431,-0.457l0.229,-0.483l0.08,-0.215c-0.005,0.016 -0.352,-0.141 -0.352,-0.141l-0.428,-0.186c-0.17,-0.088 -0.177,-0.206 -0.186,-0.314c-0.145,0.085 -0.288,0.17 -0.288,0.17l-0.862,-0.21l0.247,-0.144c0,0 0.078,-0.162 0.146,-0.306c-0.061,0.024 -0.129,0.024 -0.193,0.056l-0.002,0c-0.055,0.144 -0.191,0.276 -0.467,0.3l-0.055,0.009l-2.881,-0.41l-1.424,-0.118l-0.063,-0.122l-0.181,-0.323c-0.113,-0.219 -0.179,-0.304 -0.351,-0.318c0.054,0.167 0.129,0.278 0.228,0.382c0.16,0.164 0.301,0.329 0.301,0.561c0,0.11 -0.117,0.27 -0.178,0.41c0.098,0 0.204,0.006 0.204,0.006l0.849,0.173c0.031,0.016 0.09,0.372 0.103,0.454c0.1,0 0.212,0.003 0.212,0.003c0.297,-0.017 0.976,-0.061 1.054,0.485c0,0 0.024,0.177 0.038,0.215c0.118,0.087 0.228,0.174 0.228,0.174c0.019,0.019 0.049,0.582 0.049,0.582c0,0 -0.023,0.198 -0.023,0.209c0.014,0.003 0.122,0.066 0.122,0.066l0.503,0.441c0.002,0.01 0.287,1.124 0.287,1.124l0.035,0.198c0.142,0.66 0.191,1.133 0.191,1.48c0,0.632 -0.174,0.796 -0.313,0.848c0.007,0.05 0.052,0.108 0.052,0.149c0,0.32 -0.151,0.568 -0.262,0.766c-0.092,0.153 -0.153,0.268 -0.153,0.386c0,0.085 0.035,0.182 0.132,0.297l0.328,0.44l-0.621,0.02c-0.648,0.025 -0.706,0.15 -0.814,0.395c-0.13,0.288 -0.319,0.717 -1.332,0.865l-0.537,0.066l0.118,-0.431c0.164,-0.599 -0.09,-1.131 -0.333,-1.659l-0.296,-0.735c0,0.004 0.193,-0.563 0.193,-0.563l0.117,-0.239c-0.026,-0.36 -0.2,-0.463 -0.6,-0.706l-0.533,-0.354l0.241,-0.516c0,0 0.207,0.054 0.362,0.099c-0.045,-0.071 -0.045,-0.162 -0.103,-0.222c-0.13,-0.148 -0.226,-0.336 -0.278,-0.541c-0.092,0.033 -0.172,0.075 -0.276,0.058c-0.346,-0.037 -0.526,-0.287 -0.651,-0.483l-0.278,-0.456l0.629,0.03c0.284,0.021 0.347,-0.061 0.535,-0.386c0,0 0.074,-0.095 0.128,-0.156c-0.203,-0.031 -0.415,-0.047 -0.622,-0.024c-0.377,0.024 -0.832,0.06 -1.014,-0.28l-0.164,-0.276l0.721,-0.238c0.433,-0.132 0.836,-0.259 1.018,-0.511c0,0 0.332,-0.481 0.435,-0.634c-0.492,-0.282 -0.89,-0.712 -0.996,-1.402c-0.024,-0.13 -0.028,-0.266 -0.028,-0.408c0,-0.787 0.35,-1.56 1.121,-1.734l0.311,-0.073c0,0 0.042,0.132 0.092,0.234c0.033,-0.33 0.076,-0.663 0.076,-0.993c0,-0.798 -0.177,-1.536 -0.543,-2.184c-0.04,0.007 -0.065,0.036 -0.101,0.04c-0.36,0.017 -0.653,-0.165 -0.721,-0.467l-0.063,-0.216l0.331,-0.132l0.453,-0.184c0.198,-0.108 0.467,-0.242 0.763,-0.243c-0.039,-0.052 -0.044,-0.115 -0.115,-0.181c0,0 -0.163,-0.193 -0.285,-0.353c-0.038,0.08 -0.094,0.174 -0.189,0.23l-0.143,0.08l-0.637,-0.113c-0.502,-0.082 -1.058,-0.164 -1.328,-0.567l-0.33,-0.472l0.673,0.036c0.384,0.011 0.635,-0.055 0.827,-0.153c-0.032,-0.206 -0.192,-0.311 -0.556,-0.453c-0.362,-0.149 -0.826,-0.334 -0.958,-0.796l-0.125,-0.408l0.516,0.045c0.443,0.031 0.836,0.289 1.218,0.539c0.097,0.066 0.219,0.14 0.334,0.212c0.078,-0.108 0.196,-0.2 0.314,-0.268c0,0 0.052,-0.04 0.099,-0.071c-0.207,-0.123 -0.37,-0.269 -0.384,-0.457l0,-0.021c0,-0.163 0.125,-0.359 0.471,-0.441l0.198,-0.037l0,0.037l0.563,0.424c0.068,0.118 0.12,0.156 0.221,0.146c-0.009,-0.381 -0.205,-0.593 -0.452,-0.841c0,0 -0.167,-0.214 -0.308,-0.379c-1.539,0.019 -2.626,0.257 -2.986,0.716Zm2.873,11.893c0.113,-0.133 0.179,-0.255 0.202,-0.422c-0.101,-0.022 -0.212,-0.071 -0.302,-0.121c0.024,0.158 0.071,0.404 0.1,0.543Zm7.184,2.205c0.243,0.01 0.478,-0.002 0.645,-0.057c0.059,-0.023 0.033,-0.033 0.067,-0.051c-0.147,-0.062 -0.262,-0.139 -0.389,-0.226c-0.088,0.125 -0.203,0.235 -0.323,0.334Z" style="fill:#fff;fill-rule:nonzero;"/><path d="M232.257,2.175c-0.288,0.101 -0.625,0.2 -0.983,-0.012c-0.115,0.16 -0.189,0.394 -0.245,0.67c-0.102,0.45 -0.208,0.968 -0.657,1.208l-0.335,0.187l-0.139,-0.675l0.099,-0.132l-0.813,0.896c-0.448,0.387 -0.735,0.667 -0.735,1.013c0,0.108 0.028,0.217 0.087,0.337c0,0 -0.38,0.28 -0.434,0.316c-0.014,0.268 -0.031,0.617 -0.297,0.803c-0.054,0.04 -0.129,0.045 -0.205,0.062c0.038,0.342 0.139,0.626 0.269,0.918c0,0 0.102,0.25 0.149,0.366c0.025,-0.009 0.042,-0.021 0.058,-0.023c-0.005,-0.038 -0.16,-0.512 -0.16,-0.512l0.368,-0.075c0.315,0.012 0.525,-0.055 0.686,-0.158c-0.015,-0.01 -0.111,-0.069 -0.111,-0.069c-0.163,-0.084 -0.46,-0.24 -0.46,-0.645c0,-0.123 0.033,-0.271 0.097,-0.455l0.071,-0.191l0.204,0.005c0.655,0.011 1.11,-0.189 1.492,-0.653l0.134,-0.163l0.271,0.119l0.516,0.204c0,0 0.135,0.059 0.248,0.101l0,-0.006c0,-0.332 0.042,-0.754 0.462,-0.858l0.226,-0.061l0.106,0.216c0.106,0.229 0.32,0.352 0.493,0.519c0.056,-0.207 0.16,-0.392 0.438,-0.427l0.37,-0.054c0,0 -0.099,0.806 -0.099,0.813c0,-0.024 0.355,-0.024 0.355,-0.024l0.731,0.034l0.554,0.516l0.419,0.483l-0.16,0.283l-0.087,0.082l0.038,0.123c0.026,0.101 0.066,0.232 0.066,0.393c0,0.033 -0.029,0.075 -0.04,0.117c0.112,0 0.247,-0.014 0.247,-0.014l0.353,0.59c0,0 0.009,0.033 0.015,0.061c0.056,-0.033 0.105,-0.082 0.172,-0.089c0.273,-0.027 0.532,0.164 0.584,0.454l0.058,0.302l-0.301,0.052c-0.215,0.04 -0.353,0.178 -0.513,0.365l-0.795,0.773l0,-0.022c-0.071,0.293 -0.13,0.505 -0.16,0.613c0.063,0.587 0.264,1.011 0.606,1.265l-0.191,0.542l-0.769,-0.181c-0.167,-0.045 -0.414,-0.101 -0.614,-0.149c-0.021,0.154 -0.093,0.286 -0.165,0.387c0.009,-0.002 0.058,-0.019 0.058,-0.019c0.288,-0.117 0.625,-0.255 0.929,-0.117l0.893,1.052l-0.841,-0.218c-0.347,-0.053 -0.445,0.007 -0.474,0.039c-0.077,0.062 -0.057,0.326 -0.04,0.516c0.012,0.316 0.045,0.719 -0.275,0.913l-0.437,0.278l0,-0.604c-0.169,0.015 -0.323,0 -0.447,-0.063c-0.005,0.259 -0.264,0.346 -0.632,0.462c0,0 -0.165,0.054 -0.28,0.098c0.024,0.107 0.348,1.358 0.348,1.358l-0.558,-0.252l-0.349,-0.102c-0.091,0 -0.162,-0.032 -0.242,-0.054c0.061,0.066 0.134,0.137 0.198,0.189l0.996,1.013l-1.079,-0.28l-0.268,-0.066c0,0 0.004,0 0.004,0.006c0,0.033 -0.044,0.196 -0.044,0.196l-0.316,0.594l-1.028,0.083l0.248,-0.342c0,0 0.044,-0.097 0.08,-0.198c-0.514,0.299 -1.008,0.738 -1.028,1.011c0,0.007 -0.007,0.009 -0.007,0.019c0,0.035 0.021,0.098 0.153,0.183l-0.153,0.561c-0.15,-0.007 -0.216,0.057 -0.341,0.2l-0.471,0.302c0,0 -0.121,-0.063 -0.201,-0.113c-0.125,0.261 -0.368,0.403 -0.525,0.443c0,0 -0.047,0.023 -0.097,0.035c0.007,0.05 0.033,0.111 0.033,0.154c0,0.419 -0.28,0.593 -0.445,0.701c-0.114,0.073 -0.161,0.104 -0.161,0.191c0,0.055 0.014,0.12 0.043,0.215c0,0 0.076,0.25 0.149,0.486c0.016,0.004 0.047,0.047 0.047,0.047c-0.003,0.016 -0.003,0.026 -0.02,0.039c0.083,0.243 0.14,0.439 0.163,0.491c0.031,0.042 0.047,0.07 0.095,0.12c0.193,0.231 0.45,0.546 0.471,0.935c0.137,-0.193 0.353,-0.408 0.853,-0.299l0.063,0.028l0.05,0.036c0.252,0.205 0.36,0.205 0.622,-0.001l0.21,-0.167l0.179,0.2c0.282,0.302 0.337,0.752 0.337,1.252l0,0.097c0.023,-0.001 0.963,-0.255 0.963,-0.255l-0.025,0.231l0.27,0.787c0.093,0.363 0.18,0.714 0.378,0.865c0.03,-0.01 0.033,-0.045 0.075,-0.045c0.589,0.17 1.11,0.453 1.48,0.898c0.037,-0.01 0.052,-0.041 0.078,-0.052c0.19,-0.019 0.402,0.09 0.461,0.407l0.038,0.217l-0.104,0.036c0,0 -0.184,0.094 -0.336,0.172c0.139,0.037 0.282,0.082 0.372,0.242l0.117,0.13c0.038,-0.122 0.187,-0.25 0.382,-0.179c0.205,0.073 0.25,0.302 0.266,0.386l0.06,0.3c0,0 -0.184,0.03 -0.281,0.04l0,0.082l-0.045,0.516c0,0.003 -0.018,0.017 -0.026,0.028c0.134,0.064 0.262,0.165 0.382,0.271c0.134,0.132 0.313,0.312 0.431,0.305l0.954,-0.736l-0.259,0.862c-0.016,0.067 0.071,0.251 0.137,0.359c0.102,0.216 0.238,0.471 0.13,0.749c-0.074,0.16 -0.227,0.285 -0.46,0.349l-0.417,0.122l0.062,-0.504l0.027,-0.304c-0.025,-0.05 -0.204,-0.09 -0.318,-0.11c0,0 -0.059,-0.036 -0.082,-0.048c-0.024,0.219 -0.066,0.436 -0.122,0.596c0.044,0.007 0.08,0.015 0.132,0.057c0.087,0.061 0.117,0.141 0.117,0.224c0,0.117 -0.063,0.254 -0.127,0.377c-0.108,0.214 -0.108,0.282 -0.167,0.414c0.216,-0.035 0.408,-0.044 0.567,0.081c0.304,0.224 0.316,0.69 0.295,1.098l-0.024,0.408l-0.282,-0.132c0,0 -0.049,-0.013 -0.061,-0.019c0.025,0.019 0.37,0.344 0.37,0.344l-0.432,0.162l-0.228,0.13l0,0.024c0,0.103 -0.035,0.377 -0.069,0.614c0.021,0.012 0.054,0.014 0.069,0.026c0.158,0.144 0.183,0.359 0.183,0.54l0,0.068c0,0 0,0.047 0.003,0.088c0.024,-0.01 0.09,-0.026 0.09,-0.026c0,0 0.051,-0.01 0.066,-0.015c-0.005,-0.007 -0.007,-0.018 -0.007,-0.047c0,-0.035 0.007,-0.082 0.007,-0.082c0.032,-0.181 0.091,-0.568 0.466,-0.63l0.259,-0.042l0.071,0.255c0.042,0.148 0.05,0.275 0.05,0.396c0,0.409 -0.206,0.605 -0.361,0.754c-0.12,0.106 -0.167,0.165 -0.17,0.282c0.055,0.019 0.134,0.05 0.134,0.05c0.203,0.064 0.627,0.181 0.627,0.679c0,0.077 -0.005,0.169 -0.033,0.268l-0.099,0.394l-0.249,-0.18l-0.537,-0.35c-0.121,-0.125 -0.201,-0.199 -0.37,-0.189c-0.119,0.888 -0.239,1.828 -0.239,2.88c0,0.251 0.008,0.509 0.022,0.775c0.106,0.101 1.649,1.685 1.649,1.685l-2.646,0c0,0.066 -0.005,0.132 -0.005,0.197c0,0.776 0.217,1.332 0.49,1.906l0.266,0.578l-0.603,-0.167c-0.327,-0.081 -0.369,-0.003 -0.508,0.249c-0.126,0.253 -0.364,0.641 -0.976,0.556c-0.078,0.184 -0.16,0.382 -0.16,0.382c0,0 -0.114,0.014 -0.205,0.033l0,0.545c0.317,0.077 0.584,0.257 0.713,0.621l0.029,0.079l-0.038,0.159l-0.082,0.489c0.012,0.047 0.019,0.105 0.019,0.165c0,0.155 -0.05,0.339 -0.305,0.485l-0.181,0.097l-0.151,-0.142c-0.202,-0.186 -0.24,-0.424 -0.24,-0.627c0,-0.061 0.005,-0.12 0.005,-0.184c0,-0.056 0.014,-0.103 0.014,-0.141c0,-0.123 -0.071,-0.163 -0.181,-0.2c-0.099,0.19 -0.366,0.679 -0.366,0.679l-0.808,1.418c0,0 -0.113,-0.266 -0.161,-0.413c-0.096,0.271 -0.235,0.615 -0.577,0.552l-0.066,-0.009l-0.068,-0.045c-0.236,-0.18 -0.387,-0.158 -0.825,-0.069c0,0 -0.412,0.054 -0.686,0.097c-0.007,0.257 -0.027,0.735 -0.492,0.796c-0.405,0 -0.565,-0.257 -0.664,-0.403c-0.043,-0.07 -0.067,-0.07 -0.092,-0.094c-0.029,0.147 -0.088,0.29 -0.215,0.382c-0.25,0.174 -0.535,0.05 -0.81,-0.059c-0.293,-0.111 -0.584,-0.229 -0.828,-0.111c0.05,0.142 0.1,0.266 0.1,0.384c0,0.073 -0.012,0.13 -0.057,0.199c-0.075,0.124 -0.243,0.127 -0.386,0.148c-0.008,0.037 -0.012,0.085 -0.012,0.13c0,0.28 0.063,0.417 0.132,0.539l0.191,0.884l-0.231,0c-0.08,0.035 -0.167,0.045 -0.344,-0.038c0.005,0.045 0.011,0.106 0.011,0.106c0,0 -0.006,0.167 -0.011,0.306c0.056,-0.018 0.888,-0.238 0.888,-0.238l0.016,0.099c0.38,0.306 0.66,0.306 1.073,0.302c0,0 0.48,0.059 0.858,0.101c-0.038,-0.176 -0.045,-0.382 -0.118,-0.485l-0.625,-0.78c0,0 0.995,0.334 1.027,0.339c0,-0.037 0.003,-0.075 0.003,-0.075c0,-0.022 -0.003,-0.036 -0.003,-0.061c0,-0.187 0.022,-0.399 0.184,-0.552c0.074,-0.073 0.213,-0.143 0.417,-0.111l0.226,0.036l0.022,0.242c0.005,0.094 0.009,0.193 0.009,0.278c0,1.03 -0.438,1.619 -0.836,2.154c0.193,0.148 0.349,0.403 0.349,0.882l0,0.011c0.152,0.036 0.303,0.076 0.303,0.076c0.278,0.094 0.524,0.16 0.874,0.132c0.026,-0.191 0.093,-0.512 0.479,-0.523c0.549,0.134 0.66,0.006 0.869,-0.234l0.726,-0.822c0,0 -0.026,0.358 -0.044,0.608c0.11,-0.33 0.426,-0.502 0.714,-0.655c0.343,-0.177 0.539,-0.312 0.602,-0.557c-0.181,-0.23 -0.364,-0.324 -0.567,-0.402c-0.3,-0.099 -0.65,-0.222 -0.846,-0.835l0,-0.013c0,-0.067 -0.014,-0.621 -0.014,-0.621c0,0 0.004,-0.12 0.004,-0.225c-0.155,-0.01 -0.346,-0.034 -0.459,-0.215c-0.024,-0.04 -0.049,-0.118 -0.049,-0.205c0,-0.054 0.007,-0.125 0.033,-0.193c0.258,-0.288 0.492,-0.373 0.735,-0.34c0.29,0.029 0.57,0.229 0.761,0.552l0.184,0.302l-0.347,0.143c0.016,0.028 0.033,0.061 0.033,0.061c0.076,0.13 0.155,0.331 0.198,0.545c0.019,-0.035 0.04,-0.022 0.069,-0.095c0.077,-0.205 0.19,-0.511 0.546,-0.582c0.584,0.017 0.728,0.439 0.816,0.688c0.023,0.048 0.033,0.062 0.044,0.097c0.057,-0.198 0.125,-0.342 0.299,-0.525l0.163,-0.168c0.368,-0.407 0.502,-0.989 0.594,-1.559c-0.253,-0.007 -0.63,-0.055 -0.667,-0.483c0.085,-0.517 0.414,-0.681 0.652,-0.804l0.463,-0.24l-0.052,0.532c-0.007,0.043 -0.007,0.082 -0.007,0.113c0,0.123 0.035,0.21 0.072,0.255c0.02,0.018 0.067,0.018 0.097,0.021c0,-0.066 -0.005,-0.153 -0.005,-0.153c-0.013,-0.123 -0.025,-0.247 -0.025,-0.373c0,-0.233 0.047,-0.462 0.219,-0.603c0.094,-0.078 0.21,-0.108 0.344,-0.113c-0.01,-0.125 -0.066,-0.195 -0.175,-0.292c-0.151,-0.149 -0.367,-0.349 -0.367,-0.757c0,-0.049 0.004,-0.122 0.016,-0.186l0.052,-0.353l0.323,0.115c0.275,0.083 0.292,0.054 0.394,-0.131c0.112,-0.168 0.284,-0.45 0.697,-0.448c0,-0.064 0.023,-0.101 0.047,-0.16c-0.083,0.037 -0.158,0.072 -0.301,0.052l-0.198,-0.039l-0.033,-0.202c-0.1,-0.612 -0.019,-1.061 0.257,-1.348c0.228,-0.228 0.56,-0.316 1.003,-0.287c-0.018,-0.196 -0.113,-0.283 -0.273,-0.42c-0.208,-0.162 -0.502,-0.403 -0.502,-0.905c0,-0.049 0,-0.103 0.009,-0.151l0.062,-0.593l0.311,0.334l0.438,0.424c0.068,0.126 0.111,0.151 0.217,0.128c0.005,-0.017 0.021,-0.054 0.021,-0.069c0,-0.072 -0.043,-0.101 -0.146,-0.153l-0.724,-0.838l0.524,0c0.2,-0.057 0.33,-0.14 0.405,-0.265c0.165,-0.299 0.026,-0.827 -0.075,-1.216l-0.159,-0.624l0.439,0.081c0.137,0.027 0.151,0.009 0.247,-0.147c0,0 0.069,-0.07 0.134,-0.144c-0.044,-0.174 -0.091,-0.346 -0.091,-0.48c0,-0.179 0.026,-0.325 0.047,-0.458c0.005,-0.021 0.005,-0.034 0.007,-0.061c-0.177,0.198 -0.387,0.366 -0.624,0.373c-0.111,0 -0.396,-0.041 -0.531,-0.46l-0.096,-0.306l0.388,-0.085l0.262,-0.071c0.102,-0.106 0.135,-0.355 0.149,-0.636c-0.066,0.222 -0.199,0.604 -0.712,0.542l-0.273,-0.031l0.023,-0.292l0,-0.073c0,-0.198 -0.08,-0.313 -0.196,-0.468c-0.134,-0.191 -0.303,-0.43 -0.303,-0.833c0,-0.042 0,-0.089 0.002,-0.138l0.033,-0.274l0.259,0c0.043,0 0.059,0 0.142,-0.132c0.094,-0.139 0.259,-0.368 0.605,-0.389c0,-0.111 -0.071,-0.841 -0.071,-0.841l0.311,0.104l0.431,0c-0.032,-0.415 -0.214,-0.651 -0.459,-0.933l-0.514,-0.703l0.005,-0.113l-0.24,-0.753c-0.097,-0.246 -0.177,-0.448 -0.177,-0.611c0,-0.113 0.029,-0.203 0.134,-0.275c0.052,-0.052 0.113,-0.064 0.18,-0.069c-0.067,-0.085 -0.142,-0.163 -0.243,-0.247l-0.413,-0.462l0.017,-0.069c-0.002,-0.049 -0.002,-0.101 -0.002,-0.157c0,-0.307 0.122,-0.51 0.226,-0.728c-0.644,-0.364 -0.785,-1.188 -0.895,-1.94c0,0 -0.01,-0.07 -0.015,-0.101c-0.11,0.007 -0.205,0 -0.311,-0.073c-0.209,-0.139 -0.219,-0.379 -0.219,-0.582c0,-0.014 0,-0.031 0.003,-0.045c-0.033,0.012 -0.05,0.042 -0.076,0.042c-0.17,0.014 -0.382,-0.101 -0.431,-0.426c-0.194,-1.159 -0.719,-1.703 -1.695,-1.762l-0.251,-0.019l0.021,-0.121l-0.031,-0.582c0,0 0,-0.028 0.007,-0.039c-0.176,0.023 -0.332,0.02 -0.434,-0.095c-0.079,-0.071 -0.106,-0.163 -0.106,-0.264c0,-0.082 0.019,-0.165 0.038,-0.24c-0.09,0 -0.299,-0.019 -0.46,-0.302c0,-0.016 -0.117,-0.375 -0.2,-0.634c-0.315,-0.038 -0.827,-0.158 -1.046,-0.659l-0.129,-0.286l0.735,-0.289c0.825,-0.295 1.35,-0.528 1.35,-1.357c0,-0.06 -0.005,-0.123 -0.009,-0.184l-0.027,-0.378l0.356,0.059c0.203,0.031 0.259,-0.021 0.394,-0.176c0.144,-0.168 0.374,-0.403 0.82,-0.37c0.037,-0.16 0.083,-0.339 0.083,-0.339c0.044,-0.385 0.12,-0.804 0.447,-1.056c-0.007,-0.043 -0.01,-0.08 -0.01,-0.116c0,-0.249 0.052,-0.508 0.271,-0.666c0,0 0.307,-0.038 0.375,-0.047c-0.028,-0.187 -0.11,-0.387 -0.186,-0.517l-0.52,-0.947l0.965,0.521c0.133,0.089 0.232,0.134 0.305,0.165c-0.003,-0.014 -0.003,-0.04 -0.003,-0.059c0,-0.184 0.149,-0.302 0.273,-0.391c-0.15,-0.161 -0.244,-0.332 -0.244,-0.504c0,-0.121 0.023,-0.252 0.065,-0.385c0,0 0.022,-0.21 0.048,-0.391c-0.192,-0.035 -0.457,-0.111 -0.457,-0.483l0,-0.325c0,0 0.529,0.042 0.549,0.05c-0.046,-0.014 -0.128,-0.418 -0.128,-0.418c-0.054,-0.169 -0.103,-0.322 -0.103,-0.471c0,-0.101 0.026,-0.202 0.105,-0.282c0.059,-0.067 0.191,-0.17 0.422,-0.112l0.361,0.159c0.12,0.075 0.207,0.12 0.351,0.11c0.057,-0.136 0.125,-0.297 0.125,-0.297c0.129,-0.304 0.191,-0.478 0.191,-0.584c0,-0.054 -0.01,-0.101 -0.052,-0.123l-0.193,-0.169l0.094,-0.302c0.108,-0.177 0.339,-0.217 0.556,-0.203c0.059,-0.398 0.175,-1.104 0.175,-1.104l-0.297,-0.873l0.115,-0.032c0.037,-0.067 0.108,-0.224 0.172,-0.382c-0.056,0.014 -0.089,0.064 -0.146,0.075c-0.278,0.012 -0.525,-0.174 -0.575,-0.469l-0.04,-0.217c0,0 0.256,-0.11 0.287,-0.131c0.087,-0.168 0.222,-0.347 0.432,-0.453c-0.064,-0.659 -0.37,-1.069 -0.766,-1.491l-0.415,-0.439c0,0 0.172,-0.045 0.332,-0.084c-0.005,-0.003 -0.014,0 -0.018,-0.003c-0.133,-0.073 -0.17,-0.231 -0.178,-0.394c-0.046,0.06 -0.101,0.111 -0.19,0.128c0.012,0.066 0.04,0.146 0.04,0.222c0,0.162 -0.04,0.32 -0.13,0.461c-0.148,0.212 -0.4,0.333 -0.766,0.37l-0.468,0.043l0.174,-0.45c0.229,-0.613 0.282,-1.044 0.325,-1.482c-0.08,0.058 -0.167,0.087 -0.217,0.1l-0.386,0.133c0,0 0.009,-0.229 0.021,-0.378c-0.083,0.003 -0.174,0.019 -0.174,0.019c-0.255,0.036 -0.549,0.085 -0.729,-0.129c-0.054,-0.062 -0.112,-0.163 -0.112,-0.314c0,-0.054 0.006,-0.12 0.028,-0.184l0.052,-0.167c0,0 -0.153,0.081 -0.427,0.08c0.035,0.168 0.111,0.345 0.287,0.585l0.589,1.126c0,0 -0.165,0.007 -0.303,0.009c0.042,0.05 0.087,0.102 0.087,0.102c0.132,0.132 0.381,0.375 0.381,0.66c0,0.122 -0.046,0.254 -0.165,0.395l-0.119,0.146l-0.184,-0.056c-0.354,-0.103 -0.542,-0.368 -0.627,-0.709c-0.05,0.012 -0.108,0.024 -0.108,0.024c-0.107,0.054 -0.274,0.138 -0.444,0.059c-0.178,-0.079 -0.231,-0.272 -0.247,-0.333l-0.047,-0.169l0.122,-0.121c0.13,-0.148 0.194,-0.299 0.194,-0.469c0,-0.322 -0.194,-0.695 -0.455,-1.136c0,0 -0.099,-0.204 -0.196,-0.391c-0.165,0.027 -0.52,0.097 -0.52,0.097Zm3.612,0.259c0.064,0.059 0.096,0.16 0.155,0.247c0.021,-0.195 0.029,-0.282 0.048,-0.454c-0.172,-0.042 -0.34,-0.085 -0.34,-0.085c0,0 -0.045,-0.007 -0.068,-0.014c0.023,0.09 0.068,0.172 0.205,0.306Zm-9.107,5.648c-0.008,0.097 -0.033,0.3 -0.033,0.3c0.006,0.054 0.006,0.108 0.006,0.172c0,0.224 -0.03,0.473 -0.204,0.711c0.009,-0.007 -0.587,0.25 -0.587,0.25c0,0 -0.042,0.014 -0.082,0.026c0.016,0.038 0.016,0.064 0.068,0.137l0.249,0.589l-0.216,0.099c-0.101,0.103 -0.114,0.148 -0.132,0.202c0.306,0.062 0.457,0.285 0.525,0.429l0.078,0.125c0,0 0.035,0 0.045,-0.004c-0.029,-0.185 -0.054,-0.394 -0.054,-0.394c-0.027,-0.118 -0.05,-0.222 -0.05,-0.328c0,-0.167 0.04,-0.353 0.151,-0.664l0.083,-0.245l0.251,0.061c0.222,0.049 0.238,0.019 0.344,-0.235c0.099,-0.199 0.272,-0.526 0.701,-0.564l-0.008,-0.002c-0.065,-0.056 -0.181,-0.13 -0.181,-0.13l-0.538,-0.355c-0.127,-0.139 -0.216,-0.208 -0.416,-0.18Zm11.39,27.091c0,0.067 0.009,0.099 0.026,0.106c0,0 0.054,0.04 0.193,0.034c0.012,-0.06 0.024,-0.114 0.024,-0.114c-0.002,0.007 -0.188,-0.042 -0.188,-0.042c0,0 -0.046,-0.021 -0.052,-0.028c-0.003,0.009 -0.003,0.023 -0.003,0.044Z" style="fill:#fff;fill-rule:nonzero;"/><path d="M184.264,1.378c-0.023,0.225 -0.06,0.528 -0.06,0.528c-0.112,0.349 -0.212,0.674 -0.212,0.943c0,0.189 0.054,0.337 0.178,0.433l-0.184,0.543c0,0 -0.277,-0.111 -0.39,-0.156c-0.008,0.328 -0.13,0.579 -0.22,0.73c0.038,0.029 0.102,0.06 0.102,0.06l0.063,0.395c0,0.012 -0.311,0.384 -0.311,0.384l-0.209,0.205c-0.111,0.273 -0.18,0.65 -0.18,0.988c0,0.174 0.06,0.296 0.106,0.436c0.14,0.019 0.302,0.112 0.354,0.391l0.05,0.282l-0.274,0.064c-0.542,0.129 -0.763,0.634 -0.763,1.763c0,0.148 0.002,0.297 0.009,0.454l0,0.144l-0.101,0.097c-0.412,0.37 -0.526,0.825 -0.526,1.338c0,0.271 0.035,0.57 0.062,0.877l0.096,1.446l-0.387,-0.063l-0.133,-0.017l0,0.012c0,0.062 -0.041,0.356 -0.041,0.356c0,0.283 -0.016,0.61 -0.25,0.804c0,0 -0.087,0.016 -0.153,0.032c0.036,0.161 0.066,0.326 0.066,0.326c0,0.412 -0.327,0.593 -0.469,0.681l-0.052,0.019l-0.155,0l-0.535,0.068l-0.188,-0.165l-0.085,-0.102c-0.346,-0.093 -0.5,-0.009 -0.703,0.092l-0.701,0.175l-0.747,-0.288l-0.505,-0.219c-0.026,0.047 -0.461,0.25 -0.461,0.25l-0.125,0.064l-0.031,-0.121l-0.366,-0.193c-1.621,-0.224 -3.598,-0.4 -4.052,-0.266l-0.62,0.024l-0.198,-0.015l-0.678,-0.052c0.002,-0.011 -0.241,0.043 -0.241,0.043c-0.657,0.175 -1.81,0.05 -2.074,0.009l-0.471,-0.082c-0.084,-0.016 -0.134,0 -0.134,0l-0.273,0.073c-0.333,0.096 -1.141,0.17 -1.462,-0.16c-0.115,-0.12 -0.165,-0.288 -0.115,-0.453c0,0.012 0.168,-0.671 0.168,-0.671c0.176,-0.611 0.256,-0.888 -0.144,-1.633l-0.33,-0.608l0.827,0.228c-0.036,-0.08 0.254,-0.561 0.254,-0.561c0,0 0.088,0.005 0.114,0.005l-0.001,-0.028l-0.157,-0.94c0,0.007 0.245,-0.613 0.245,-0.613c-0.134,-0.066 -0.253,-0.196 -0.253,-0.372c0,-0.033 0.008,-0.075 0.015,-0.104c0,-0.007 0.297,-0.36 0.297,-0.36c0,0 0.195,-0.191 0.211,-0.205c-0.016,-0.002 -0.016,-0.146 -0.016,-0.146l-0.007,-0.248l0.231,-0.546c0,-0.029 -0.123,-0.495 -0.123,-0.495c0,0 -0.101,-0.519 -0.101,-0.523c0,0.004 0.285,-0.377 0.285,-0.377c0.121,-0.093 0.186,-0.137 0.198,-0.323l-0.063,-0.113c-0.08,-0.1 -0.196,-0.257 -0.196,-0.509c0,-0.057 0.005,-0.113 0.017,-0.18l0.317,-0.508c0.074,-0.087 0.086,-0.118 0.123,-0.175c-0.264,-0.005 -0.643,-0.058 -0.688,-0.485l-0.045,-0.379l0.363,0.047c0.177,0.021 0.217,0.028 0.293,-0.474c0,0 0.028,-0.134 0.066,-0.247c-0.244,-0.06 -0.437,-0.154 -0.588,-0.257c-0.145,-0.107 -0.284,-0.168 -0.461,-0.191c0,0.325 -0.094,0.568 -0.161,0.759c-0.054,0.138 -0.086,0.212 -0.086,0.285c0,0.07 0.035,0.125 0.119,0.202l-0.315,0.493c0,0 -0.035,-0.01 -0.068,-0.017c-0.003,0.045 -0.003,0.085 -0.003,0.085l0,0.069c0,0.186 -0.016,0.402 -0.177,0.541c-0.004,0.001 -0.026,0.001 -0.032,0.008c0.02,0.103 0.075,0.223 0.075,0.297c0,0.127 -0.029,0.238 -0.042,0.331c-0.013,0.072 -0.024,0.119 -0.024,0.182c0,0.089 0.031,0.179 0.13,0.328l0.188,0.261c0,0 -0.347,0.174 -0.393,0.201c-0.043,0.119 -0.114,0.237 -0.192,0.334c0.088,0.056 0.17,0.155 0.203,0.335l0.042,0.209c0,0 -0.278,0.12 -0.292,0.144c-0.089,0.16 -0.217,0.327 -0.412,0.434c0.026,0.113 0.102,0.252 0.102,0.363c0,0.299 -0.111,0.558 -0.199,0.779c-0.08,0.201 -0.155,0.373 -0.155,0.549c0,0.139 0.047,0.283 0.143,0.444l0.196,0.355l-0.464,0.109l-0.148,0.031c-0.153,0.141 -0.163,0.624 -0.175,1.01l-0.125,1.028c-0.007,0.005 -0.348,0.511 -0.414,0.614c0.103,0.099 0.197,0.234 0.197,0.451c0,0.058 -0.013,0.113 -0.021,0.177c-0.054,0.185 -0.216,0.244 -0.41,0.315c0,0 -0.03,0.009 -0.068,0.024c0.01,0.125 0.068,0.203 0.179,0.292l0.252,0.476l-0.412,0.796l-0.2,-0.202c-0.304,-0.154 -0.795,-0.134 -1.327,-0.116c-0.558,0.026 -1.193,0.045 -1.817,-0.115l-0.36,-0.316c0,0 -0.153,-0.172 -0.172,-0.196c0,0.034 -0.219,0.116 -0.219,0.116l-0.418,0.148l-0.303,-0.153c-0.081,-0.07 -0.14,-0.094 -0.194,-0.108c-0.009,0.163 -0.033,0.374 -0.21,0.478l-0.435,0.28l-0.12,-0.536l0,-0.401c-0.634,0.122 -6.337,1.204 -6.337,1.204l-1.684,0.285c0,0 -0.033,-0.092 -0.052,-0.182c-0.1,0.033 -0.194,0.053 -0.309,-0.007c-0.111,-0.061 -0.188,-0.172 -0.219,-0.336l0,-0.005c0,-0.123 0.17,-1.727 0.17,-1.727c0.08,-0.915 0.153,-1.789 0.334,-2.227c0.16,-0.408 0.219,-0.997 0.275,-1.574l0.21,-1.428c0.033,-0.163 0.179,-0.212 0.378,-0.293l0.192,-0.091c0.031,-0.099 0.156,-1.063 0.156,-1.266l0,-0.012c-0.014,-0.165 -0.125,-1.616 -0.976,-1.745c0.015,0 0.02,0.019 0.02,0.042c0,0.052 -0.027,0.132 -0.027,0.132c-0.046,0.141 -0.164,0.356 -0.384,0.478c0.008,0.088 0.031,0.193 0.031,0.28c0,0.644 -0.248,1.146 -0.466,1.575c-0.177,0.344 -0.326,0.634 -0.326,0.945c0,0.198 0.057,0.402 0.206,0.641l0.207,0.332l-0.372,0.111c-0.271,0.077 -0.41,0.591 -0.481,0.862l-0.071,0.222c-0.085,0.219 -0.113,0.367 -0.113,0.501c0,0.109 0.026,0.217 0.054,0.333l0.08,0.857l-0.134,0.875c-0.094,0.466 -0.172,0.949 -0.172,1.428c0,0.212 0.017,0.423 0.056,0.634l0.017,0.108l-0.052,0.096c-0.288,0.55 -0.921,0.623 -1.472,0.681l-0.844,0.189c0,0.012 -0.075,0.195 -0.075,0.195c-0.076,0.212 -0.184,0.545 -0.514,0.603l-0.387,0.066l0.071,-0.595c-0.056,-0.027 -0.372,0.004 -0.544,0.026c0,0 -0.153,-0.005 -0.297,-0.005c0.031,0.104 0.051,0.221 0.125,0.329c0,0 0.108,0.222 0.19,0.394c0.08,0.024 0.161,0.036 0.213,0.094c0.075,-0.07 0.153,-0.122 0.278,-0.141l0.285,-0.052l0.051,0.29c0.038,0.214 0.238,0.273 0.776,0.351c0,0 0.153,0.038 0.295,0.073c-0.026,-0.07 -0.074,-0.151 -0.074,-0.238c0,-0.054 0.008,-0.108 0.043,-0.155c0.073,-0.191 0.252,-0.245 0.313,-0.262l0.188,-0.059l0.199,0.262c0.092,-0.113 0.25,-0.213 0.436,-0.139c0.198,0.078 0.259,0.313 0.285,0.402l0.012,0.064c0,0 -0.611,3.169 -0.698,3.572c0.186,0.036 0.433,0.12 0.448,0.464l0.012,0.359l-0.345,-0.054c-0.115,-0.019 -0.174,0 -0.181,0.006c-0.012,0.01 -0.035,0.057 -0.035,0.166c0,0.336 0.198,0.805 0.245,0.876l0.11,0.17l-0.066,0.075l-0.283,0.377c-0.112,0.092 -0.183,0.147 -0.193,0.326c0,0.056 0.024,0.181 0.024,0.181l0.03,0.099l0.067,0.184l-0.175,0.45c0.015,-0.033 0.146,0.224 0.146,0.224l0.206,0.489l-0.165,0.13l-0.133,0.266c0,0.012 -0.181,0.818 -0.181,0.818l-0.076,0.25l-0.159,0.997l0.082,0.686c0,0 0.019,0.131 0.047,0.259c0.106,0.014 0.231,0.078 0.346,0.183c0.107,-0.026 0.267,-0.061 0.267,-0.061c0.186,-0.116 0.358,-0.064 0.553,0.033c0.076,-0.05 0.156,-0.07 0.248,-0.077l0,-0.048c0.047,-0.106 0.16,-0.196 0.285,-0.259c0.017,-0.144 0.04,-0.313 0.04,-0.313l0.198,-0.835c0.36,-0.978 0.389,-2.603 0.389,-4.326l0,-0.62l0.087,-2.547l0.136,-0.44l0.104,-0.325l-0.059,-0.119l-0.221,-0.673l0.073,-0.047l0.226,-0.719l0.029,-0.158c0.072,-0.323 0.155,-0.686 0.661,-0.803l0.093,-0.026l0.087,0.032c0.464,0.185 0.775,0.189 1.338,0.198c0,0 0.455,0.019 0.759,0.031c0.018,-0.172 0.061,-0.32 0.191,-0.396c0.195,-0.118 0.374,-0.014 0.487,0.055l0.293,0.089l0.779,-0.179c0,0 -0.044,0.196 -0.089,0.36c0.111,-0.054 0.196,-0.125 0.306,-0.223c0.219,-0.203 0.497,-0.458 0.997,-0.458c0.302,0.027 0.415,0.205 0.486,0.356c0.025,-0.263 0.094,-0.556 0.454,-0.603l0.13,-0.019l0.13,0.104c0,0 0.171,0.151 0.181,0.155c0,-0.028 0.123,-0.186 0.123,-0.186c0.134,-0.203 0.317,-0.485 0.648,-0.558l0.541,-0.121l-0.19,0.432l-0.179,0.457c0.409,0.01 1.328,0.03 1.328,0.03c1.006,-0.039 2.036,-0.039 2.811,0.714c0.229,0.003 0.361,-0.084 0.533,-0.207l0.565,-0.294l0.276,0.501l-0.007,0.003c0.252,0.063 0.49,0.16 0.577,0.473c0.019,0.06 0.027,0.123 0.027,0.179c0,0.265 -0.192,0.444 -0.283,0.524c-0.017,0 -0.132,0.81 -0.132,0.81l-0.118,0.924c0,0.014 -0.271,0.373 -0.271,0.373l-0.207,0.351c-0.005,0.002 -0.005,0.469 -0.005,0.469l0.005,0.647l-0.08,0.041c-0.458,0.483 -0.528,1.098 -0.528,1.812c0,0.146 0.007,0.296 0.009,0.445c0,0.163 0.002,0.322 0.002,0.48c0,0.463 -0.023,0.941 -0.146,1.421l-0.03,0.656l0.037,0.813c0,0.009 -0.247,1.012 -0.247,1.012c0,0 -0.092,0.349 -0.155,0.648c0.376,-0.03 0.602,0.333 0.694,0.486l0.064,0.108c0.187,0.012 0.29,-0.098 0.299,-0.108c0,0 0.318,0.248 0.399,0.32c0.329,0.003 0.612,-0.026 0.801,-0.136c-0.047,-0.238 -0.092,-0.483 -0.092,-0.705c0,-0.448 0.071,-0.867 0.143,-1.248c0.06,-0.35 0.114,-0.674 0.114,-0.971c0,-0.354 -0.075,-0.695 -0.332,-1.021l-0.397,-0.537l0.689,0.061c-0.014,-0.049 -0.048,-0.092 -0.048,-0.146c0,-0.066 0.015,-0.141 0.062,-0.205c0.066,-0.099 0.184,-0.106 0.306,-0.134c-0.035,-0.111 -0.059,-0.215 -0.059,-0.3c0,-0.153 0.064,-0.263 0.233,-0.426c0,0 0.059,-0.054 0.118,-0.111c-0.105,-0.256 -0.202,-0.508 -0.202,-0.753c0,-0.597 0.25,-1.167 0.487,-1.685c0.234,-0.51 0.439,-0.973 0.439,-1.44c0,-0.222 -0.052,-0.446 -0.17,-0.67l-0.229,-0.443l0.651,0c-0.026,-0.237 -0.052,-0.499 -0.052,-0.499l-0.186,-0.82l0.177,-0.162c0.86,-0.47 1.131,-0.477 1.866,-0.33c0.089,-0.337 0.382,-0.483 0.554,-0.526l0.351,-0.141l0.205,-0.017l0.358,0.266c0.302,0.234 0.342,0.255 0.528,0.057c0,0 0.44,0.155 0.478,0.167c0.014,-0.009 0.071,-0.047 0.071,-0.047c0.202,-0.096 0.329,-0.162 0.384,-0.282l0.549,0.153c0,0 -0.007,0.151 -0.007,0.207c0.031,-0.052 0.19,-0.113 0.19,-0.113c0.224,-0.094 0.503,-0.208 0.712,-0.014c0.073,0.071 0.083,0.158 0.092,0.257c0.632,-0.17 1.237,0.007 1.737,0.214c0.236,0.097 0.44,0.137 0.648,0.182c0,0 -0.015,-0.01 -0.015,-0.022l0,-0.256l0.246,-0.041c1.063,-0.158 1.625,0.226 2.127,0.559c0,0 0.665,0.325 0.828,0.408c0.224,-0.166 0.52,-0.166 0.74,-0.146c0,0 0.216,-0.008 0.301,-0.012c0.012,-0.193 0.033,-0.371 0.181,-0.479c0.074,-0.061 0.187,-0.117 0.371,-0.071l0.086,0.027l0.064,0.072c0.106,0.13 0.167,0.126 0.427,0.038c0.111,-0.038 0.257,-0.094 0.431,-0.094c-0.016,-0.049 -0.04,-0.076 -0.04,-0.125c0,-0.054 0.009,-0.108 0.031,-0.155c0.075,-0.191 0.257,-0.245 0.322,-0.262l0.137,-0.045l0.116,0.087c0.277,0.206 0.36,0.451 0.36,0.689c0,0.245 -0.076,0.468 -0.136,0.65c0,0 -0.062,0.252 -0.086,0.348c0.095,0.086 0.232,0.248 0.232,0.521c0,0.029 0,0.054 -0.007,0.083c0,0.004 -0.387,1.456 -0.387,1.456c0,0 -0.306,1.107 -0.334,1.221c0.113,0.096 0.242,0.226 0.242,0.48c0,0.052 -0.005,0.097 -0.012,0.146c0,0.005 -0.214,0.325 -0.214,0.325l-0.033,0.112l0.078,0.19l0.171,0.591l-0.162,0.509l0.162,0.149l-0.006,0.334c-0.041,0.074 -0.137,0.088 -0.226,0.138c0.02,0.093 0.04,0.195 0.04,0.195l0.073,0.422c0,0.278 -0.14,0.433 -0.255,0.509c-0.075,0.044 -0.77,0.007 -0.77,0.007l-0.354,-0.681c0,0 -0.009,-0.048 -0.017,-0.069c-0.03,0.404 -0.072,0.865 -0.072,0.865c-0.045,0.285 -0.088,0.585 -0.088,0.815c0,0.177 0.026,0.323 0.101,0.408c0.114,0.127 0.377,0.174 0.766,0.137l0.316,-0.028l0,0.963c0.09,-0.012 0.189,-0.044 0.276,-0.037c-0.059,-0.085 -0.123,-0.165 -0.123,-0.252c0,-0.052 0.005,-0.1 0.005,-0.132l0.017,-0.151c0,0 0.19,-0.081 0.244,-0.102c0.095,-0.224 0.187,-0.448 0.451,-0.513c0,0 0.158,0.03 0.304,0.058c0.032,-0.145 0.087,-0.291 0.155,-0.403c-0.176,-0.098 -0.452,-0.275 -0.452,-0.549c0,-0.053 0.012,-0.124 0.044,-0.192l0.048,-0.116l0.122,-0.045c0.075,-0.033 0.155,0.012 0.238,0.024c-0.04,-0.16 -0.118,-0.29 -0.356,-0.551l-0.29,-0.316l0.394,-0.165c0.203,-0.08 0.502,-0.186 0.757,-0.043c0.06,0.042 0.091,0.104 0.134,0.156c-0.031,-0.09 -0.092,-0.165 -0.092,-0.285l0,-0.078l0.049,-0.551l0.46,0.372c-0.002,-0.118 -0.005,-0.24 -0.005,-0.24l-0.068,-0.238l0.028,-0.526l0.043,-0.144l0.211,-1.564c0.024,-0.46 0.073,-0.933 0.205,-1.402c-0.19,-0.045 -0.423,-0.13 -0.423,-0.477l0,-0.304l0.287,0.003c0.094,0 0.125,0 0.209,-0.384c0.036,-0.238 0.123,-0.634 0.451,-0.794c-0.021,-0.25 -0.055,-0.488 -0.151,-0.603l-0.492,-0.629l0.77,0.139c0.233,0.044 0.259,-0.003 0.353,-0.149c0.076,-0.139 0.243,-0.431 0.632,-0.351c0,0 0.038,0.007 0.07,0.012c0.034,-0.186 0.102,-0.372 0.288,-0.488c0.186,-0.104 0.407,-0.113 0.669,-0.016l0.243,0.086l-0.083,0.413c0.045,0.064 0.411,0.09 0.627,0.005l0.132,-0.137l0.405,-0.441l0.08,0.057l0.837,0c0.5,-0.017 0.994,-0.005 1.393,0.134c0.052,-0.184 0.139,-0.372 0.441,-0.389l0.159,-0.007l0.09,0.135c0.049,0.07 0.056,0.087 0.299,0.019c0.21,-0.054 0.524,-0.059 0.851,0.072c0.172,-0.164 0.419,-0.23 0.657,-0.226c-0.03,-0.096 -0.082,-0.193 -0.082,-0.311c0,-0.04 0.012,-0.084 0.033,-0.139c0.076,-0.207 0.306,-0.268 0.394,-0.292l0.195,-0.054c0,0 0.125,0.207 0.139,0.212c0,-0.017 0.108,-0.066 0.108,-0.066c0.125,-0.068 0.295,-0.156 0.476,-0.078c0.015,0.01 0.292,0.344 0.292,0.344l0.086,0.16c0.042,-0.238 0.247,-0.595 0.775,-0.527c0.228,0.04 0.264,0.25 0.287,0.377l0.068,0.24c-0.011,-0.087 0.121,-0.151 0.121,-0.151l1.821,-0.591l-0.071,0.443l0,0.052c0,0.15 0.071,0.245 0.13,0.358c0.085,-0.022 0.189,-0.057 0.189,-0.057l0.308,-0.16l0.097,0.026l0.551,-0.002l0.071,0.03l0.193,0.306l0.104,0.25c0,0 0.014,-0.005 0.021,-0.007c0.059,-0.273 0.238,-1.209 0.238,-1.209c0.127,-0.494 0.261,-0.963 0.261,-1.557c0,-0.104 -0.021,-0.224 -0.025,-0.344c-0.955,-0.406 -2.56,-0.406 -4.009,-0.386c0,0 -2.071,-0.048 -2.28,-0.048c-0.573,0.516 -1.506,0.608 -2.43,0.677c0,0 -0.733,0.073 -0.789,0.073c-0.736,0.551 -1.565,0.666 -2.435,0.758c-0.704,0.081 -1.444,0.153 -2.181,0.484l-0.283,0.127c0,0 -0.038,-0.132 -0.076,-0.248c-0.099,0.033 -0.198,0.054 -0.308,-0.012c-0.113,-0.056 -0.187,-0.171 -0.222,-0.336l-0.03,-0.13l0.065,-0.071l0.458,-0.556c0.254,-0.25 0.457,-0.45 0.488,-0.834c-0.008,0.042 -0.278,-0.46 -0.278,-0.46c-0.227,-0.341 -0.436,-0.673 -0.344,-0.982c0.035,-0.106 0.113,-0.243 0.306,-0.327l0.228,-0.093l0.231,0.382c0.008,-0.054 0.128,-0.344 0.128,-0.568c0,-0.045 -0.005,-0.084 -0.019,-0.118c0,0.003 -0.109,-0.105 -0.109,-0.105l-0.521,-0.514l0.17,-0.12c0.434,-0.762 0.809,-1.558 1.054,-2.487c-0.097,0.038 -0.206,0.085 -0.347,0.024c-0.181,-0.087 -0.228,-0.273 -0.247,-0.335l-0.041,-0.174l0.126,-0.12c0.242,-0.24 0.383,-0.544 0.351,-0.745c-0.017,-0.039 -0.034,-0.171 -0.276,-0.282l0.189,-0.557c0.185,0.04 0.202,0.015 0.303,-0.139c0.099,-0.138 0.259,-0.306 0.538,-0.362c-0.048,-0.241 -0.102,-0.486 -0.102,-0.729c0,-0.553 0.09,-1.121 0.177,-1.699c0,0 0.123,-1.126 0.168,-1.54c-0.22,-0.027 -0.427,-0.09 -0.606,-0.165c-0.425,-0.182 -0.453,-0.146 -0.524,-0.008Zm-15.509,16.613c0,0 0.106,-0.082 0.212,-0.148c-0.106,-0.034 -0.476,-0.166 -0.476,-0.166l0.264,0.314Zm12.783,8.287l0.059,0.217l0,0.002c0,0.015 0.142,-0.155 0.142,-0.155c-0.094,-0.064 -0.167,-0.141 -0.243,-0.226c0.017,0.056 0.033,0.115 0.042,0.162Z" style="fill:#fff;fill-rule:nonzero;"/><path d="M52.394,0.594l-0.849,0.589l-0.134,-0.271c-0.129,-0.205 -0.702,-0.156 -1.178,-0.12l-0.898,0c-0.294,0.436 -0.648,0.391 -0.95,0.316c0,0 -0.237,-0.017 -0.462,-0.038c0.022,0.026 0.592,0.547 0.592,0.547l-0.405,0.157c-0.907,0.509 -1.496,0.057 -2.022,-0.336c0,0 -0.033,-0.033 -0.056,-0.05c-0.375,0.452 -1.037,0.473 -1.591,0.426l-0.625,-0.007l-0.801,0.241l-0.938,0.264l-0.525,-0.146l-0.457,-0.111l-1.541,0.273c-1.414,0.26 -1.423,0.259 -1.532,0.217l-0.264,-0.109c0,0 0.127,-0.379 0.134,-0.381c-0.013,0 -0.087,-0.007 -0.087,-0.007c-0.438,-0.116 -0.577,-0.005 -0.782,0.165c-0.196,0.164 -0.436,0.367 -0.877,0.346c-0.973,0.16 -2.01,0.014 -2.922,-0.113l-1.258,-0.134l-0.372,0.094l-0.759,0.191l-0.082,-0.203l-0.123,-0.111c-0.334,-0.08 -0.657,0.019 -0.926,0.097c-0.262,0.076 -0.509,0.156 -0.73,-0.003c-0.097,-0.075 -0.151,-0.179 -0.187,-0.296c-0.9,0.17 -1.722,0.073 -2.652,-0.076c-0.912,-0.144 -1.938,-0.306 -3.238,-0.198l-0.363,0.024l0.057,-0.375c0.009,-0.08 0.002,-0.134 -0.008,-0.151c-0.094,-0.091 -0.516,-0.047 -0.721,-0.028l-0.502,0.017l-1.713,-0.502c-0.48,-0.035 -0.945,0.089 -1.256,0.174l-0.468,0.08c-0.144,0 -0.251,-0.122 -0.304,-0.191c-0.05,-0.059 -0.055,-0.068 -0.132,-0.063c-1.292,0.132 -1.678,0.485 -2.015,0.907l-0.085,0.108l-0.028,-0.026l-0.7,0.026c0,0 -0.099,-0.011 -0.201,-0.016c0.013,0.031 0.053,0.04 0.067,0.064c0.04,0.089 0.065,0.179 0.065,0.275c0,0.083 -0.018,0.179 -0.061,0.257c-0.082,0.21 -0.292,0.205 -0.476,0.184c0.002,0.078 0.002,0.262 0.002,0.262c-0.19,0.786 -0.833,1.731 -1.178,2.241c0,0 -0.018,0.032 -0.04,0.054c0.022,0.151 0.036,0.31 0.036,0.445c0,0.462 -0.078,0.836 -0.158,1.201c0,0 -0.132,0.866 -0.135,0.879c0.154,-0.131 0.33,-0.277 0.33,-0.277l-0.077,0.733c-0.005,0.034 -0.01,0.067 -0.01,0.091c0,0.161 0.095,0.212 0.53,0.295c0,0 0.095,0.014 0.161,0.028c0.197,-0.085 0.541,-0.229 0.541,-0.229c0,0 0.241,-0.094 0.392,-0.151c-0.12,-0.506 -0.205,-1.008 -0.205,-1.495c0,-1.402 0.467,-2.64 1.315,-3.351c0.772,-0.333 1.084,-0.067 1.27,0.193c0.056,-0.127 0.132,-0.243 0.264,-0.297c0.118,-0.054 0.29,-0.069 0.532,0.076c0.017,0.014 0.592,0.746 0.592,0.746l0.499,0.78l-0.499,0.035c-0.359,0.015 -0.5,0.47 -0.641,1.012l-0.081,0.306l-0.129,0.292c-0.096,0.191 -0.146,0.302 -0.104,0.57l0.062,0.401l-0.396,-0.055c-0.142,-0.023 -0.16,0.003 -0.255,0.152c0,0 -0.08,0.086 -0.157,0.169c-0.005,0.099 -0.022,0.302 -0.022,0.302c-0.023,0.603 -0.101,1.376 -0.764,1.571c0,0.019 -0.009,0.027 -0.009,0.041c0,0.089 0.066,0.19 0.153,0.344c0.083,0.12 0.172,0.277 0.172,0.443c0,0.054 -0.009,0.105 -0.025,0.158c-0.097,0.24 -0.356,0.317 -0.439,0.351c0,0 -0.151,0.037 -0.238,0.061c-0.144,0.664 -0.214,1.305 -0.233,1.965l-0.059,1.244c-0.064,0.36 -0.281,0.523 -0.485,0.632c0.007,0.075 0.016,0.157 0.016,0.231c0,0.789 -0.243,1.456 -0.473,2.101c-0.22,0.608 -0.425,1.193 -0.425,1.85c0,0.271 0.038,0.568 0.125,0.879l0.108,0.387l-0.4,-0.008c-0.176,-0.009 -0.288,0.073 -0.415,0.146l0,0.015l-0.202,0.711l-0.076,0.18c0,0.009 -0.091,0.513 -0.091,0.513l-0.17,0.787c-0.012,0.019 -0.401,0.269 -0.401,0.269c0,0 -0.047,0.016 -0.084,0.035c-0.012,0.052 -0.013,0.113 -0.013,0.113l0.055,0.745l-0.054,0.561l-0.255,-0.036l-0.356,0c0.042,0.148 0.088,0.311 0.088,0.311l-0.218,0.778c-0.117,0.255 -0.233,0.488 -0.233,0.843l0.026,0.385l-0.428,0.462l-0.349,0.339c0.077,-0.038 0.283,0.362 0.283,0.362l0.096,0.187l-0.13,-0.045l-0.158,0.182l-0.339,0.331c0,0.003 -0.457,1.167 -0.457,1.167c-0.014,0.268 -0.238,0.4 -0.394,0.481c0.022,0.056 0.074,0.097 0.074,0.157c0,0.079 -0.035,0.342 -0.448,0.368c-0.071,0.179 -0.208,0.359 -0.431,0.453c0.005,0.045 0.026,0.096 0.026,0.134c0,0.537 -0.325,0.698 -0.681,0.787l-0.22,0.071l-0.179,0.304l-0.299,0.445c-0.573,0.546 -1.152,0.459 -1.704,0.389l-0.876,-0.068l-0.097,-0.168c-0.177,-0.441 -0.52,-0.652 -0.921,-0.888l-0.744,-0.528c-0.159,-0.132 -0.113,-0.37 -0.086,-0.53l0.003,0c0,-0.014 -0.443,-0.28 -0.443,-0.28c0,-0.01 -0.184,-0.625 -0.184,-0.625l-0.087,-0.436c-0.005,0.009 -0.127,-0.148 -0.127,-0.148l-0.384,-0.667l0.005,-0.686l0.004,-0.551l-0.167,-0.224c-0.151,-0.17 -0.365,-0.42 -0.365,-0.729c0,-0.075 0.016,-0.152 0.051,-0.247c0,0 -0.021,-1.027 -0.026,-1.261c-0.162,-0.132 -0.426,-0.318 -0.426,-0.318c-0.17,-0.178 -0.259,-0.209 -0.469,-0.115c-0.028,0.28 -0.04,0.558 -0.04,0.823c0,0.784 0.069,1.486 0.146,2.222c0,0 0.111,2.142 0.13,2.558c0.17,0.027 0.497,0.099 0.506,0.483c-0.004,0.054 -0.005,0.114 -0.005,0.172c0,0.554 0.328,0.875 0.682,1.23c0.32,0.309 0.692,0.674 0.692,1.171c0,0 -0.007,0.015 -0.007,0.024c0.045,-0.03 0.102,-0.024 0.16,-0.057l0.543,-0.367l-0.106,0.66c-0.008,0.063 -0.008,0.12 -0.008,0.165c0,0.32 0.182,0.407 0.563,0.558c0.3,0.121 0.632,0.333 0.795,0.729c0.664,0.065 1.208,0.239 1.738,0.41c0,0 0.769,0.223 0.983,0.289c0.601,-0.641 1.338,-1.251 2.244,-1.842l0,-1.087l0.341,-0.064l0.325,-0.091c0.12,-0.092 0.292,-0.175 0.524,-0.191c0.018,-0.25 0.11,-0.42 0.197,-0.549l0.127,-0.453l0.081,-0.174l0.431,-0.292c0,0 0.247,-0.205 0.384,-0.314l-0.007,-0.021c0,-0.151 0.037,-0.311 0.057,-0.358c0.098,-0.292 0.294,-0.447 0.52,-0.53c0.003,-0.144 0.021,-0.41 0.021,-0.41c0,-0.08 -0.006,-0.158 -0.006,-0.233c0,-0.41 0.039,-0.823 0.282,-1.092c0.104,-0.132 0.266,-0.115 0.453,-0.093c0.028,-0.231 0.077,-0.675 0.077,-0.675l0.144,-1.138l0.245,-0.388l0.245,-0.358c0.134,-0.559 0.328,-0.849 0.719,-1.068c-0.01,-0.082 -0.016,-0.161 -0.016,-0.228c0,-0.406 0.079,-0.729 0.164,-1.044c0.071,-0.279 0.137,-0.557 0.137,-0.903c0,-0.127 -0.003,-0.262 -0.035,-0.413l-0.057,-0.395l0.568,0.07l-0.009,-0.004c0,-0.05 0.039,-0.245 0.039,-0.245l0.276,-0.67c0,0 0.104,-0.026 0.205,-0.051c0.038,-0.255 0.12,-0.721 0.12,-0.721c0.062,-0.271 0.126,-0.523 0.126,-0.846c0,-0.13 -0.006,-0.267 -0.034,-0.417l-0.061,-0.387l0.596,0.062c-0.028,-0.005 -0.049,-0.359 -0.049,-0.359l0.031,-0.759c0.08,-0.188 0.27,-0.221 0.417,-0.242c0,0 0.04,-0.012 0.073,-0.017c-0.005,-0.044 -0.027,-0.122 -0.027,-0.122l0,-1.633l0.085,-0.078c0.394,-0.431 0.448,-0.896 0.51,-1.381c0.068,-0.49 0.186,-1.018 0.624,-1.505c-0.069,-0.234 -0.125,-0.455 -0.125,-0.597c0,-0.282 0.101,-0.435 0.283,-0.598l0.134,-0.141c-0.007,0 -0.024,-0.328 -0.024,-0.328l0.008,-0.653l0.242,-0.367l0.24,-0.365c0.149,-0.583 0.335,-0.879 0.762,-1.106c0.014,-0.018 0.014,-0.044 0.014,-0.07c0,-0.093 -0.05,-0.201 -0.125,-0.323c-0.052,-0.102 -0.122,-0.226 -0.122,-0.356c0,-0.066 0.013,-0.129 0.053,-0.188c0.078,-0.144 0.243,-0.168 0.416,-0.173c0.037,-1.083 0.186,-1.859 0.516,-2.41l0.093,-0.16l1.058,0.124c1.15,0.119 2.324,0.272 3.088,0.889c0.53,-0.212 1.065,-0.071 1.555,0.089l0.645,0.187l2.121,0.247c1.2,0.111 2.33,0.226 3.322,0.513l0.385,0.116l-0.184,0.254l-0.358,0.549c0,0 -0.043,0.055 -0.067,0.074c0.015,0 0.024,0.019 0.041,0.04c0.372,0.143 0.41,0.084 0.523,-0.172c0.063,-0.167 0.229,-0.392 0.502,-0.516c-0.021,-0.068 -0.035,-0.139 -0.035,-0.139c-0.04,-0.071 -0.092,-0.175 -0.092,-0.293c0,-0.051 0.009,-0.105 0.035,-0.153c0.071,-0.183 0.259,-0.243 0.316,-0.261l0.205,-0.061l0.115,0.172c0.215,0.306 0.7,0.419 1.207,0.534l1.607,0.55l-0.38,0.299c-0.499,0.542 -0.572,1.611 -0.638,2.66c-0.04,0.702 -0.088,1.437 -0.278,2.027c-0.081,0.228 -0.271,0.231 -0.488,0.219c0.004,0.19 0.004,0.431 0.004,0.431c0.022,0.156 0.034,0.323 0.034,0.49c0,0.306 -0.104,0.57 -0.351,0.719c0.054,0.108 0.073,0.223 0.075,0.297l0.009,0.073l-0.03,0.073c-0.46,1.067 -0.502,2.154 -0.502,3.216l0,0.638c0,0.769 -0.024,1.506 -0.227,2.178l-0.329,0.535c-0.133,0.162 -0.198,0.245 -0.198,0.363c0,0.049 0.005,0.104 0.028,0.162l0.026,0.061c0,0 -0.005,0.114 -0.005,0.13c0,0.231 0.087,0.366 0.205,0.545l0.366,0.742l-0.145,0.092c-0.289,0.325 -0.397,0.687 -0.397,1.07c0,0.466 0.159,0.977 0.334,1.559c0.193,0.629 0.405,1.339 0.405,2.072l0,0.014c0.611,-0.128 0.933,0.136 1.183,0.393c0.163,0.179 0.335,0.32 0.604,0.399c-0.073,-0.073 -0.139,-0.156 -0.139,-0.278c0,-0.033 0.013,-0.079 0.028,-0.13c0.085,-0.207 0.313,-0.26 0.395,-0.29l0.245,-0.059l0.121,0.304l0.151,0.003l0.223,-0.175c0.161,-0.168 0.404,-0.405 0.88,-0.36c0.046,-0.123 0.06,-0.288 0.166,-0.337c0.076,-0.047 0.206,-0.017 0.337,0.018c0.01,-0.016 0.187,-0.56 0.187,-0.56l0.426,-0.302c0,0 0.146,-0.116 0.281,-0.234c-0.114,-0.129 -0.206,-0.289 -0.26,-0.409l-0.188,-0.415l1.077,0c-0.003,-0.033 -0.274,-1.14 -0.274,-1.14l0.413,0.126c0.137,0.013 0.191,-0.042 0.318,-0.193l0.48,-0.306c0,0 0.064,0.04 0.095,0.047c-0.031,-0.217 -0.057,-0.428 -0.17,-0.593l-0.302,-0.43l0.569,-0.035c0,-0.009 -0.418,-0.655 -0.418,-0.655l0.698,0.151c0.252,0.066 0.368,0.036 0.393,0.012c0.026,-0.028 0.055,-0.148 -0.007,-0.41l-0.188,-0.875c0,0 0.704,0.623 0.723,0.634c0.075,-0.153 0.22,-0.266 0.443,-0.33l0,-1.053c-0.242,-0.144 -0.523,-0.212 -0.902,-0.165l-0.349,0.04l0.024,-0.358c0.009,-0.103 -0.012,-0.151 -0.026,-0.172c-0.007,-0.004 -0.08,-0.049 -0.278,-0.031c-0.067,0.088 -0.154,0.184 -0.154,0.184c-0.699,0.809 -1.35,1.569 -1.68,2.656l-0.038,0.116l-0.221,0.087l-0.151,0.075c0,0 -0.179,0.049 -0.355,0.101c-0.055,0.424 -0.246,0.717 -0.41,0.941c-0.182,0.231 -0.323,0.41 -0.323,0.735c0,0.094 0.009,0.2 0.033,0.322l0.049,0.276l-0.266,0.069c-0.325,0.082 -0.545,0.278 -0.792,0.509l-0.933,0.706l-0.092,-0.388c-0.322,-0.825 -0.405,-1.69 -0.405,-2.559c0,-0.601 0.038,-1.207 0.08,-1.806l0.056,-0.805l-0.108,-0.533l-0.136,-0.719l0.191,-0.483c0.066,-0.08 0.152,-0.494 0.152,-0.494c0,0 0.342,-1.148 0.394,-1.317c-0.026,-0.21 -0.043,-0.411 -0.043,-0.592c0,-0.721 0.182,-1.244 0.33,-1.692l0.205,-0.747l-0.013,-0.681l0.025,-0.864c0.059,-0.317 0.286,-0.443 0.425,-0.526c0.046,-0.056 0.063,-0.111 0.063,-0.17c0,-0.092 -0.042,-0.186 -0.111,-0.304l-0.23,-0.813l0.176,0.147l0.422,-0.086l0.019,0c0.047,-0.308 0.146,-1.152 0.146,-1.152l0.068,-0.629l0.068,-0.353c0.104,-0.533 0.184,-0.922 0.184,-1.47c0,-0.116 0,-0.238 -0.009,-0.377l-0.031,-0.509l0.452,0.23c0.347,0.18 0.722,0 1.162,-0.207l0.874,-0.328l0.945,0.13c0,0 0.286,0.061 0.444,0.09c0.115,-0.106 0.244,-0.196 0.291,-0.206c0.026,-0.007 0.363,-0.016 0.363,-0.016l0.18,0.002c0.012,0 9.352,-0.982 9.56,-1.006c0.381,-0.384 0.947,-0.528 1.526,-0.627c0.799,-0.141 1.271,-0.284 1.393,-0.791c-0.292,-0.273 -0.476,-0.618 -0.476,-1.106c0,-0.159 0.016,-0.336 0.045,-0.522l0.044,-0.241l0.691,0l0,-1.122c-0.045,0.003 -0.121,0.017 -0.121,0.017c-0.358,0.063 -0.628,0.108 -0.772,-0.127c-0.054,-0.064 -0.071,-0.142 -0.071,-0.226c0,-0.071 0.075,-0.175 0.102,-0.252c-0.726,-0.038 -1.118,0.252 -1.553,0.591Zm-40.7,7.072c-0.119,0.07 -0.11,0.252 -0.089,0.35c0.089,0.099 0.431,-0.004 0.622,-0.108c-0.057,-0.063 -0.137,-0.136 -0.137,-0.136c-0.12,-0.132 -0.299,-0.156 -0.396,-0.106Zm21.568,5.749c0,0 -0.129,0 -0.263,-0.003l0,0.49c0.013,-0.035 0.105,-0.058 0.105,-0.058l0.262,-0.055c0,0 0.042,0.09 0.073,0.17c0.057,-0.104 0.127,-0.188 0.201,-0.262c0.009,-0.072 0.044,-0.308 0.044,-0.315c0,0.033 -0.422,0.033 -0.422,0.033Z" style="fill:#fff;fill-rule:nonzero;"/><path d="M50.97,10.986l-0.508,0.155l-0.774,0.031c-0.421,-0.007 -0.824,0.03 -1.223,0.174c-0.053,0.811 -0.483,1.294 -1.203,1.456c-0.013,0.227 -0.064,0.938 -0.064,0.938c-0.038,0.783 -0.08,1.284 -0.41,2.18c0,0.054 0.089,0.6 0.089,0.6c0.031,0.172 0.071,0.352 0.071,0.526c0,0.302 -0.12,0.615 -0.559,0.87l-0.395,0.231c0,0 -0.026,-0.286 -0.035,-0.394c-0.102,0.092 -0.231,0.146 -0.378,0.184c0.019,0.146 0.05,0.301 0.05,0.422c0,0.605 -0.17,1.081 -0.332,1.51l-0.245,0.848l0.091,0.392l0.16,0.584c0,0.009 -0.202,0.678 -0.202,0.678c-0.082,0.153 -0.123,0.245 -0.123,0.312c0,0.044 0.012,0.08 0.041,0.131l-0.109,-0.111c0.448,0.278 0.679,0.726 0.679,1.334c0,0.055 -0.015,0.118 -0.022,0.18c0.658,0.063 0.898,-0.26 1.169,-0.672l0.53,0.247l-0.285,0.717c-0.134,0.294 -0.266,0.548 -0.266,0.945c0,0.125 0.021,0.27 0.052,0.433c0.139,0.177 0.48,0.606 0.48,0.606c0,0 0.088,0.134 0.151,0.23c0.396,0.069 0.575,-0.058 0.804,-0.24l0.57,-0.395l0.113,0.176l0.384,0.41c0.264,0.314 0.453,0.539 0.905,0.533c0.342,0.054 0.531,-0.208 0.743,-0.564l0.402,-0.428c0.189,-0.059 0.316,0.049 0.437,0.134l0.006,-0.021c0.073,-0.266 0.177,-0.636 0.465,-0.839c0.139,-0.082 0.278,-0.043 0.417,0c-0.073,-0.104 -0.08,-0.207 -0.08,-0.254c0,-0.213 0.151,-0.409 0.365,-0.477c0.049,-0.011 0.103,-0.018 0.163,-0.011c0,-0.116 0.009,-0.253 0.009,-0.253c0,-0.084 -0.009,-0.179 -0.009,-0.268c0,-0.617 0.044,-1.206 0.409,-1.555c0.147,-0.14 0.351,-0.172 0.559,-0.206c-0.014,-0.327 -0.035,-0.648 -0.035,-0.958c0,-1.059 0.084,-2.027 0.16,-2.979c0.075,-0.931 0.153,-1.897 0.153,-2.934c0,-0.306 -0.012,-0.624 -0.023,-0.944l-0.012,-0.323l0.308,0.007c0.167,0 0.28,-0.075 0.398,-0.135c-0.03,-0.122 -0.082,-0.251 -0.082,-0.357c0,-0.218 0.043,-0.41 0.085,-0.583l0.052,-0.572c-0.007,0.007 -0.227,-0.231 -0.227,-0.231c-0.231,-0.203 -0.577,-0.518 -0.577,-1.025c0,-0.009 0.002,-0.022 0.002,-0.031c-0.301,0.005 -0.727,0.009 -0.727,0.009l-1.212,-0.025l-0.598,-0.332l-0.33,-0.159l-0.427,0.093Zm-2.161,8.647c0,-0.641 0.291,-1.293 0.568,-1.922l0.286,-0.665l0.235,-0.952l0.641,-2.316l0.335,0.388c0.391,0.377 0.586,0.978 0.586,1.831l0,0.135c0.021,0.075 0.059,0.148 0.059,0.21c0,0.077 -0.016,0.145 -0.042,0.204c-0.09,0.189 -0.268,0.252 -0.417,0.29c0.071,0.158 0.141,0.319 0.141,0.319l-0.08,0.638c-0.08,0.427 -0.189,1.086 -0.189,1.673c0,0.419 0.053,0.803 0.224,1.051l0.257,0.387l-0.447,0.075c-0.328,0.063 -0.394,0.419 -0.427,1.244c-0.021,0.745 -0.066,1.788 -1.096,1.796l-0.334,0.009l0.047,-0.349c0.083,-0.698 -0.101,-0.99 -0.347,-1.362c-0.31,-0.488 -0.673,-1.051 -0.388,-2.446l0.08,-0.405c0,0 0.308,0.196 0.32,0.2c0,0 -0.012,-0.021 -0.012,-0.033Z" style="fill:#fff;fill-rule:nonzero;"/><path d="M99.881,10.953c-0.407,0.317 -0.916,0.707 -1.588,0.699c-0.116,0.158 -0.189,0.408 -0.252,0.676c-0.075,0.33 -0.17,0.668 -0.382,0.922c0.012,0 0.036,-0.012 0.036,-0.012l0,2.198l-1.283,0c-0.1,0.317 -0.176,0.646 -0.176,0.974c0,0.502 0.089,1.006 0.176,1.508c0.085,0.48 0.172,0.985 0.172,1.461c0,0.308 -0.039,0.608 -0.124,0.893l-0.043,0.127l-0.2,0.12l-0.026,0.014c0,0.104 -0.271,0.637 -0.271,0.637c0,0 -0.118,0.018 -0.219,0.026c-0.304,1.946 -0.42,3.954 -0.42,5.994c0,2.816 0.218,5.691 0.42,8.504c0,0 0.017,0.257 0.03,0.328c0.272,0.257 0.404,0.69 0.46,1.109c0,0 0.005,0.024 0.005,0.029c0.045,-0.068 0.471,-0.69 0.471,-0.69l0.049,0.885l0.144,3.511c0.066,1.023 0.142,2.065 0.142,3.196c0,0.388 -0.021,0.782 -0.035,1.204c0.207,0.139 0.666,0.134 1.1,0.12l0.287,0c0.014,-0.382 0.028,-0.754 0.028,-1.117c0,-1.294 -0.077,-2.51 -0.153,-3.692c-0.077,-1.195 -0.153,-2.423 -0.153,-3.726c0,-0.372 0.012,-0.745 0.026,-1.124c-0.434,-0.32 -0.516,-0.954 -0.516,-1.591c0,-0.112 0.002,-0.513 0.002,-0.615c0,-0.43 -0.019,-0.829 -0.172,-1.039l-0.157,-0.23l0.214,-0.186c0.261,-0.218 0.58,-0.721 0.631,-1.309c0.003,-0.056 0.003,-0.119 0.003,-0.181c0,-0.518 -0.17,-0.93 -0.349,-1.38l-0.13,-0.316l-0.02,-3.248l0.037,-0.032l0.306,-0.371l0.153,-0.294c0.092,-0.565 0.111,-1.225 0.111,-1.89c0,-0.231 -0.009,-1.152 -0.009,-1.39c0,-1.075 0.071,-2.048 0.386,-2.743l-0.007,0l0.017,-0.659c0.009,-0.665 0.066,-1.499 0.709,-1.784c-0.01,-0.101 -0.036,-0.22 -0.036,-0.306c0,-0.597 0.251,-0.995 0.458,-1.325c0.153,-0.24 0.266,-0.414 0.266,-0.624c0,-0.132 -0.043,-0.267 -0.139,-0.443l-0.163,-0.319l0.389,-0.125l0.691,-0.247c0.325,-0.157 0.697,-0.329 1.256,-0.292l0,-0.705l0.277,-0.023c0.576,-0.042 0.868,0.236 1.11,0.452c0.196,0.184 0.335,0.309 0.627,0.307l0.24,-0.003l0.045,0.233c0.104,0.467 0.16,0.929 0.16,1.375c0,0.986 -0.252,1.882 -0.728,2.546c-0.515,0.71 -1.314,1.111 -2.276,1.21c-0.688,0.751 -1.235,1.005 -2.299,0.831c0.044,0.193 0.086,0.382 0.086,0.533c0,0.164 -0.013,0.304 -0.033,0.428c-0.018,0.106 -0.025,0.201 -0.025,0.286c0,0.157 0.037,0.315 0.162,0.535c0.038,0.026 0.074,0.042 0.368,-0.055c0.243,-0.078 0.573,-0.171 0.999,-0.113c0.302,-0.421 0.794,-0.801 1.305,-0.916c0.309,-0.074 0.573,0.016 0.835,0.115c0.115,-0.372 0.285,-0.686 0.469,-0.976l0.737,-1.217l0,0.864c0.031,-0.077 0.076,-0.16 0.076,-0.16c0.072,-0.108 0.221,-0.132 0.36,-0.158c0.049,-0.532 0.252,-0.903 0.464,-1.207c0,0 0.172,-0.282 0.227,-0.379c-0.085,-0.285 -0.149,-0.565 -0.149,-0.799c0,-0.726 0.365,-1.208 0.777,-1.626c-0.091,-0.162 -0.134,-0.348 -0.134,-0.527l0,-0.008c-0.176,-0.049 -0.349,-0.119 -0.388,-0.315c-0.008,-0.021 -0.008,-0.052 -0.008,-0.082c0,-0.048 0.024,-0.106 0.055,-0.17c-0.118,-0.141 -0.271,-0.332 -0.271,-0.332c-0.295,-0.264 -0.648,-0.575 -0.648,-1.23c0,-0.047 0.018,-0.097 0.018,-0.139c-0.044,-0.008 -0.11,-0.015 -0.11,-0.015c-1.242,-0.146 -2.223,-0.266 -3.443,0.038c-0.167,0.082 -0.306,0.283 -0.46,0.526l-1.216,1.234l0.093,-0.791c0.011,-0.802 0.525,-1.134 0.932,-1.398c0.151,-0.099 0.251,-0.216 0.375,-0.328c-0.177,-0.066 -0.37,0.013 -0.761,0.324Zm-2.931,2.639c0,0.021 0.009,0.051 0.009,0.077c0.022,-0.073 0.127,-0.106 0.184,-0.157c-0.012,-0.173 -0.033,-0.533 -0.033,-0.582c-0.096,0.19 -0.16,0.414 -0.16,0.662Z" style="fill:#fff;fill-rule:nonzero;"/><path d="M62.047,10.766c0,0.029 0.003,0.057 0.003,0.078c0,0.808 -0.538,1.086 -0.915,1.279c-0.096,0.024 -0.793,-0.131 -0.793,-0.131l-0.109,-0.036c-0.148,0.637 -0.355,1.282 -0.923,1.589c-0.047,0.942 -0.208,1.602 -0.54,2.03l-0.252,0.324c0,0 -0.286,-0.455 -0.299,-0.481c-0.088,0.629 -0.14,1.317 -0.14,2.045c0,0.353 0.001,0.709 0.014,1.058l0,1.788l-0.073,0.081c-0.318,0.353 -0.487,0.768 -0.593,1.227c0.151,-0.106 0.309,-0.2 0.309,-0.2c0.436,-0.047 0.836,-0.061 0.989,0.238c0.028,0.05 0.04,0.104 0.045,0.163c0.101,-0.031 0.255,-0.031 0.321,-0.094l0.61,-0.536l-0.137,0.806c-0.003,0.061 -0.009,0.104 -0.009,0.142c0,0.188 0.115,0.243 0.525,0.339c0.307,0.056 0.672,0.191 0.858,0.545c0.108,-0.006 0.219,-0.039 0.318,-0.039c0,0 0.587,-0.046 0.632,-0.053l-0.008,0c0,-0.027 0.081,-0.111 0.081,-0.111l0.437,-0.389l0.576,0c0,0 0.155,0.009 0.256,0.014c0.015,-0.195 0.041,-0.367 0.182,-0.474c0.063,-0.04 0.198,-0.105 0.381,-0.049c0.215,-0.035 0.371,0.094 0.547,0.179c0.002,-0.196 0.121,-0.467 0.323,-0.627c0.101,-0.077 0.321,-0.17 0.594,-0.108c-0.016,-0.08 -0.05,-0.168 -0.05,-0.252c0,-0.352 0.133,-0.676 0.571,-0.936l0.292,-0.167c0,0 0.068,0.156 0.103,0.262c0.119,-0.194 0.262,-0.397 0.507,-0.384l0.264,0.023l0.009,0.262c0.083,1.922 -0.28,3.22 -0.667,4.588l-0.598,2.426l-0.122,0.08c-0.439,0.241 -0.769,0.559 -1.157,0.96l-0.09,0.089l-0.127,-0.007c-0.373,-0.01 -0.636,0.054 -0.785,0.186l-0.391,0.34l-0.083,-0.519c-0.037,-0.238 -0.185,-0.368 -0.367,-0.542c0,0 -0.118,-0.116 -0.207,-0.226c-0.634,-0.021 -1.077,0.089 -1.384,0.278c0.057,0.136 0.081,0.292 0.081,0.445l0,0.052c0.28,0.118 0.483,0.316 0.589,0.486l0.125,0.169c0.254,0.015 0.398,0.148 0.443,0.387c-0.012,-0.017 -0.045,-0.08 -0.113,-0.116c0.9,0.45 1.576,0.373 2.514,0.26l0.495,-0.045l0.009,-0.193l0.93,-0.125c0.224,-0.047 0.427,-0.031 0.722,0.04c0.153,-0.262 0.476,-0.816 0.476,-0.816c0.44,-0.66 0.857,-1.293 0.857,-2.351c0,-0.092 -0.004,-0.168 -0.012,-0.262l0,-0.113l0.118,-0.144l0.436,-0.563c0,0 0.097,-0.16 0.168,-0.271c-0.109,-0.254 -0.198,-0.518 -0.198,-0.775c0,-0.465 0.134,-0.922 0.257,-1.345l0.204,-0.873l-0.126,-0.53l-0.119,-0.468c0,0.018 0.139,-0.298 0.139,-0.298c0.073,-0.096 0.121,-0.169 0.121,-0.278c0,-0.021 0,-0.046 -0.002,-0.082c-0.067,-0.104 -0.147,-0.233 -0.241,-0.488c-0.023,-0.011 -0.261,-0.587 -0.261,-0.587l0.15,-0.859l0.094,-0.427l-0.112,-0.599l-0.132,-0.65c0,0.014 0.145,-0.671 0.145,-0.671l0.099,-0.359l-0.063,-0.115l-0.175,-0.684l0.173,-0.292l0.065,-0.16l-0.056,-0.546c-0.035,-0.194 -0.071,-0.403 -0.071,-0.628c0,-0.061 0.036,-0.138 0.045,-0.205l-1.095,0.29l0.202,-0.49c0.014,-0.075 0.023,-0.131 0.023,-0.184c0,-0.15 -0.073,-0.214 -0.195,-0.324c-0.167,-0.145 -0.406,-0.35 -0.406,-0.774c0,-0.075 0.034,-0.167 0.046,-0.252c-0.264,-0.125 -0.707,-0.353 -0.707,-0.353c-0.547,-0.335 -1.014,-0.622 -1.89,-0.526l-0.266,0.029l-0.107,-0.556l0,-0.022c-0.657,0.42 -1.432,0.802 -2.307,1.183Zm0.694,4.814c-0.243,-0.315 -0.349,-0.638 -0.349,-0.949c0,-0.655 0.442,-1.265 0.768,-1.72l0.368,-0.55l0.139,-0.044c0.926,-0.137 1.468,0.167 1.932,0.424l0.363,0.195l0,0.241l0.007,0.738l-0.007,1.029c0,0.005 -0.396,0.481 -0.396,0.481c0,0 -0.113,0.099 -0.133,0.115c0.006,0 0.008,0.014 0.008,0.04c0,0.066 -0.017,0.205 -0.017,0.205l-0.264,0.754c0,0 -0.217,0.048 -0.426,0.09c-0.024,1.147 -0.658,1.696 -1.226,2.168c-0.475,0.405 -0.888,0.754 -0.985,1.435l-0.054,0.348l-0.33,-0.11c-0.466,-0.161 -0.574,-0.455 -0.574,-0.707c0,-0.13 0.033,-0.252 0.051,-0.34l0.031,-0.211l-0.327,-0.22l0.231,-0.299c0.734,-0.634 0.98,-1.821 1.197,-3.112l-0.007,-0.001Z" style="fill:#fff;fill-rule:nonzero;"/></g><g><path d="M315.625,10.218l-2.742,0c-1.329,0 -2.389,-0.324 -3.181,-0.973c-0.792,-0.648 -1.188,-1.605 -1.188,-2.87c0,-1.296 0.394,-2.25 1.18,-2.862c0.787,-0.611 1.85,-0.916 3.189,-0.916l2.742,0l0,-1.866l1.547,0l0,1.866l2.742,0c1.34,0 2.403,0.305 3.189,0.916c0.787,0.612 1.18,1.566 1.18,2.862c0,1.308 -0.401,2.275 -1.204,2.902c-0.802,0.627 -1.857,0.941 -3.165,0.941l-2.742,0l0,2.152l-1.547,0l0,-2.152Zm0,-1.435l0,-4.751l-2.79,0c-1.818,0 -2.726,0.792 -2.726,2.375c0,0.798 0.249,1.393 0.749,1.786c0.5,0.393 1.159,0.59 1.977,0.59l2.79,0Zm4.337,-4.751l-2.79,0l0,4.751l2.79,0c0.819,0 1.478,-0.197 1.977,-0.59c0.5,-0.393 0.75,-0.988 0.75,-1.786c0,-1.583 -0.909,-2.375 -2.727,-2.375Z" style="fill:#fff;fill-opacity:0.96;fill-rule:nonzero;"/><path d="M330.852,4.143c1.18,0 2.166,0.396 2.958,1.188c0.791,0.792 1.187,1.773 1.187,2.942c0,1.169 -0.401,2.15 -1.203,2.941c-0.803,0.792 -1.783,1.188 -2.942,1.188c-1.18,0 -2.166,-0.398 -2.958,-1.196c-0.792,-0.797 -1.188,-1.775 -1.188,-2.933c0,-1.18 0.399,-2.163 1.196,-2.95c0.797,-0.786 1.781,-1.18 2.95,-1.18Zm0,6.92c0.786,0 1.424,-0.271 1.913,-0.813c0.489,-0.542 0.734,-1.201 0.734,-1.977c0,-0.797 -0.248,-1.462 -0.742,-1.993c-0.494,-0.532 -1.129,-0.797 -1.905,-0.797c-0.787,0 -1.424,0.268 -1.913,0.805c-0.489,0.537 -0.734,1.198 -0.734,1.985c0,0.786 0.25,1.448 0.75,1.985c0.499,0.537 1.132,0.805 1.897,0.805Z" style="fill:#fff;fill-opacity:0.96;fill-rule:nonzero;"/><path d="M337.804,12.211l0,-7.876l1.45,0l0,3.22l4.417,0l0,-3.22l1.451,0l0,7.876l-1.451,0l0,-3.348l-4.417,0l0,3.348l-1.45,0Z" style="fill:#fff;fill-opacity:0.96;fill-rule:nonzero;"/><path d="M353.875,10.904l0,-5.262l-3.221,0l-0.207,1.754c-0.095,0.797 -0.212,1.525 -0.351,2.184c-0.106,0.521 -0.271,0.962 -0.494,1.324l4.273,0Zm-5.325,3.683l-1.292,0l0,-3.683l0.941,0c0.447,-0.596 0.765,-1.802 0.957,-3.62l0.335,-2.949l5.835,0l0,6.569l1.435,0l0,3.683l-1.291,0l0,-2.376l-6.92,0l0,2.376Z" style="fill:#fff;fill-opacity:0.96;fill-rule:nonzero;"/><path d="M369.213,10.904l0,-6.569l1.451,0l0,6.569l1.435,0l0,3.683l-1.291,0l0,-2.376l-7.287,0l0,-7.876l1.451,0l0,6.569l4.241,0Z" style="fill:#fff;fill-opacity:0.96;fill-rule:nonzero;"/><path d="M377.648,4.143c1.233,0 2.211,0.412 2.933,1.236c0.723,0.824 1.085,1.847 1.085,3.069l-6.553,0c0.021,0.521 0.18,1.007 0.478,1.459c0.298,0.452 0.68,0.768 1.148,0.949c0.308,0.138 0.659,0.207 1.052,0.207c0.468,0 0.93,-0.093 1.387,-0.279c0.457,-0.186 0.776,-0.46 0.957,-0.821l1.435,0c-0.085,0.478 -0.329,0.906 -0.733,1.283c-0.404,0.378 -0.856,0.667 -1.356,0.869c-0.457,0.192 -1.02,0.287 -1.69,0.287c-1.19,0 -2.179,-0.393 -2.965,-1.18c-0.787,-0.786 -1.18,-1.769 -1.18,-2.949c0,-1.18 0.377,-2.163 1.132,-2.95c0.755,-0.786 1.711,-1.18 2.87,-1.18Zm0,1.244c-0.617,0 -1.14,0.159 -1.571,0.478c-0.43,0.319 -0.72,0.776 -0.869,1.371l4.847,0c-0.18,-0.584 -0.478,-1.039 -0.893,-1.363c-0.414,-0.324 -0.919,-0.486 -1.514,-0.486Z" style="fill:#fff;fill-opacity:0.96;fill-rule:nonzero;"/><path d="M384.886,8.703l0.431,-4.368l5.867,0l0,7.876l-1.451,0l0,-6.569l-3.252,0l-0.303,3.157c-0.043,0.404 -0.085,0.744 -0.128,1.02c-0.042,0.277 -0.122,0.588 -0.239,0.933c-0.117,0.346 -0.26,0.622 -0.43,0.829c-0.17,0.207 -0.404,0.383 -0.702,0.526c-0.298,0.144 -0.643,0.216 -1.036,0.216l-0.431,0l0,-1.308l0.192,0c0.414,0 0.72,-0.095 0.916,-0.287c0.197,-0.191 0.338,-0.494 0.423,-0.909c0.053,-0.319 0.101,-0.691 0.143,-1.116Z" style="fill:#fff;fill-opacity:0.96;fill-rule:nonzero;"/><path d="M397.992,4.143c1.233,0 2.211,0.412 2.934,1.236c0.723,0.824 1.084,1.847 1.084,3.069l-6.553,0c0.022,0.521 0.181,1.007 0.479,1.459c0.297,0.452 0.68,0.768 1.148,0.949c0.308,0.138 0.659,0.207 1.052,0.207c0.468,0 0.93,-0.093 1.387,-0.279c0.457,-0.186 0.776,-0.46 0.957,-0.821l1.435,0c-0.085,0.478 -0.33,0.906 -0.734,1.283c-0.404,0.378 -0.855,0.667 -1.355,0.869c-0.457,0.192 -1.02,0.287 -1.69,0.287c-1.191,0 -2.179,-0.393 -2.966,-1.18c-0.786,-0.786 -1.18,-1.769 -1.18,-2.949c0,-1.18 0.378,-2.163 1.132,-2.95c0.755,-0.786 1.712,-1.18 2.87,-1.18Zm0,1.244c-0.616,0 -1.14,0.159 -1.57,0.478c-0.431,0.319 -0.72,0.776 -0.869,1.371l4.847,0c-0.181,-0.584 -0.478,-1.039 -0.893,-1.363c-0.414,-0.324 -0.919,-0.486 -1.515,-0.486Z" style="fill:#fff;fill-opacity:0.96;fill-rule:nonzero;"/><path d="M404.737,12.211l0,-7.876l4.145,0c0.776,0 1.422,0.164 1.937,0.494c0.516,0.329 0.774,0.856 0.774,1.578c0,0.404 -0.101,0.766 -0.303,1.085c-0.202,0.318 -0.494,0.536 -0.877,0.653c0.361,0.096 0.696,0.282 1.004,0.558c0.287,0.287 0.431,0.681 0.431,1.18c0,0.776 -0.29,1.358 -0.869,1.746c-0.579,0.388 -1.273,0.582 -2.081,0.582l-4.161,0Zm4.145,-6.601l-2.694,0l0,1.945l2.694,0c0.851,0 1.276,-0.34 1.276,-1.02c0,-0.33 -0.125,-0.566 -0.375,-0.71c-0.25,-0.143 -0.55,-0.215 -0.901,-0.215Zm0.048,3.221l-2.742,0l0,2.104l2.726,0c0.946,0 1.419,-0.372 1.419,-1.116c0,-0.35 -0.138,-0.603 -0.414,-0.757c-0.277,-0.154 -0.606,-0.231 -0.989,-0.231Z" style="fill:#fff;fill-opacity:0.96;fill-rule:nonzero;"/><path d="M418.337,4.143c1.18,0 2.166,0.396 2.958,1.188c0.792,0.792 1.188,1.773 1.188,2.942c0,1.169 -0.402,2.15 -1.204,2.941c-0.803,0.792 -1.783,1.188 -2.942,1.188c-1.18,0 -2.166,-0.398 -2.958,-1.196c-0.791,-0.797 -1.187,-1.775 -1.187,-2.933c0,-1.18 0.398,-2.163 1.195,-2.95c0.798,-0.786 1.781,-1.18 2.95,-1.18Zm0,6.92c0.787,0 1.424,-0.271 1.913,-0.813c0.489,-0.542 0.734,-1.201 0.734,-1.977c0,-0.797 -0.247,-1.462 -0.742,-1.993c-0.494,-0.532 -1.129,-0.797 -1.905,-0.797c-0.787,0 -1.424,0.268 -1.913,0.805c-0.489,0.537 -0.734,1.198 -0.734,1.985c0,0.786 0.25,1.448 0.75,1.985c0.499,0.537 1.132,0.805 1.897,0.805Z" style="fill:#fff;fill-opacity:0.96;fill-rule:nonzero;"/><path d="M425.257,12.211l0,-7.876l5.867,0l0,1.307l-4.416,0l0,6.569l-1.451,0Z" style="fill:#fff;fill-opacity:0.96;fill-rule:nonzero;"/><path d="M436.737,4.143c1.179,0 2.165,0.396 2.957,1.188c0.792,0.792 1.188,1.773 1.188,2.942c0,1.169 -0.401,2.15 -1.204,2.941c-0.802,0.792 -1.783,1.188 -2.941,1.188c-1.18,0 -2.166,-0.398 -2.958,-1.196c-0.792,-0.797 -1.188,-1.775 -1.188,-2.933c0,-1.18 0.399,-2.163 1.196,-2.95c0.797,-0.786 1.78,-1.18 2.95,-1.18Zm0,6.92c0.786,0 1.424,-0.271 1.913,-0.813c0.489,-0.542 0.733,-1.201 0.733,-1.977c0,-0.797 -0.247,-1.462 -0.741,-1.993c-0.494,-0.532 -1.13,-0.797 -1.905,-0.797c-0.787,0 -1.425,0.268 -1.914,0.805c-0.489,0.537 -0.733,1.198 -0.733,1.985c0,0.786 0.25,1.448 0.749,1.985c0.5,0.537 1.132,0.805 1.898,0.805Z" style="fill:#fff;fill-opacity:0.96;fill-rule:nonzero;"/><path d="M309.024,32.938l0,-7.876l1.404,0l0,3.412l4.145,-3.412l2.073,0l-4.656,3.779l4.863,4.097l-2.057,0l-4.368,-3.603l0,3.603l-1.404,0Z" style="fill:#fff;fill-opacity:0.96;fill-rule:nonzero;"/><path d="M324.777,32.938l0,-1.355c-0.255,0.5 -0.635,0.882 -1.14,1.148c-0.505,0.266 -1.055,0.399 -1.65,0.399c-1.159,0 -2.089,-0.399 -2.79,-1.196c-0.702,-0.797 -1.053,-1.775 -1.053,-2.934c0,-1.169 0.357,-2.15 1.069,-2.942c0.712,-0.791 1.637,-1.187 2.774,-1.187c1.095,0 1.935,0.361 2.519,1.084c0.149,0.212 0.239,0.351 0.271,0.414l0,-1.307l1.451,0l0,7.876l-1.451,0Zm0.032,-3.938c0,-0.797 -0.234,-1.461 -0.701,-1.993c-0.468,-0.531 -1.085,-0.797 -1.85,-0.797c-0.787,0 -1.419,0.268 -1.897,0.805c-0.479,0.537 -0.718,1.199 -0.718,1.985c0,0.84 0.239,1.499 0.718,1.977c0.478,0.542 1.11,0.813 1.897,0.813c0.765,0 1.382,-0.271 1.85,-0.813c0.467,-0.542 0.701,-1.201 0.701,-1.977Z" style="fill:#fff;fill-opacity:0.96;fill-rule:nonzero;"/><path d="M329.624,32.938l0,-7.876l7.159,0l0,7.876l-1.451,0l0,-6.569l-4.257,0l0,6.569l-1.451,0Z" style="fill:#fff;fill-opacity:0.96;fill-rule:nonzero;"/><path d="M340.179,32.938l0,-7.876l1.451,0l0,5.931l4.576,-5.931l1.451,0l0,7.876l-1.451,0l0,-5.979l-4.576,5.979l-1.451,0Z" style="fill:#fff;fill-opacity:0.96;fill-rule:nonzero;"/><path d="M353.221,32.938l0,-6.569l-3.188,0l0,-1.307l7.828,0l0,1.307l-3.189,0l0,6.569l-1.451,0Z" style="fill:#fff;fill-opacity:0.96;fill-rule:nonzero;"/><path d="M365.977,32.938l0,-1.355c-0.255,0.5 -0.635,0.882 -1.14,1.148c-0.505,0.266 -1.055,0.399 -1.65,0.399c-1.159,0 -2.089,-0.399 -2.791,-1.196c-0.701,-0.797 -1.052,-1.775 -1.052,-2.934c0,-1.169 0.356,-2.15 1.068,-2.942c0.712,-0.791 1.637,-1.187 2.775,-1.187c1.094,0 1.934,0.361 2.519,1.084c0.148,0.212 0.239,0.351 0.271,0.414l0,-1.307l1.451,0l0,7.876l-1.451,0Zm0.032,-3.938c0,-0.797 -0.234,-1.461 -0.702,-1.993c-0.468,-0.531 -1.084,-0.797 -1.849,-0.797c-0.787,0 -1.419,0.268 -1.898,0.805c-0.478,0.537 -0.717,1.199 -0.717,1.985c0,0.84 0.239,1.499 0.717,1.977c0.479,0.542 1.111,0.813 1.898,0.813c0.765,0 1.381,-0.271 1.849,-0.813c0.468,-0.542 0.702,-1.201 0.702,-1.977Z" style="fill:#fff;fill-opacity:0.96;fill-rule:nonzero;"/><path d="M371.477,29.431l0.431,-4.369l5.867,0l0,7.876l-1.451,0l0,-6.569l-3.252,0l-0.303,3.157c-0.043,0.404 -0.085,0.744 -0.128,1.021c-0.042,0.276 -0.122,0.587 -0.239,0.932c-0.117,0.346 -0.26,0.622 -0.43,0.829c-0.17,0.208 -0.404,0.383 -0.702,0.527c-0.297,0.143 -0.643,0.215 -1.036,0.215l-0.431,0l0,-1.308l0.192,0c0.414,0 0.72,-0.095 0.916,-0.287c0.197,-0.191 0.338,-0.494 0.423,-0.908c0.053,-0.319 0.101,-0.691 0.143,-1.116Z" style="fill:#fff;fill-opacity:0.96;fill-rule:nonzero;"/><path d="M387.23,32.938l0,-1.355c-0.255,0.5 -0.635,0.882 -1.14,1.148c-0.505,0.266 -1.055,0.399 -1.65,0.399c-1.159,0 -2.089,-0.399 -2.79,-1.196c-0.702,-0.797 -1.053,-1.775 -1.053,-2.934c0,-1.169 0.357,-2.15 1.069,-2.942c0.712,-0.791 1.637,-1.187 2.774,-1.187c1.095,0 1.935,0.361 2.519,1.084c0.149,0.212 0.239,0.351 0.271,0.414l0,-1.307l1.451,0l0,7.876l-1.451,0Zm0.032,-3.938c0,-0.797 -0.234,-1.461 -0.701,-1.993c-0.468,-0.531 -1.085,-0.797 -1.85,-0.797c-0.787,0 -1.419,0.268 -1.897,0.805c-0.479,0.537 -0.718,1.199 -0.718,1.985c0,0.84 0.239,1.499 0.718,1.977c0.478,0.542 1.11,0.813 1.897,0.813c0.765,0 1.382,-0.271 1.85,-0.813c0.467,-0.542 0.701,-1.201 0.701,-1.977Z" style="fill:#fff;fill-opacity:0.96;fill-rule:nonzero;"/></g></svg>