<?xml version="1.0" encoding="UTF-8" standalone="no"?><!DOCTYPE svg PUBLIC "-//W3C//DTD SVG 1.1//EN" "http://www.w3.org/Graphics/SVG/1.1/DTD/svg11.dtd"><svg width="100%" height="100%" viewBox="0 0 102 102" version="1.1" xmlns="http://www.w3.org/2000/svg" xmlns:xlink="http://www.w3.org/1999/xlink" xml:space="preserve" xmlns:serif="http://www.serif.com/" style="fill-rule:evenodd;clip-rule:evenodd;stroke-linejoin:round;stroke-miterlimit:1.5;"><circle cx="51" cy="51" r="49.5" style="fill:none;stroke:#d52132;stroke-width:3px;"/><g><path d="M67.617,34.383c-4.439,-4.439 -10.34,-6.883 -16.617,-6.883c-6.277,0 -12.178,2.444 -16.617,6.883c-4.439,4.439 -6.883,10.34 -6.883,16.617c0,6.277 2.444,12.178 6.883,16.617c4.439,4.439 10.34,6.883 16.617,6.883c2.307,0 4.587,-0.334 6.776,-0.992c0.364,-0.109 0.57,-0.493 0.461,-0.857c-0.11,-0.365 -0.493,-0.571 -0.858,-0.462c-2.06,0.62 -4.206,0.934 -6.379,0.934c-5.909,0 -11.465,-2.301 -15.643,-6.48c-4.178,-4.178 -6.48,-9.734 -6.48,-15.643c0,-5.909 2.301,-11.465 6.48,-15.643c4.178,-4.179 9.734,-6.48 15.643,-6.48c5.909,0 11.465,2.301 15.643,6.48c4.179,4.178 6.48,9.734 6.48,15.643c0,4.304 -1.237,8.475 -3.576,12.064c-2.28,3.498 -5.482,6.272 -9.261,8.022c-0.345,0.159 -0.496,0.569 -0.336,0.914c0.16,0.345 0.57,0.495 0.914,0.335c4.014,-1.858 7.415,-4.804 9.837,-8.519c2.485,-3.813 3.799,-8.245 3.799,-12.816c0,-6.277 -2.444,-12.178 -6.883,-16.617Z" style="fill:#d52132;fill-rule:nonzero;"/><path d="M36.477,37.381c-3.474,3.703 -5.387,8.539 -5.387,13.619c0,5.318 2.071,10.318 5.832,14.078c3.76,3.76 8.76,5.831 14.078,5.831c5.318,0 10.318,-2.071 14.078,-5.831c3.76,-3.76 5.831,-8.76 5.831,-14.078c0,-5.318 -2.071,-10.318 -5.831,-14.078c-3.76,-3.761 -8.76,-5.832 -14.078,-5.832c-4.41,0 -8.587,1.412 -12.081,4.084c-0.303,0.231 -0.36,0.663 -0.129,0.965c0.231,0.302 0.663,0.36 0.965,0.129c3.252,-2.486 7.14,-3.8 11.245,-3.8c10.218,0 18.532,8.313 18.532,18.532c0,10.219 -8.314,18.532 -18.532,18.532c-10.219,0 -18.532,-8.314 -18.532,-18.532c0,-4.728 1.78,-9.23 5.013,-12.676c0.26,-0.278 0.246,-0.714 -0.031,-0.974c-0.277,-0.26 -0.713,-0.246 -0.973,0.031Z" style="fill:#d52132;fill-rule:nonzero;"/><path d="M51,37.768c0.38,0 0.689,-0.308 0.689,-0.688l0,-2.376c0,-0.38 -0.309,-0.689 -0.689,-0.689c-0.38,0 -0.689,0.309 -0.689,0.689l0,2.376c0,0.38 0.309,0.688 0.689,0.688Z" style="fill:#d52132;fill-rule:nonzero;"/><path d="M50.311,64.92l0,2.376c0,0.38 0.309,0.689 0.689,0.689c0.38,0 0.689,-0.309 0.689,-0.689l0,-2.376c0,-0.38 -0.309,-0.688 -0.689,-0.688c-0.38,0 -0.689,0.308 -0.689,0.688Z" style="fill:#d52132;fill-rule:nonzero;"/><path d="M34.704,50.311c-0.38,0 -0.689,0.309 -0.689,0.689c0,0.38 0.309,0.689 0.689,0.689l2.376,0c0.38,0 0.688,-0.309 0.688,-0.689c0,-0.38 -0.308,-0.689 -0.688,-0.689l-2.376,0Z" style="fill:#d52132;fill-rule:nonzero;"/><path d="M67.296,51.689c0.38,0 0.689,-0.309 0.689,-0.689c0,-0.38 -0.309,-0.689 -0.689,-0.689l-2.376,0c-0.38,0 -0.688,0.309 -0.688,0.689c0,0.38 0.308,0.689 0.688,0.689l2.376,0Z" style="fill:#d52132;fill-rule:nonzero;"/><path d="M50.311,48.549c-1.07,0.301 -1.857,1.286 -1.857,2.451c0,1.404 1.142,2.546 2.546,2.546c1.165,0 2.15,-0.787 2.451,-1.857l4.133,0c0.38,0 0.689,-0.309 0.689,-0.689c0,-0.38 -0.309,-0.689 -0.689,-0.689l-4.133,0c-0.24,-0.851 -0.911,-1.522 -1.762,-1.762l0,-7.448c0,-0.38 -0.309,-0.689 -0.689,-0.689c-0.38,0 -0.689,0.309 -0.689,0.689l0,7.448Zm0.689,1.282c0.645,0 1.169,0.524 1.169,1.169c0,0.645 -0.524,1.169 -1.169,1.169c-0.645,0 -1.169,-0.524 -1.169,-1.169c0,-0.645 0.524,-1.169 1.169,-1.169Z" style="fill:#d52132;fill-rule:nonzero;"/></g></svg>