<?xml version="1.0" encoding="UTF-8" standalone="no"?><!DOCTYPE svg PUBLIC "-//W3C//DTD SVG 1.1//EN" "http://www.w3.org/Graphics/SVG/1.1/DTD/svg11.dtd"><svg width="100%" height="100%" viewBox="0 0 441 29" version="1.1" xmlns="http://www.w3.org/2000/svg" xmlns:xlink="http://www.w3.org/1999/xlink" xml:space="preserve" xmlns:serif="http://www.serif.com/" style="fill-rule:evenodd;clip-rule:evenodd;stroke-linejoin:round;stroke-miterlimit:1.41421;"><clipPath id="_clip1"><rect id="new-logo-big" x="0" y="0" width="440.834" height="28.646"/></clipPath><g clip-path="url(#_clip1)"><rect x="-1.421" y="-1.422" width="31.471" height="31.471" style="fill:none;"/><g id="Group"><path id="Path" d="M25.19,5.76c0.665,0.858 1.219,1.798 1.691,2.794l-12.803,9.435l-5.376,-3.375l0,-4.04l5.348,3.348l11.14,-8.162Z" style="fill:#21a038;fill-rule:nonzero;"/><g id="Path1" serif:id="Path"><path d="M3.242,14.337c0,-0.194 0,-0.36 0.028,-0.553l-3.242,-0.166c0,0.221 -0.028,0.47 -0.028,0.691c0,3.874 1.58,7.388 4.129,9.933l2.3,-2.296c-1.967,-1.937 -3.187,-4.621 -3.187,-7.609Z" style="fill:url(#_Linear2);fill-rule:nonzero;"/><path d="M14.05,3.547c0.194,0 0.36,0 0.554,0.027l0.166,-3.237c-0.221,0 -0.471,-0.027 -0.692,-0.027c-3.88,0 -7.399,1.577 -9.949,4.122l2.3,2.296c1.94,-1.964 4.656,-3.181 7.621,-3.181Z" style="fill:url(#_Linear3);fill-rule:nonzero;"/><path d="M14.05,25.127c-0.194,0 -0.36,0 -0.554,-0.027l-0.167,3.237c0.222,0 0.472,0.027 0.693,0.027c3.88,0 7.399,-1.577 9.949,-4.122l-2.3,-2.296c-1.94,1.992 -4.628,3.181 -7.621,3.181Z" style="fill:url(#_Linear4);fill-rule:nonzero;"/></g><g id="Path2" serif:id="Path"><path d="M20.147,5.428l2.743,-2.02c-2.411,-1.936 -5.487,-3.126 -8.84,-3.126l0,3.237c2.272,0.028 4.378,0.719 6.097,1.909Z" style="fill:url(#_Linear5);fill-rule:nonzero;"/><path d="M28.128,14.337c0,-0.858 -0.084,-1.688 -0.222,-2.518l-3.021,2.241l0,0.277c0,3.182 -1.385,6.031 -3.575,7.996l2.19,2.407c2.826,-2.545 4.628,-6.281 4.628,-10.403Z" style="fill:#21a038;fill-rule:nonzero;"/><path d="M14.05,25.127c-3.187,0 -6.041,-1.383 -8.009,-3.569l-2.411,2.186c2.577,2.85 6.291,4.62 10.42,4.62l0,-3.237Z" style="fill:url(#_Linear6);fill-rule:nonzero;"/><path d="M6.817,6.341l-2.189,-2.407c-2.854,2.573 -4.628,6.281 -4.628,10.403l3.242,0c0,-3.154 1.386,-6.032 3.575,-7.996Z" style="fill:url(#_Linear7);fill-rule:nonzero;"/></g></g><path d="M83.437,7.865l3.896,-2.863l-13.034,0l0,17.233l13.034,0l0,-2.872l-9.318,0l0,-4.408l7.943,0l0,-2.872l-7.943,0l0,-4.218l5.422,0Z" style="fill:#21a038;fill-rule:nonzero;"/><path d="M64.459,11.723l-4.532,0l0,-3.858l7.224,0l3.896,-2.873l-14.835,0l0,17.243l7.763,0c4.36,0 6.854,-1.972 6.854,-5.413c0,-3.289 -2.257,-5.099 -6.37,-5.099Zm-0.645,7.64l-3.877,0l0,-4.778l3.877,0c2.36,0 3.46,0.797 3.46,2.389c0,1.63 -1.166,2.389 -3.46,2.389Z" style="fill:#21a038;fill-rule:nonzero;"/><path d="M97.892,5.002l-7.1,0l0,17.233l3.716,0l0,-4.881l3.375,0c4.531,0 7.337,-2.38 7.337,-6.19c0,-3.811 -2.806,-6.162 -7.328,-6.162Zm-0.085,9.479l-3.299,0l0,-6.616l3.299,0c2.379,0 3.697,1.175 3.697,3.308c0,2.133 -1.308,3.308 -3.697,3.308Z" style="fill:#21a038;fill-rule:nonzero;"/><path d="M49.823,18.5c-0.986,0.531 -2.095,0.816 -3.214,0.806c-3.356,0 -5.782,-2.398 -5.782,-5.687c0,-3.29 2.436,-5.688 5.782,-5.688c1.213,-0.019 2.398,0.351 3.384,1.062l2.673,-1.972l-0.18,-0.152c-1.554,-1.365 -3.64,-2.095 -6.019,-2.095c-2.579,0 -4.929,0.872 -6.598,2.456c-1.668,1.583 -2.606,3.82 -2.606,6.294c0,2.474 0.919,4.749 2.597,6.389c1.678,1.64 4.019,2.55 6.578,2.55c2.683,0 5.024,-0.939 6.607,-2.636l-2.407,-1.772l-0.815,0.445Z" style="fill:#21a038;fill-rule:nonzero;"/><path d="M117.258,19.052c0.323,0 0.613,-0.073 0.872,-0.218c0.257,-0.145 0.484,-0.411 0.677,-0.798l-7.405,-13.262l3.509,0l5.445,9.825l4.452,-9.825l3.17,0l-6.219,13.407c-0.339,0.742 -0.677,1.351 -1.016,1.827c-0.339,0.476 -0.686,0.855 -1.041,1.137c-0.355,0.283 -0.722,0.481 -1.101,0.593c-0.379,0.113 -0.787,0.17 -1.222,0.17c-0.387,0 -0.754,-0.041 -1.101,-0.121c-0.347,-0.081 -0.634,-0.17 -0.859,-0.267l0,-3.145c0.225,0.209 0.5,0.374 0.823,0.496c0.322,0.121 0.661,0.181 1.016,0.181Z" style="fill:#21a038;fill-rule:nonzero;"/><path d="M142.546,7.557l-9.026,0l0,14.157l-3.025,0l0,-16.94l15.076,0l0,16.94l-3.025,0l0,-14.157l0,0Z" style="fill:#21a038;fill-rule:nonzero;"/><path d="M153,16.438l0,5.276l-3.024,0l0,-16.94l5.638,0c2.678,0 4.617,0.481 5.82,1.44c1.202,0.96 1.804,2.392 1.804,4.296c0,1.984 -0.647,3.468 -1.937,4.452c-1.291,0.985 -3.186,1.476 -5.687,1.476l-2.614,0Zm0,-8.881l0,6.099l2.832,0c1.419,0 2.484,-0.246 3.194,-0.738c0.71,-0.492 1.065,-1.319 1.065,-2.481c0,-1.049 -0.331,-1.791 -0.992,-2.226c-0.662,-0.436 -1.735,-0.653 -3.219,-0.653l-2.88,0l0,-0.001Z" style="fill:#21a038;fill-rule:nonzero;"/><path d="M180.635,21.714l-3.218,0l-1.621,-4.017l-7.768,0l-1.598,4.017l-3.073,0l6.872,-16.94l3.437,0l6.969,16.94Zm-5.953,-6.8l-2.782,-6.945l-2.784,6.945l5.566,0Z" style="fill:#21a038;fill-rule:nonzero;"/><path d="M183.03,21.714l0,-16.94l7.356,0c3.809,0 5.712,1.404 5.712,4.211c0,0.968 -0.202,1.775 -0.605,2.42c-0.404,0.646 -1.041,1.137 -1.911,1.476c1.047,0.178 1.814,0.593 2.298,1.247c0.484,0.653 0.726,1.536 0.726,2.649c0,0.871 -0.153,1.622 -0.46,2.251c-0.306,0.629 -0.747,1.142 -1.318,1.537c-0.573,0.395 -1.267,0.685 -2.082,0.871c-0.814,0.185 -1.738,0.278 -2.77,0.278l-6.946,0Zm6.922,-9.777c0.967,0 1.73,-0.201 2.287,-0.605c0.555,-0.403 0.834,-0.968 0.834,-1.694c0,-0.677 -0.238,-1.193 -0.713,-1.549c-0.476,-0.354 -1.256,-0.532 -2.337,-0.532l-3.967,0l0,4.38l3.896,0l0,0Zm0.218,6.994c1.16,0 2.016,-0.19 2.564,-0.569c0.549,-0.379 0.822,-0.98 0.822,-1.803c0,-0.822 -0.289,-1.403 -0.87,-1.742c-0.581,-0.339 -1.404,-0.508 -2.468,-0.508l-4.162,0l0,4.622l4.114,0Z" style="fill:#21a038;fill-rule:nonzero;"/><path d="M211.368,7.557l-6.437,0l-0.048,0.799c-0.113,2.049 -0.268,3.808 -0.46,5.275c-0.194,1.468 -0.416,2.707 -0.665,3.715c-0.252,1.008 -0.534,1.815 -0.849,2.42c-0.313,0.605 -0.649,1.069 -1.004,1.391c-0.355,0.323 -0.729,0.533 -1.125,0.63c-0.395,0.096 -0.794,0.145 -1.197,0.145c-0.565,0 -1.017,-0.081 -1.356,-0.242l0,-3.049c0.129,0.048 0.255,0.081 0.376,0.096c0.121,0.017 0.237,0.025 0.35,0.025c0.194,0 0.392,-0.032 0.594,-0.097c0.202,-0.064 0.402,-0.214 0.604,-0.448c0.203,-0.233 0.392,-0.58 0.569,-1.04c0.178,-0.46 0.346,-1.077 0.509,-1.851c0.161,-0.775 0.305,-1.734 0.434,-2.88c0.131,-1.145 0.234,-2.533 0.315,-4.162l0.171,-3.509l12.244,0l0,16.939l-3.025,0l0,-14.157Z" style="fill:#21a038;fill-rule:nonzero;"/><path d="M229.612,14.382l-7.79,0l0,4.549l8.952,0l0,2.783l-11.977,0l0,-16.94l11.711,0l0,2.783l-8.686,0l0,4.042l7.79,0l0,2.783Z" style="fill:#21a038;fill-rule:nonzero;"/><path d="M246.674,14.382l-9.268,0l0,7.332l-3.026,0l0,-16.94l3.026,0l0,6.825l9.268,0l0,-6.825l3.024,0l0,16.94l-3.024,0l0,-7.332Z" style="fill:#21a038;fill-rule:nonzero;"/><path d="M257.129,17.431l9.245,-12.657l3.291,0l0,16.94l-3.026,0l0,-12.85l-9.292,12.85l-3.244,0l0,-16.94l3.026,0l0,12.657Z" style="fill:#21a038;fill-rule:nonzero;"/><path d="M284.884,14.382l-7.792,0l0,4.549l8.954,0l0,2.783l-11.979,0l0,-16.94l11.713,0l0,2.783l-8.688,0l0,4.042l7.792,0l0,2.783Z" style="fill:#21a038;fill-rule:nonzero;"/><path d="M311.189,21.714l-3.218,0l-1.622,-4.017l-7.767,0l-1.598,4.017l-3.073,0l6.873,-16.94l3.436,0l6.969,16.94Zm-5.952,-6.8l-2.783,-6.945l-2.784,6.945l5.567,0Z" style="fill:#21a038;fill-rule:nonzero;"/><path d="M316.611,21.714l-3.025,0l0,-16.94l3.025,0l0,7.115l2.54,0l5.446,-7.115l3.678,0l-6.461,8.059l7.502,8.881l-3.872,0l-6.146,-7.332l-2.687,0l0,7.332Z" style="fill:#21a038;fill-rule:nonzero;"/><path d="M344.196,7.557l-5.71,0l0,14.157l-3.026,0l0,-14.157l-5.614,0l0,-2.783l14.35,0l0,2.783Z" style="fill:#21a038;fill-rule:nonzero;"/><path d="M349.761,17.431l9.243,-12.657l3.292,0l0,16.94l-3.024,0l0,-12.85l-9.293,12.85l-3.243,0l0,-16.94l3.025,0l0,12.657Z" style="fill:#21a038;fill-rule:nonzero;"/><path d="M366.702,21.714l0,-16.94l7.358,0c3.806,0 5.71,1.404 5.71,4.211c0,0.968 -0.202,1.775 -0.605,2.42c-0.403,0.646 -1.041,1.137 -1.911,1.476c1.048,0.178 1.814,0.593 2.298,1.247c0.484,0.653 0.725,1.536 0.725,2.649c0,0.871 -0.152,1.622 -0.459,2.251c-0.306,0.629 -0.747,1.142 -1.318,1.537c-0.573,0.395 -1.267,0.685 -2.082,0.871c-0.815,0.185 -1.739,0.278 -2.771,0.278l-6.945,0Zm6.922,-9.777c0.967,0 1.729,-0.201 2.286,-0.605c0.556,-0.403 0.834,-0.968 0.834,-1.694c0,-0.677 -0.237,-1.193 -0.713,-1.549c-0.475,-0.354 -1.255,-0.532 -2.336,-0.532l-3.967,0l0,4.38l3.896,0l0,0Zm0.218,6.994c1.16,0 2.016,-0.19 2.563,-0.569c0.549,-0.379 0.823,-0.98 0.823,-1.803c0,-0.822 -0.289,-1.403 -0.87,-1.742c-0.581,-0.339 -1.404,-0.508 -2.469,-0.508l-4.163,0l0,4.622l4.116,0Z" style="fill:#21a038;fill-rule:nonzero;"/><path d="M398.958,21.714l-3.218,0l-1.622,-4.017l-7.768,0l-1.597,4.017l-3.073,0l6.873,-16.94l3.436,0l6.969,16.94Zm-5.952,-6.8l-2.784,-6.945l-2.783,6.945l5.567,0Z" style="fill:#21a038;fill-rule:nonzero;"/><path d="M416.914,8.985l-5.444,9.002l-1.525,0l-5.565,-8.881l0,12.608l-3.025,0l0,-16.94l3.822,0l5.615,9.22l5.565,-9.22l3.583,0l0,16.94l-3.026,0l0,-12.729Z" style="fill:#21a038;fill-rule:nonzero;"/><path d="M427.369,17.431l9.244,-12.657l3.292,0l0,16.94l-3.026,0l0,-12.85l-9.292,12.85l-3.242,0l0,-16.94l3.024,0l0,12.657Z" style="fill:#21a038;fill-rule:nonzero;"/></g><defs><linearGradient id="_Linear2" x1="0" y1="0" x2="1" y2="0" gradientUnits="userSpaceOnUse" gradientTransform="matrix(-1.30009,-10.246,10.246,-1.30009,3.79368,23.8481)"><stop offset="0" style="stop-color:#f2e913;stop-opacity:1"/><stop offset="0.14" style="stop-color:#f2e913;stop-opacity:1"/><stop offset="0.3" style="stop-color:#e7e518;stop-opacity:1"/><stop offset="0.58" style="stop-color:#cadb26;stop-opacity:1"/><stop offset="0.89" style="stop-color:#a3cd39;stop-opacity:1"/><stop offset="1" style="stop-color:#a3cd39;stop-opacity:1"/></linearGradient><linearGradient id="_Linear3" x1="0" y1="0" x2="1" y2="0" gradientUnits="userSpaceOnUse" gradientTransform="matrix(9.14411,-1.26586,1.26586,9.14411,5.05329,4.0567)"><stop offset="0" style="stop-color:#0fa8e0;stop-opacity:1"/><stop offset="0.06" style="stop-color:#0fa8e0;stop-opacity:1"/><stop offset="0.54" style="stop-color:#0099f9;stop-opacity:1"/><stop offset="0.92" style="stop-color:#0291eb;stop-opacity:1"/><stop offset="1" style="stop-color:#0291eb;stop-opacity:1"/></linearGradient><linearGradient id="_Linear4" x1="0" y1="0" x2="1" y2="0" gradientUnits="userSpaceOnUse" gradientTransform="matrix(10.3404,-0.84897,0.84897,10.3404,13.139,25.603)"><stop offset="0" style="stop-color:#a3cd39;stop-opacity:1"/><stop offset="0.12" style="stop-color:#a3cd39;stop-opacity:1"/><stop offset="0.28" style="stop-color:#86c339;stop-opacity:1"/><stop offset="0.87" style="stop-color:#21a038;stop-opacity:1"/><stop offset="1" style="stop-color:#21a038;stop-opacity:1"/></linearGradient><linearGradient id="_Linear5" x1="0" y1="0" x2="1" y2="0" gradientUnits="userSpaceOnUse" gradientTransform="matrix(8.84083,0.922924,-0.922924,8.84083,13.3837,2.35305)"><stop offset="0" style="stop-color:#0291eb;stop-opacity:1"/><stop offset="0.06" style="stop-color:#0291eb;stop-opacity:1"/><stop offset="0.79" style="stop-color:#0c8acb;stop-opacity:1"/><stop offset="1" style="stop-color:#0c8acb;stop-opacity:1"/></linearGradient><linearGradient id="_Linear6" x1="0" y1="0" x2="1" y2="0" gradientUnits="userSpaceOnUse" gradientTransform="matrix(9.62333,1.5317,-1.5317,9.62333,4.45465,24.2697)"><stop offset="0" style="stop-color:#f2e913;stop-opacity:1"/><stop offset="0.13" style="stop-color:#f2e913;stop-opacity:1"/><stop offset="0.3" style="stop-color:#ebe716;stop-opacity:1"/><stop offset="0.53" style="stop-color:#d9e01f;stop-opacity:1"/><stop offset="0.8" style="stop-color:#bbd62d;stop-opacity:1"/><stop offset="0.98" style="stop-color:#a3cd39;stop-opacity:1"/><stop offset="1" style="stop-color:#a3cd39;stop-opacity:1"/></linearGradient><linearGradient id="_Linear7" x1="0" y1="0" x2="1" y2="0" gradientUnits="userSpaceOnUse" gradientTransform="matrix(1.65881,-10.0326,10.0326,1.65881,2.46708,14.728)"><stop offset="0" style="stop-color:#a3cd39;stop-opacity:1"/><stop offset="0.07" style="stop-color:#a3cd39;stop-opacity:1"/><stop offset="0.26" style="stop-color:#81c55f;stop-opacity:1"/><stop offset="0.92" style="stop-color:#0fa8e0;stop-opacity:1"/><stop offset="1" style="stop-color:#0fa8e0;stop-opacity:1"/></linearGradient></defs></svg>