<?xml version="1.0" encoding="UTF-8" standalone="no"?><!DOCTYPE svg PUBLIC "-//W3C//DTD SVG 1.1//EN" "http://www.w3.org/Graphics/SVG/1.1/DTD/svg11.dtd"><svg width="100%" height="100%" viewBox="0 0 788 441" version="1.1" xmlns="http://www.w3.org/2000/svg" xmlns:xlink="http://www.w3.org/1999/xlink" xml:space="preserve" xmlns:serif="http://www.serif.com/" style="fill-rule:evenodd;clip-rule:evenodd;stroke-linecap:round;stroke-linejoin:round;stroke-miterlimit:1.5;"><g><path d="M545.579,208.131c-8.121,-59.738 -179.462,-166.458 -198.698,-174.576c-19.236,-8.117 -102.62,-39.912 -138.758,-32.422c-36.138,7.49 -181.117,65.068 -200.745,53.956c-19.628,-11.113 152.265,93.93 196.655,94.766c44.391,0.836 68.669,-14.075 107.917,-8.572c39.248,5.504 53.374,0.049 121.473,26.875c68.099,26.826 106.438,46.553 115.28,60.152" style="fill:#d9d9d9;"/><g><path d="M784.975,384.311c-21.812,-15.114 -96.043,-68.639 -121.659,-83.595c-26.867,-15.686 -110.875,-45.379 -128.087,-89.442c-28.985,-74.203 -154.655,-136.087 -211.291,-155.188c-61.838,-20.855 -113.272,-16.944 -146.91,-7.039c-33.638,9.906 -154.186,64.804 -173.967,56.69c-19.781,-8.114 154.222,69.813 196.541,66.567c42.319,-3.246 63.934,-18.682 101.824,-17.317c37.891,1.365 50.788,-4.753 118.251,12.973c67.463,17.727 105.905,31.817 115.671,43.11c9.767,11.294 93.92,75.546 100.437,80.705c6.517,5.158 66.347,27.881 83.666,47.673c14.04,16.047 34.68,41.077 66.684,45.158" style="fill:none;stroke:#272727;stroke-width:3px;"/><path d="M777.078,382.587c-22.365,-4.54 -66.691,-17.025 -90.244,-1.084" style="fill:none;stroke:#272727;stroke-width:3px;"/><path d="M677.902,379.703c-17.121,13.477 -13.285,12.503 -36.015,32.629c-22.731,20.126 -69.883,48.281 -112.305,7.87c-42.422,-40.411 -51.873,-50.516 -66.545,-56.639c-14.671,-6.123 29.015,19.577 91.443,-4.99c62.429,-24.567 103.045,5.201 123.577,21.039" style="fill:#d52132;"/><path d="M438.006,286.961c0,0 38.255,40.726 84.981,47.84c45.049,6.859 92.44,-23.023 125.654,5.154c33.214,28.177 25.769,31.178 37.666,41.339c4.994,4.264 -77.072,45.656 -132.858,24.81c0,0 -49.078,-13.222 -115.541,-118.894" style="fill:none;stroke:#272727;stroke-width:3px;"/></g></g></svg>