<?xml version="1.0" encoding="UTF-8" standalone="no"?><!DOCTYPE svg PUBLIC "-//W3C//DTD SVG 1.1//EN" "http://www.w3.org/Graphics/SVG/1.1/DTD/svg11.dtd"><svg width="100%" height="100%" viewBox="0 0 618 1050" version="1.1" xmlns="http://www.w3.org/2000/svg" xmlns:xlink="http://www.w3.org/1999/xlink" xml:space="preserve" xmlns:serif="http://www.serif.com/" style="fill-rule:evenodd;clip-rule:evenodd;stroke-linecap:round;stroke-linejoin:round;stroke-miterlimit:1.5;"><g><path d="M520.221,1008.25c-69.605,-51.748 -111.592,-110.587 -174.538,-134.026c-82.137,-30.586 -85.748,-18.609 -165.801,-58.684c-95.098,-47.607 -179.882,-120.013 -179.882,-120.013c99.993,95.707 59.88,200.351 143.08,303.194c88.162,108.976 376.924,9.953 376.924,9.953" style="fill:#d52132;"/><path d="M538.219,982.719c-69.605,-51.747 -111.592,-110.586 -174.538,-134.026c-82.138,-30.586 -85.748,-18.609 -165.802,-58.684c-95.097,-47.607 -179.882,-120.013 -179.882,-120.013c99.993,95.708 59.881,200.352 143.08,303.195c88.162,108.976 376.925,9.953 376.925,9.953" style="fill:none;stroke:#272727;stroke-width:3px;"/><path d="M386.079,769.54c15.002,-44.346 38.525,-75.692 39.853,-111.909c1.734,-47.261 -5.17,-47.122 1.898,-94.891c8.396,-56.745 31.581,-112.321 31.581,-112.321c-32.747,67.261 -94.556,64.074 -133.964,123.9c-41.758,63.394 60.372,195.18 60.372,195.18" style="fill:none;stroke:#272727;stroke-width:3px;"/><path d="M166.382,414.655c4.239,-69.116 22.91,-199.949 95.784,-251.886c36.419,-25.956 192.092,-131.971 203.026,-160.171c10.139,-26.149 -24.072,151.531 -51.876,243.089c-27.552,90.724 -215.475,176.818 -246.077,169.794" style="fill:#fff;"/><path d="M215.448,610.832c-21.316,5.167 -17.398,5.88 -46.635,14.782c-29.237,8.901 -84.184,14.931 -106.042,-39.788c-21.858,-54.718 -26.265,-67.917 -37.119,-79.657c-10.854,-11.74 18.331,30.049 85.748,33.694c67.417,3.645 92.088,47.871 104.228,70.951" style="fill:#fff;"/><path d="M616.32,1029.56c-74.419,-56.16 -115.746,-103.855 -115.746,-103.855c0,0 -162.829,-207.974 -217.385,-262.843c-32.823,-33.011 -60.064,-61.604 -68.281,-61.002c-21.874,1.604 -18.126,2.95 -48.426,6.94c-30.3,3.99 -85.493,0.935 -98.089,-56.626c-12.597,-57.56 -14.782,-71.302 -23.565,-84.662c-8.783,-13.36 13.16,32.646 79.068,47.289c65.909,14.643 84.877,56.719 97.283,69.432c12.406,12.712 -69.538,-48.139 -51.132,-162.553c10.998,-68.366 42.414,-196.736 120.032,-241.273c38.79,-22.258 204.113,-112.49 217.76,-139.481c12.655,-25.028 -38.822,148.438 -75.474,236.826c-36.318,87.584 -251.75,165.51 -281.515,155.518c-29.766,-9.992 -112.555,-48.303 -107.247,-88.221c10.528,-79.166 -34.255,-126.908 -32.21,-125.353c65.558,49.857 125.831,54.622 133.625,117.456c6.691,53.947 6.243,89.448 4.747,95.174c-5.91,22.618 29.198,63.21 82.503,139.701c23.893,34.287 20.297,44.47 32.433,82.171c13.573,42.164 49.198,50.903 90.736,77.38c115.28,73.482 106.14,277.701 204.615,249.657c0,0 30.172,-2.635 35.72,37.338c1.725,12.433 10.205,22.665 20.548,29.737" style="fill:none;stroke:#272727;stroke-width:3px;stroke-linecap:butt;"/></g></svg>