<?xml version="1.0" encoding="UTF-8" standalone="no"?><!DOCTYPE svg PUBLIC "-//W3C//DTD SVG 1.1//EN" "http://www.w3.org/Graphics/SVG/1.1/DTD/svg11.dtd"><svg width="100%" height="100%" viewBox="0 0 1923 728" version="1.1" xmlns="http://www.w3.org/2000/svg" xmlns:xlink="http://www.w3.org/1999/xlink" xml:space="preserve" xmlns:serif="http://www.serif.com/" style="fill-rule:evenodd;clip-rule:evenodd;stroke-linecap:round;stroke-linejoin:round;stroke-miterlimit:1.5;"><path d="M1418.05,248.34c10.423,-5.401 9.08,-3.679 24.001,-10.29c14.921,-6.612 39.282,-23.727 29.314,-55.569c-9.967,-31.841 -12.722,-39.211 -12.36,-48.259c0.361,-9.048 2.907,19.762 -23.182,45.6c-26.088,25.839 -20.872,54.094 -17.853,68.574" style="fill:#fff;"/><path d="M1426.63,144.618c-13.887,-6.834 -12.087,-4.677 -31.954,-13.066c-19.868,-8.39 -52.371,-29.956 -39.486,-69.489c12.884,-39.533 16.461,-48.678 15.884,-59.946c-0.576,-11.267 -3.646,24.57 31.243,57.015c34.889,32.445 28.27,67.563 24.418,85.557" style="fill:#fff;"/><path d="M1.5,723.348c448.965,-0.169 1126.46,-0.465 1127.8,-0.715c19.236,-3.586 120.726,-8.322 105.103,-162.8c-5.114,-50.57 -74.503,-84.639 -122.794,-112.729c-48.291,-28.09 -99.58,-45.223 -68.443,-103.67c31.138,-58.446 18.364,-116.953 113.736,-182.178c0,0 60.214,-73.64 86.56,-73.475c26.345,0.165 2.171,62.406 -26.17,95.618c-28.34,33.213 -62.403,88.752 -62.403,88.752c0,0 -15.289,-34.463 46.299,-84.726c0,0 41.674,-66.801 74.482,-84.546c32.807,-17.745 43.243,-5.947 28.182,29.285c-15.061,35.232 -83.163,135.982 -90.586,139.987c-7.422,4.004 -21.469,44.512 -30.195,43.101c-8.726,-1.411 15.208,-42.015 32.208,-66.43c17.001,-24.415 33.65,-38.136 45.293,-47.306c11.643,-9.169 29.208,-46.394 46.299,-48.312c17.092,-1.918 6.592,36.049 -5.032,53.345c-11.624,17.296 -75.111,107.568 -85.553,114.742c-10.442,7.174 71.718,-130.558 88.572,-106.69c16.855,23.868 -6.669,54.993 -24.156,66.43c0,0 -8.854,9.782 -8.052,32.208c0,0 -5.52,14.381 -12.078,19.124c0,0 27.057,19.042 57.371,41.266c0,0 7.827,3.152 26.169,5.033c18.343,1.881 38.051,44.213 34.222,79.514c-3.83,35.301 -4.139,83.217 10.065,122.794c14.203,39.577 4.037,117.335 -34.222,114.742c-38.259,-2.593 -52.021,-46.946 -51.332,-98.638c0.69,-51.692 -0.122,-53.811 3.02,-65.423c3.142,-11.612 8.971,-51.01 -6.039,-55.358c-15.01,-4.347 -61.386,-4.825 -72.469,-15.097c0,0 -41.582,-11.208 -50.325,-12.079c-8.743,-0.87 -32.574,13.926 -53.345,-33.214c-20.77,-47.14 -21.461,-39.314 -31.202,-54.352c-9.74,-15.038 -22.813,-27.759 -21.136,-64.416c1.676,-36.658 -23.342,-52.028 -2.013,-80.521c21.329,-28.493 67.238,41.651 71.462,55.537c4.224,13.885 11.6,25.519 5.032,43.101c0,0 38.198,5.914 42.274,41.267c0,0 10.17,-2.594 28.182,0c18.012,2.594 111.722,37.24 111.722,37.24c0,0 63.753,35.154 29.189,40.261c-34.564,5.107 -7.282,-74.713 -2.625,-84.328c14.926,-30.813 28.297,-37.857 28.297,-37.857l-1.77,1.434c0,0 43.578,-61.209 53.246,-64.538c9.668,-3.329 8.308,-2.06 22.023,-5.909c13.716,-3.849 36.813,-15.309 31.693,-42.435c-5.12,-27.126 -6.695,-33.451 -5.372,-40.824c1.323,-7.373 0.326,16.491 -25.246,34.915c-25.572,18.425 -26.013,40.047 -29.007,47.807c-2.994,7.759 21.007,-33.53 -7.79,-79.464c-17.207,-27.447 -18.664,-45.977 -60.069,-50.909c-20.693,-2.465 -19.284,-6.228 -30.066,-15.355c-9.997,-8.462 -6.043,22.315 25.817,53.678c31.571,31.077 65.439,-0.218 76.37,-9.995c10.932,-9.777 10.863,-49.192 -1.062,-64.25c-11.925,-15.058 -23.369,-26.128 -32.861,-50.901c0,0 -16.833,41.401 -7.845,72.879c6.99,24.483 39.999,40.417 41.686,42.61c6.666,8.663 -2.295,55.717 -11.163,98.484c-8.867,42.767 -10.818,66.235 -8.057,80.036c2.761,13.801 4.463,40.582 15.04,18.263c6.388,-13.479 -10.964,-31.755 -26.554,-34.017c-10.224,-1.484 -20.295,11.187 -20.295,11.187c-52.078,67.56 58.229,117.083 145.731,60.486c22.941,-14.839 52.154,-2.672 68.711,-18.498c13.154,-12.575 28.182,0 28.182,0c4.076,-35.353 42.273,-41.267 42.273,-41.267c-6.568,-17.582 0.809,-29.216 5.033,-43.101c4.224,-13.886 50.133,-84.03 71.462,-55.537c21.329,28.493 -3.69,43.863 -2.013,80.521c1.677,36.657 -11.396,49.378 -21.137,64.416c-9.74,15.038 -10.431,7.212 -31.201,54.352c-20.771,47.14 -44.603,32.344 -53.345,33.214c-8.743,0.871 -50.326,12.079 -50.326,12.079c-11.082,10.272 -57.458,10.75 -72.468,15.097c-15.01,4.348 -9.181,43.746 -6.039,55.358c3.141,11.612 2.33,13.731 3.019,65.423c0.69,51.692 -13.073,96.045 -51.332,98.638c-38.259,2.593 -48.425,-75.165 -34.221,-114.742c14.204,-39.577 13.895,-87.493 10.065,-122.794c-3.83,-35.301 15.879,-77.633 34.221,-79.514c18.343,-1.881 26.17,-5.033 26.17,-5.033c30.314,-22.224 57.371,-41.266 57.371,-41.266c-6.559,-4.743 -12.079,-19.124 -12.079,-19.124c0.803,-22.426 -8.052,-32.208 -8.052,-32.208c-17.486,-11.437 -41.01,-42.562 -24.156,-66.43c16.855,-23.868 99.015,113.864 88.573,106.69c-10.442,-7.174 -73.929,-97.446 -85.553,-114.742c-11.625,-17.296 -22.124,-55.263 -5.033,-53.345c17.092,1.918 34.656,39.143 46.3,48.312c11.643,9.17 28.292,22.891 45.292,47.306c17.001,24.415 40.935,65.019 32.209,66.43c-8.726,1.411 -22.773,-39.097 -30.196,-43.101c-7.422,-4.005 -75.524,-104.755 -90.585,-139.987c-15.061,-35.232 -4.626,-47.03 28.182,-29.285c32.808,17.745 74.481,84.546 74.481,84.546c61.589,50.263 46.3,84.726 46.3,84.726c0,0 -34.063,-55.539 -62.404,-88.752c-28.34,-33.212 -52.515,-95.453 -26.169,-95.618c26.346,-0.165 86.56,73.475 86.56,73.475c95.372,65.225 82.598,123.732 113.735,182.178c31.138,58.447 -20.152,75.58 -68.442,103.67c-48.291,28.09 -107.708,64.191 -122.794,112.729c-6.159,19.815 -9.096,37.426 3.052,73.576c22.687,67.514 85.196,91.586 116.534,91.915c41.601,0.438 126.299,0.61 224.006,0.824" style="fill:none;stroke:#151515;stroke-width:3px;"/></svg>