<?xml version="1.0" encoding="UTF-8" standalone="no"?><!DOCTYPE svg PUBLIC "-//W3C//DTD SVG 1.1//EN" "http://www.w3.org/Graphics/SVG/1.1/DTD/svg11.dtd"><svg width="100%" height="100%" viewBox="0 0 833 763" version="1.1" xmlns="http://www.w3.org/2000/svg" xmlns:xlink="http://www.w3.org/1999/xlink" xml:space="preserve" xmlns:serif="http://www.serif.com/" style="fill-rule:evenodd;clip-rule:evenodd;stroke-linecap:round;stroke-linejoin:round;stroke-miterlimit:1.5;"><g><path d="M613.237,300.487c33.336,-10.033 28.543,-5.909 75.722,-17.181c47.179,-11.273 127.265,-47.127 113.317,-139.692c-13.948,-92.565 -18.496,-114.198 -13.047,-139.008c5.449,-24.809 -1.007,55.914 -90.413,115.043c-89.405,59.129 -87.723,139.569 -85.84,180.956" style="fill:#fff;"/><path d="M541.917,659.682c-71.777,-10.615 -117.584,-45.392 -173.255,-37.774c-72.646,9.942 -87.385,66.482 -162.248,68.603c-88.931,2.521 -183.259,56.381 -183.259,56.381c52.728,-18.404 103.239,-4.096 212.653,12.487c171.077,25.93 306.117,-99.298 306.117,-99.298" style="fill:#d9d9d9;"/><path d="M591.082,274.924c20.053,-10.442 63.659,-32.939 92.395,-45.851c28.736,-12.911 69.608,-64.522 49.48,-121.828c-20.128,-57.307 -28.688,-80.003 -24.792,-96.018c5.468,-22.474 -31.454,68.189 -88.329,112.729c-54.794,42.911 -28.682,150.968 -28.682,150.968c0,0 -45.044,84.285 -27.135,124.297c17.909,40.012 20.782,122.973 19.537,153.126c-1.244,30.152 65.62,34.416 65.62,34.416c116.784,48.229 -134.47,69.205 -126.373,50.758c-77.024,-13.459 -85.389,-52.215 -145.577,-45.578c-78.539,8.661 -96.011,69.153 -176.718,69.328c-95.873,0.208 -199.008,55.569 -199.008,55.569c57.321,-18.339 111.332,-1.501 228.732,19.449c183.563,32.757 292.568,-98.339 292.568,-98.339c40.922,-5.147 291.747,-17.92 231.812,17.456c-73.19,43.2 -172.062,-135.338 -201.925,-138.952c-204.441,-24.741 -182.629,-68.32 -213.448,-125.894c-44.363,-82.875 27.592,-165.369 107.561,-205.871c22.925,-11.61 -89.927,41.97 30.085,140.236c75.078,61.474 47.459,186.773 106.191,288.135c23.644,40.806 105.519,192.809 248.424,90.229" style="fill:none;stroke:#272727;stroke-width:3px;"/></g></svg>