<?xml version="1.0" encoding="UTF-8" standalone="no"?><!DOCTYPE svg PUBLIC "-//W3C//DTD SVG 1.1//EN" "http://www.w3.org/Graphics/SVG/1.1/DTD/svg11.dtd"><svg width="100%" height="100%" viewBox="0 0 781 989" version="1.1" xmlns="http://www.w3.org/2000/svg" xmlns:xlink="http://www.w3.org/1999/xlink" xml:space="preserve" xmlns:serif="http://www.serif.com/" style="fill-rule:evenodd;clip-rule:evenodd;stroke-linecap:round;stroke-linejoin:round;stroke-miterlimit:1.5;"><g><g><path d="M412.29,761.734c-44.615,-44.344 -57.997,-93.632 -101.143,-116.146c-56.302,-29.379 -97.107,5.524 -150.749,-30.84c-63.724,-43.197 -158.898,-50.653 -158.898,-50.653c46.895,12.939 74.606,49.271 142.398,117.17c105.998,106.165 268.183,80.772 268.183,80.772" style="fill:#d9d9d9;"/><path d="M423.797,729.203c-45.749,-46.881 -54.629,-112.912 -98.781,-137.888c-57.615,-32.592 -89.676,13.615 -143.055,-32.57c-64.158,-55.512 -180.461,-78.352 -180.461,-78.352c38.54,22.269 70.979,63.772 120.143,122.242c8.412,10.005 17.608,20.273 27.765,30.757c108.694,112.19 274.176,96.102 274.176,96.102c30.33,16.55 258.198,174.843 200.138,169.52c-70.901,-6.499 -81.112,-209.844 -95.823,-112.813c-10.041,66.229 -4.283,298.696 250.67,155.021" style="fill:none;stroke:#272727;stroke-width:3px;"/></g><g><path d="M457.796,367.472c-20.585,-72.227 -70.902,-206.399 -160.642,-243.976c-44.85,-18.78 -235.407,-93.824 -253.616,-121.088c-16.885,-25.281 60.884,154.812 111.803,245.175c50.456,89.54 270.752,135.746 301.734,120.97" style="fill:#fff;"/><path d="M487.848,620.09c23.919,0.367 19.91,2.062 53.138,4.49c33.229,2.427 93.191,-4.35 103.765,-67.573c10.574,-63.224 12.203,-78.266 21.041,-93.308c8.838,-15.042 -12.551,36.236 -83.554,56.252c-71.003,20.017 -87.013,72.795 -94.586,100.162" style="fill:#d52132;"/><path d="M777.373,872.367c-102.652,-36.767 -364.771,-123.726 -323.943,-208.247c39.587,-81.954 3.491,-74.039 21.172,-76.683c23.686,-3.543 20.004,-1.218 53.224,-4.25c33.221,-3.032 91.332,-19.495 91.375,-83.511c0.042,-64.016 -0.824,-79.103 5.431,-95.365c6.255,-16.262 -6.435,37.75 -73.274,69.059c-66.838,31.31 -77.271,80.445 -87.537,96.889c-10.266,16.444 62.919,-67.676 16.702,-184.512c-27.616,-69.814 -90.943,-198.322 -184.018,-226.92c-46.516,-14.293 -250.689,-95.299 -271.509,-120.632c-19.306,-23.491 82.885,173 142.497,257.884c59.069,84.112 306.785,115.071 336.185,97.35c29.399,-17.721 122.108,-72.271 103.601,-111.809c-18.88,-40.336 25.02,-86.717 13.983,-147.198c0,0 -133.007,79.359 -126.051,154.922c5.411,58.772 6.478,97.115 9.403,102.824c11.557,22.553 -16.423,73.982 -55.449,167.814c-39.026,93.831 36.067,146.62 61.601,177.177c30.851,36.919 2.771,120.131 266.607,150.139" style="fill:none;stroke:#272727;stroke-width:3px;"/></g></g></svg>